<svg width="190" height="179" viewBox="0 0 190 179" fill="none" xmlns="http://www.w3.org/2000/svg">
<path d="M183.574 100.169H101.041L156.006 155.134C158.107 157.235 161.564 157.406 163.724 155.371C177.185 142.69 186.443 125.595 189.16 106.378C189.626 103.087 186.896 100.169 183.574 100.169ZM178.068 77.6309C175.202 36.081 142 2.87857 100.45 0.012577C97.2776 -0.206546 94.6064 2.46815 94.6064 5.64718V83.4742H172.437C175.616 83.4742 178.287 80.803 178.068 77.6309ZM77.9113 100.169V17.6363C77.9113 14.3147 74.9931 11.5844 71.7062 12.0504C30.2572 17.9076 -1.42528 54.1186 0.0494542 97.5155C1.56593 142.084 39.9403 178.633 84.5302 178.073C102.06 177.854 118.258 172.205 131.576 162.759C134.323 160.811 134.504 156.766 132.122 154.383L77.9113 100.169Z" fill="#09B44D"/>
</svg>
