<svg xmlns="http://www.w3.org/2000/svg" width="2487" height="829" fill="#000" xmlns:v="https://vecta.io/nano"><path d="M1775.07 3.067c-1.73 2.533-2 35.067-1.87 273.866l2.54 273.734c2.26 2.533 4 2.666 43.33 2.666 37.87 0 41.07-.133 43.07-2.4 2-2.133 2.26-9.2 2.26-68.666 0-38.134.67-67.734 1.34-69.6 1.46-4 5.6-4.4 9.06-.934 1.2 1.334 6.4 7.467 11.47 13.6l11.6 14c1.33 1.467 5.6 6.534 9.47 11.334 3.86 4.8 7.33 8.933 7.73 9.333.53.4 3.2 3.733 6.13 7.333 2.8 3.734 7.6 9.334 10.4 12.4 2.94 3.2 6.8 7.867 8.67 10.534 2 2.666 4.93 6.4 6.67 8.266 1.73 1.867 6.53 7.6 10.66 12.8L1968 524c1.6 1.867 6.27 7.467 10.54 12.667 4.26 5.066 9.46 10.933 11.46 13.066l3.74 3.6 55.06-.266 54.94-.4.4-3.067c.4-2.933-3.47-9.867-8.8-15.733-1.34-1.334-4.14-4.934-6.27-7.867l-4.67-6c-.4-.4-3.06-3.733-6-7.333-2.8-3.734-5.6-6.934-6-7.334s-2.53-3.066-4.8-6c-2.13-2.933-5.2-6.8-6.66-8.666-2.8-3.2-8.14-10-24.54-30.8-4.26-5.6-8.66-11.067-9.6-12-2.4-2.534-22.66-27.867-25.06-31.334-2-2.8-14.94-19.066-23.34-29.2-25.86-31.333-37.06-46.533-37.06-50 0-2.4 7.06-12.266 23.86-33.333l37.74-47.333L2021.07 234c5.6-6.8 18.4-22.8 31.33-39.2l23.34-29.333c30.93-38.534 31.33-38.934 26.8-42.667-2-1.6-101.34-2.4-107.6-.8-2.27.533-7.07 5.2-13.34 13.067-5.33 6.8-10.8 13.333-12.13 14.666s-2.4 2.8-2.4 3.334-1.33 2.4-3.07 4.266c-1.6 1.867-10.4 12.667-19.46 24l-19.6 24.4c-1.74 2.134-9.2 11.734-16.8 21.334l-14.4 18.266c-.54.4-5.2 6.267-10.54 12.934-8.13 10.4-10.26 12.4-13.46 12.4-2.94 0-3.87-.667-4.4-3.867-.4-2-.8-61.733-.94-132.667l-1.73-131.6C1861.2.133 1859.34 0 1819.07 0c-41.87.133-42 .133-44 3.067zm-244 97.333c-6.27.533-14.27 1.467-18 2.133-15.47 2.934-21.47 4.267-24 5.467-1.47.667-4.8 1.6-7.33 2.133-2.54.4-5.87 1.734-7.34 2.667-1.46 1.067-3.46 1.867-4.53 1.867s-5.2 1.6-9.33 3.466c-35.07 16.134-63.87 38-86.14 65.867-9.06 11.333-18.13 24.533-21.86 32-1.6 3.333-4.27 8.4-5.87 11.333-3.47 6.4-7.87 17.334-11.07 27.334-1.2 4-3.06 9.466-3.86 12-2.94 8.133-4.67 18.666-6.8 39.333-2.67 28.267-.27 58.533 6.8 82 1.06 3.333 2.26 8 2.66 10.267.54 2.4 1.47 4.666 2.14 5.066.66.534 1.2 1.734 1.2 2.934 0 4.533 20.13 45.066 24 48.4.4.4 3.73 4.8 7.33 10 6.27 8.933 31.6 35.333 40 41.6 13.47 10.133 16.67 12.4 17.87 12.4.8 0 1.46.533 1.46 1.2s1.34 1.733 3.07 2.266c1.6.4 3.87 1.6 4.93 2.667 2.54 2.133 28.67 15.2 30.54 15.2.8 0 3.33.8 5.73 1.867 12.27 5.066 24 8.133 42.13 10.8 6.8 1.066 12.94 2.266 13.6 2.666 2.67 1.6 42.14.667 55.74-1.333 50-7.6 94.93-29.867 128.66-64.133 6.4-6.4 11.6-12.534 11.6-13.467 0-1.067-.8-3.467-1.86-5.467-2.4-4.4-51.34-53.2-55.74-55.466-4.26-2.267-8.93.133-19.73 10.4-12.27 11.733-21.6 18.266-35.33 24.8-18.27 8.666-19.6 9.066-36.67 12.266-8.93 1.6-48.4.667-54-1.333-2.13-.8-8.8-3.067-14.67-5.067-19.86-6.8-35.46-16.533-50.66-31.866-9.47-9.467-24.67-29.467-24.67-32.534 0-.533-1.73-4.266-3.73-8.266-8-15.2-12.27-34.934-12.27-56 0-33.067 12.53-66.534 33.6-90 8.4-9.334 22.4-21.334 31.07-26.8 8.4-5.2 34.53-16.4 38.26-16.4 1.2 0 6-.934 10.67-2.134 14.8-3.866 60.27-.4 65.73 4.934.67.666 2 1.2 3.07 1.2 2 0 11.73 4.133 19.6 8.266 10.13 5.467 20.13 12.934 31.6 23.734 11.07 10.266 14.27 12 18.27 9.466 1.06-.666 14.4-13.733 29.73-28.933 20-20 27.73-28.667 27.73-30.933 0-5.867-24.4-28.8-46.4-43.334-12-7.866-34.66-19.6-45.6-23.466-32.53-11.6-67.6-16.134-101.33-13.067zm-506 .8c-16 1.733-48.267 10.4-58.267 15.6-1.867 1.067-4.4 1.867-5.467 1.867s-2.666.933-3.6 2-2.4 2-3.333 2c-1.467 0-9.467 4.4-22.667 12.4-14.533 8.8-42.933 33.866-51.333 45.2-1.733 2.4-4.667 6-6.533 8-1.734 2-3.867 4.8-4.667 6.266s-3.6 5.867-6.267 9.734c-5.333 7.733-16.933 29.2-18.533 34.4-.667 1.866-2.4 6.666-4 10.666-4.533 11.467-7.867 24.934-12 48-1.733 9.334-1.6 48.534 0 60 2.667 18.4 7.467 37.867 10.533 43.6.8 1.6 1.467 3.867 1.467 4.934 0 2 5.867 16 10.267 24.133 6.266 11.867 8.533 15.733 14.666 25.2 17.067 26 43.467 51.067 71.734 68.4 8.8 5.333 41.2 20.4 44 20.4 1.066 0 3.866.8 6.266 1.867 20.804 8.8 74.934 12.533 105.064 7.2 24.8-4.267 46.94-11.334 51.07-16 2-2.4 2.27-6.934 2.27-50.4 0-42.267-.27-47.867-2.14-48.534-3.33-1.333-6.93-.933-8.8.934-.93.933-4.93 3.6-8.66 6-13.74 8.4-29.2 14.133-47.07 17.6-7.87 1.6-41.87 1.6-48.67 0-16.4-3.6-21.2-5.2-32.664-10.4-5.333-2.4-20.266-11.067-21.333-12.267-.4-.4-3.6-2.933-7.333-5.6-9.067-6.667-24.667-23.733-27.734-30.4-.533-1.067-2.133-3.867-3.466-6-2.4-3.6-4.134-7.067-10.134-20-1.066-2.267-2.266-5.867-2.8-8-.533-2.267-1.333-4.667-1.866-5.333-2-2.534-5.334-26-5.334-37.067 0-16.667 4.8-40.8 10.134-50.533 1.066-1.867 1.866-4.4 1.866-5.467s.934-2.667 2-3.6 2-2.4 2-3.333c0-1.734 6.4-12.267 12.267-20 10.267-13.734 29.733-30.134 45.733-38.8C999.07 202 1015.6 196 1022.4 194.533c2.94-.533 7.6-1.6 10.27-2.266 6.8-1.734 33.47-2 42.13-.267l13.34 2.533c19.6 4 43.86 17.6 61.06 34.4 12.4 12 14.8 14.8 22.27 26.4s18.27 39.2 18.27 46.934c0 1.733.66 5.733 1.33 8.8.8 3.466 1.47 48.533 1.73 119.866l2 116c1.34 1.334 11.07 1.734 42 2 22.14.134 41.6-.266 43.34-.933l2.93-1.2V425.733l-1.33-128.4c-4.54-25.2-9.2-42.933-14.54-55.333-7.73-17.733-22.26-43.467-29.33-51.467-.8-1.066-3.07-3.866-4.8-6.4-12-16.8-46.93-46.266-66.67-56.266-2.93-1.467-6.26-3.2-7.33-3.867-4-2.267-19.47-9.2-22.67-10-1.86-.533-3.86-1.467-4.66-2-.67-.533-3.74-1.467-6.67-2s-6-1.467-6.67-2c-.8-.667-4.66-1.733-8.66-2.533-4-.667-9.74-2-12.67-2.8-6.53-1.734-59.07-2.8-72-1.467zm-458.667 13.333c-10.534 1.2-23.334 3.734-29.334 5.734-2.133.666-6.133 1.733-8.666 2.4-8 1.733-30.4 11.6-39.334 17.466-2.133 1.334-4.933 2.934-6 3.467-12.4 6.267-42.8 34.267-52 47.733l-8.266 12.267c-5.2 7.6-15.2 28.133-18.267 37.467-11.2 34.266-10.8 28.666-10.8 178.4v132l3.067 2.533c2.8 2.533 5.2 2.667 43.6 2.8 40.533.133 40.533.133 43.6-2.933l3.066-3.067V422.133c0-143.2-.266-137.733 9.2-158.8 17.867-39.466 64.8-64.8 105.734-57.333 20.8 3.733 32.4 8.533 47.066 19.333 21.6 15.867 35.067 39.2 39.201 67.734.933 6.266 1.466 52.666 1.466 134l1.867 127.066c1.867 2.4 4 2.534 42.4 2.667 22.267 0 41.733-.4 43.2-.933 1.6-.534 3.467-2.667 4.133-4.8 1.467-4.534 1.334-251.334-.266-269.734-.534-6.933-1.6-14.133-2.4-16-.667-1.866-1.734-5.733-2.267-8.666-1.2-6.134-8.267-25.867-11.6-32.667-3.6-6.933-11.467-20.533-12.267-21.333-.4-.4-1.733-2.4-2.8-4.534-6.4-12.4-36.8-42.133-55.333-53.866-7.067-4.534-32.934-17.6-34.8-17.6-.934 0-3.334-.934-5.334-2-2.133-1.067-4.933-2-6.133-2-1.333 0-4.267-.8-6.667-1.867-11.866-5.067-53.866-8.533-75.066-6.267zm1671.337 5.2c-7.74.667-24.54 4.4-25.87 5.734-.8.666-2.13 1.2-3.2 1.2-.93 0-4.4 1.2-7.73 2.8-19.07 8.666-44 32-52.4 49.2-1.6 3.333-3.47 6.933-4 8-6 10.933-11.47 40.4-10.14 54.666.8 9.334 4.54 26.534 6 28.667.54.667 1.34 2.933 1.87 5.067 1.2 4.8 7.73 15.6 15.6 25.6 6.13 7.733 20.13 22 21.6 22 .4 0 3.33 1.733 6.53 3.733 3.2 2.133 10.54 6.133 16.4 8.933 5.87 2.667 11.6 5.467 12.67 6.134s2.93 1.6 4 2c1.07.266 5.6 2.266 10 4.4L2259.74 362l20 9.333 26 12 25.33 11.734 18.27 8.4 10 4.533a35.53 35.53 0 0 1 5.06 2.533l14.94 7.334c15.6 7.466 18.4 11.066 18.4 22.8 0 9.2-3.07 14.933-10.4 19.6l-4.94 3.066-112.66.4-114 1.734c-.8.8-1.47 17.333-1.74 42.4-.26 34 0 41.333 1.47 42.666 2.93 2.4 239.47 1.334 247.6-1.066 17.2-5.334 41.87-20.534 52.67-32.4 20.53-22.8 30.66-49.334 30.66-80.4 0-14.4-.66-18-6.26-35.334-4.27-12.933-17.34-32.8-28.4-43.066-6.8-6.267-22.27-16.267-31.34-20.4-4.8-2-8.8-4.267-9.06-4.8-.27-.534-1.07-1.067-1.74-1.067-1.46 0-8.66-3.067-23.86-10.267-5.47-2.666-13.6-6.4-18-8.4l-18-8.4-37.34-17.2-39.46-18.533c-7.47-3.6-14.54-6.533-15.74-6.533s-2.13-.534-2.13-1.067c0-.667-4.4-2.933-9.6-5.067-6.8-2.666-11.73-5.866-16.27-10.266l-6.4-6.4.54-8.534c.4-7.066 1.2-9.466 4.53-13.466 8-10 3.47-9.6 127.33-9.734l110.27-.133.53-4.4c.27-2.267.4-21.467.4-42.533 0-27.2-.4-38.667-1.6-39.867-1.06-1.067-30.4-1.467-112-1.733l-115.06.266zM89.07 123.6c-10.133 2.4-23.733 8-30.667 12.4-2.133 1.467-5.2 3.2-6.667 3.867-6.267 2.8-32.667 29.2-32.667 32.533 0 .667-1.733 3.733-3.867 6.933s-4.267 7.2-4.8 8.934c-.533 1.6-1.467 3.6-2 4.4-.533.666-1.467 3.466-2 6S4.937 204 4.27 204.8c-1.2 1.467-4 23.867-4.267 32.533-.133 13.867 3.733 32.134 9.6 44 8 16.4 23.333 34.534 36.8 43.734 2.933 2 5.6 3.866 6 4.266s5.467 2.934 11.333 5.867l12.667 6.267c1.067.666 2.933 1.6 4 2 1.067.533 6.267 2.8 11.333 5.2l17.333 8 18.667 8.666 20 9.334 30 13.733 35.333 16.267 21.467 10.133c7.333 3.6 14 6.533 14.8 6.533 2.666 0 12.266 9.467 12.933 13.067 1.867 8.533 1.867 9.867 0 15.2-2 5.867-6 10.8-10.533 13.467-2 1.2-33.734 1.733-116.4 2.266-99.067.534-113.867.934-114.934 2.667-.8 1.2-1.2 18.667-.933 43.333l.267 41.2 3.333.934c1.867.533 54 .933 116 1.066 123.333.134 122.267.267 141.867-7.733 32.8-13.2 57.333-41.6 68.133-78.933 2.133-7.734 3.067-42.134 1.2-50-5.067-21.734-15.6-40.267-32.4-56.534-7.6-7.466-26.267-20-31.067-20.933-2-.4-4.4-1.6-5.2-2.533-.8-1.067-2-1.867-2.666-1.867s-5.6-2-10.8-4.533L245.47 320.8l-13.733-6.133c-.267 0-5.867-2.4-12.267-5.467l-23.067-10.8-19.333-8.933a668.27 668.27 0 0 0-16.667-7.734l-18.666-8.8-20.667-9.6-16.133-7.466c-18.4-8.667-22-27.6-7.467-39.6l6-4.934 111.067-.133c91.066 0 111.733-.4 114.533-1.867l3.333-1.733.134-34.8c.133-45.733.133-46.533-2.534-48.533-1.6-1.2-27.6-1.6-120.133-1.467l-120.8.8zm1004.4 538.133c-4.8 4.934-27.07 32.267-33.73 41.467-2.14 2.933-6.27 7.867-9.07 10.933-6.93 7.6-11.6 14-11.6 16.134 0 2.4 4 5.733 20.4 16.8 23.87 15.866 26.93 17.866 41.87 25.733 18.66 9.867 16.8 8.933 41.73 20.267 3.33 1.466 9.6 4 14 5.466s11.33 4 15.33 5.6c4 1.467 9.47 3.2 12 3.867 2.54.533 6.14 1.6 8 2.267 5.47 2.266 26.27 7.2 44 10.4 39.6 7.2 79.87 9.866 110.67 7.466 32-2.533 46.8-4.133 48.13-4.933.67-.4 6.54-1.6 12.94-2.667s15.2-2.8 19.6-3.866l16.13-3.867c4.4-.933 9.33-2.4 10.93-3.333 1.47-.8 3.74-1.467 4.94-1.467s4.13-.8 6.4-1.733c2.4-1.067 7.6-2.934 11.6-4.134 12.26-4 31.73-12.266 52-22 8.4-4.133 10.8-5.333 15.73-8.133 1.2-.8 3.47-2 4.93-2.667 1.47-.8 4.27-2.4 6.27-3.733l13.33-8.133c5.34-3.334 12.27-7.734 15.34-10l12.93-9.334c5.33-3.733 7.47-6.133 7.47-8.266 0-1.6-.54-3.2-1.07-3.467s-4.53-4.933-8.93-10.4l-9.6-11.733c-.94-.934-4.54-5.467-8-10l-10.27-13.067c-2.27-2.667-5.87-7.067-8.13-9.867-2.14-2.8-5.6-6.933-7.47-9.2l-3.47-3.866-4.53 3.066c-2.53 1.734-4.8 3.6-5.2 4-1.33 1.334-9.2 6.667-10.13 6.667-.4 0-3.07 1.733-5.74 3.733-6.26 4.934-20.66 13.6-22.53 13.6-.8 0-4.13 1.734-7.33 4-3.34 2.134-6.4 4-6.8 4s-5.07 2-10.4 4.4c-5.34 2.4-12.4 5.467-15.74 6.8-3.33 1.334-7.73 3.2-9.73 4.267-2.13 1.067-5.2 1.867-6.8 1.867s-3.47.533-4.27 1.066c-3.46 3.2-38.53 12-59.2 15.067l-19.33 2.8c-14.13 2.133-62.27 2-77.33-.133-20.4-2.934-27.6-4-37.34-6.134-17.33-3.6-25.46-5.6-28.4-7.2-1.46-.8-4-1.466-5.46-1.466-1.47 0-4.67-.8-7.07-1.867s-7.07-2.933-10.4-4.133-8.4-3.467-11.47-4.8c-3.06-1.334-6.13-2.534-6.93-2.534s-3.07-.933-5.2-2c-2-.933-6.4-3.2-9.73-4.666-20.54-9.6-46.27-25.334-60.67-37.067-3.6-2.933-4.8-2.933-7.6.133z"/></svg>