<svg xmlns="http://www.w3.org/2000/svg" width="319" height="189" fill="none" xmlns:v="https://vecta.io/nano"><path d="M224.029 89.74c-.208.304-.24 4.208-.224 32.862l.304 32.846c.272.304.48.32 5.2.32 4.544 0 4.928-.016 5.168-.288.24-.256.272-1.104.272-8.24 0-4.576.08-8.127.16-8.351.176-.48.672-.528 1.088-.112.144.16.768.896 1.375 1.632l1.392 1.679c.16.176.672.784 1.136 1.36l.928 1.12c.064.048.384.448.736.88.336.448.912 1.12 1.248 1.488.352.384.816.944 1.04 1.264.24.32.592.768.8.992a36.97 36.97 0 0 1 1.28 1.536l1.248 1.52c.192.224.752.896 1.264 1.52a50.98 50.98 0 0 0 1.376 1.568l.448.432 6.607-.032 6.592-.048.048-.368c.048-.352-.416-1.184-1.056-1.888-.16-.16-.496-.592-.752-.944l-.56-.72c-.048-.048-.368-.448-.72-.88-.336-.448-.672-.832-.72-.88s-.304-.368-.576-.72c-.256-.352-.624-.816-.8-1.04-.336-.384-.976-1.2-2.944-3.696-.512-.672-1.04-1.328-1.152-1.44-.288-.304-2.719-3.343-3.007-3.759-.24-.336-1.792-2.288-2.8-3.504-3.104-3.76-4.448-5.584-4.448-6 0-.288.848-1.472 2.864-4l4.528-5.679 2.175-2.72 3.76-4.704 2.8-3.52c3.712-4.623 3.76-4.671 3.216-5.119-.24-.192-12.159-.288-12.911-.096-.272.064-.848.624-1.6 1.568-.64.816-1.296 1.6-1.456 1.76s-.288.335-.288.399-.16.288-.368.512a212.29 212.29 0 0 0-2.336 2.88l-2.352 2.928c-.208.256-1.104 1.408-2.016 2.56l-1.728 2.192c-.064.048-.624.752-1.263 1.552-.976 1.248-1.232 1.488-1.616 1.488-.352 0-.464-.08-.528-.464-.048-.24-.096-7.408-.112-15.919l-.208-15.791c-.176-.288-.4-.304-5.232-.304-5.024.016-5.04.016-5.28.368zm-29.278 11.679l-2.16.256-2.88.656c-.176.08-.576.192-.88.256-.304.048-.704.208-.88.32-.176.128-.416.224-.544.224s-.624.192-1.12.416c-4.207 1.936-7.663 4.559-10.335 7.903-1.088 1.36-2.176 2.944-2.624 3.84-.192.4-.512 1.008-.704 1.36-.416.768-.944 2.08-1.328 3.28-.144.48-.368 1.136-.464 1.44-.352.976-.56 2.24-.816 4.719-.32 3.392-.032 7.024.816 9.84.128.4.272.96.32 1.232.064.288.176.56.256.608.08.064.144.208.144.352 0 .544 2.416 5.407 2.88 5.807.048.048.448.576.88 1.2.752 1.072 3.792 4.24 4.8 4.992 1.616 1.216 2 1.488 2.144 1.488.096 0 .176.064.176.144s.16.208.368.272c.192.048.464.192.592.32.304.256 3.439 1.824 3.663 1.824.096 0 .4.096.688.224 1.472.608 2.88.976 5.056 1.296.816.128 1.552.272 1.632.32.32.192 5.056.08 6.687-.16 6-.912 11.392-3.584 15.44-7.696.767-.768 1.391-1.504 1.391-1.616 0-.128-.096-.416-.224-.656-.288-.528-6.159-6.383-6.687-6.655-.512-.272-1.072.016-2.368 1.248-1.472 1.407-2.592 2.191-4.24 2.975-2.192 1.04-2.352 1.088-4.399 1.472-1.072.192-5.808.08-6.48-.16-.256-.096-1.056-.368-1.76-.608-2.384-.816-4.256-1.984-6.08-3.823-1.136-1.136-2.959-3.536-2.959-3.904 0-.064-.208-.512-.448-.992-.96-1.824-1.472-4.192-1.472-6.72 0-3.968 1.504-7.983 4.031-10.799 1.008-1.12 2.688-2.56 3.728-3.216 1.008-.624 4.144-1.968 4.592-1.968.144 0 .72-.112 1.28-.256 1.776-.464 7.231-.048 7.887.592.08.08.24.144.368.144.24 0 1.408.496 2.352.992 1.216.656 2.416 1.552 3.792 2.848 1.328 1.232 1.712 1.44 2.192 1.136.128-.08 1.728-1.648 3.568-3.472 2.4-2.4 3.327-3.44 3.327-3.712 0-.704-2.927-3.455-5.567-5.199-1.44-.944-4.16-2.352-5.472-2.816-3.904-1.392-8.111-1.936-12.159-1.568zm-60.717.096c-1.92.208-5.791 1.248-6.991 1.872-.224.128-.528.224-.656.224s-.32.112-.432.24-.288.24-.4.24c-.176 0-1.136.528-2.72 1.488-1.744 1.056-5.152 4.063-6.16 5.423-.208.288-.56.72-.784.96-.208.24-.464.576-.56.752s-.432.704-.752 1.168c-.64.928-2.031 3.504-2.223 4.128l-.48 1.28c-.544 1.376-.944 2.992-1.44 5.759-.208 1.12-.192 5.824 0 7.2.32 2.208.896 4.544 1.264 5.232.096.192.176.464.176.592 0 .24.704 1.92 1.232 2.895l1.759 3.024c2.048 3.12 5.216 6.128 8.608 8.208 1.056.64 4.944 2.448 5.28 2.448.128 0 .464.096.752.224 2.495 1.056 8.991 1.504 12.607.864 2.976-.512 5.631-1.36 6.127-1.92.24-.288.272-.832.272-6.048 0-5.072-.032-5.744-.256-5.824-.4-.16-.832-.112-1.056.112-.112.112-.592.432-1.039.72-1.648 1.008-3.504 1.696-5.648 2.112-.944.192-5.024.192-5.84 0-1.968-.432-2.544-.624-3.92-1.248-.639-.288-2.431-1.328-2.559-1.472-.048-.048-.432-.352-.88-.672-1.088-.8-2.96-2.847-3.328-3.647a11.83 11.83 0 0 0-.416-.72c-.288-.432-.496-.848-1.216-2.4-.128-.272-.272-.704-.336-.96-.064-.272-.16-.56-.224-.64-.24-.304-.64-3.12-.64-4.448 0-2 .576-4.895 1.216-6.063.128-.224.224-.528.224-.656s.112-.32.24-.432.24-.288.24-.4c0-.208.768-1.472 1.472-2.4 1.232-1.648 3.568-3.616 5.488-4.656.879-.464 2.863-1.184 3.679-1.36.352-.064.912-.192 1.232-.272.816-.208 4.016-.24 5.056-.032l1.6.304c2.352.48 5.263 2.112 7.327 4.128 1.488 1.44 1.776 1.776 2.672 3.168s2.192 4.703 2.192 5.631c0 .208.08.688.16 1.056.096.416.176 5.824.208 14.383l.24 13.92c.16.16 1.328.208 5.04.24 2.656.016 4.991-.032 5.199-.112l.352-.144v-14.527l-.16-15.408c-.544-3.023-1.104-5.151-1.744-6.639-.927-2.128-2.671-5.216-3.519-6.176-.096-.128-.368-.464-.576-.768-1.44-2.016-5.632-5.551-8-6.751-.352-.176-.752-.384-.88-.464-.48-.272-2.336-1.104-2.72-1.2-.224-.064-.464-.176-.56-.24-.08-.064-.447-.176-.799-.24s-.72-.176-.8-.24c-.096-.08-.56-.208-1.04-.304a18.62 18.62 0 0 1-1.52-.336c-.784-.208-7.088-.336-8.64-.176zm-55.037 1.6c-1.264.144-2.8.448-3.52.688l-1.04.288c-.96.208-3.648 1.392-4.72 2.095l-.72.416c-1.488.752-5.136 4.112-6.24 5.728l-.992 1.472c-.624.912-1.824 3.376-2.192 4.496-1.344 4.111-1.296 3.44-1.296 21.406v15.839l.368.304c.336.304.624.32 5.232.336 4.864.016 4.864.016 5.232-.352l.368-.368v-15.439c0-17.183-.032-16.527 1.104-19.054 2.144-4.736 7.776-7.776 12.687-6.88 2.496.448 3.888 1.024 5.648 2.32 2.592 1.904 4.208 4.704 4.704 8.127.112.752.176 6.32.176 16.079l.224 15.247c.224.288.48.304 5.088.32 2.671 0 5.007-.048 5.183-.112.192-.064.416-.32.496-.576.176-.543.16-30.158-.032-32.366-.064-.832-.192-1.695-.288-1.919a8 8 0 0 1-.272-1.04c-.144-.736-.992-3.104-1.392-3.92-.432-.832-1.376-2.464-1.472-2.56-.048-.048-.208-.288-.336-.544-.767-1.488-4.415-5.056-6.639-6.464-.848-.544-3.952-2.111-4.176-2.111-.112 0-.4-.112-.64-.24-.256-.128-.592-.24-.736-.24-.16 0-.512-.096-.8-.224-1.424-.608-6.464-1.024-9.007-.752zm200.549.624c-.928.08-2.944.528-3.104.688-.096.08-.256.144-.384.144-.112 0-.528.144-.928.335-2.288 1.04-5.28 3.84-6.288 5.904l-.48.96c-.72 1.312-1.376 4.848-1.216 6.56.096 1.12.544 3.183.72 3.439.064.08.16.352.224.608.144.576.928 1.872 1.872 3.072.736.928 2.416 2.64 2.592 2.64.048 0 .4.208.784.448.384.256 1.264.736 1.968 1.072l1.52.736a3.36 3.36 0 0 0 .48.24c.128.032.672.272 1.2.528l3.679 1.696 2.4 1.12 3.12 1.44 3.04 1.408 2.192 1.007 1.2.544c.208.08.48.224.608.304l1.792.88c1.871.896 2.207 1.328 2.207 2.736 0 1.104-.368 1.792-1.247 2.352l-.592.368-13.52.048-13.679.208c-.096.096-.176 2.08-.208 5.088l.176 5.119c.352.288 28.734.16 29.71-.128 2.064-.64 5.024-2.463 6.32-3.887 2.464-2.736 3.68-5.92 3.68-9.648 0-1.728-.08-2.16-.752-4.239-.512-1.552-2.08-3.936-3.408-5.168-.816-.752-2.672-1.952-3.76-2.448-.576-.24-1.056-.512-1.088-.576s-.128-.128-.208-.128c-.176 0-1.04-.368-2.863-1.232-.656-.32-1.632-.768-2.16-1.008l-2.16-1.008-4.48-2.064-4.736-2.224c-.896-.432-1.744-.783-1.888-.783s-.256-.064-.256-.128c0-.08-.527-.352-1.151-.608-.816-.32-1.408-.704-1.952-1.232l-.768-.768.064-1.024c.048-.848.144-1.136.544-1.616.96-1.2.416-1.152 15.279-1.168l13.231-.016.064-.528c.032-.272.048-2.576.048-5.104 0-3.264-.048-4.639-.192-4.783-.128-.128-3.648-.176-13.439-.208l-13.807.032zm-257.825.464c-1.216.288-2.848.96-3.68 1.488-.256.176-.624.384-.8.464-.752.336-3.92 3.503-3.92 3.903 0 .08-.208.448-.464.832s-.512.864-.576 1.072c-.064.192-.176.432-.24.528-.064.08-.176.416-.24.72s-.176.64-.256.736c-.144.176-.48 2.864-.512 3.904-.016 1.664.448 3.856 1.152 5.28.96 1.968 2.8 4.143 4.416 5.247l.72.512c.048.048.656.352 1.36.704l1.52.752a3.36 3.36 0 0 0 .48.24l1.36.624 2.08.96 2.24 1.04 2.4 1.12 3.6 1.648 4.24 1.952 2.576 1.216 1.776.784c.32 0 1.472 1.136 1.552 1.568.224 1.023.224 1.183 0 1.823-.24.704-.72 1.296-1.264 1.616-.24.144-4.048.208-13.967.272-11.887.064-13.663.112-13.791.32-.096.144-.144 2.24-.112 5.2l.032 4.944.4.112c.224.064 6.48.112 13.919.128 14.799.016 14.671.032 17.023-.928 3.936-1.584 6.88-4.992 8.176-9.472.256-.928.368-5.055.144-5.999-.608-2.608-1.872-4.832-3.888-6.784-.912-.896-3.152-2.4-3.728-2.512-.24-.048-.528-.192-.624-.304-.096-.128-.24-.224-.32-.224s-.672-.24-1.296-.544l-2.72-1.28-1.648-.736c-.032 0-.704-.288-1.472-.656l-2.768-1.295-2.32-1.072a80.18 80.18 0 0 0-2-.928l-2.24-1.056-2.48-1.152-1.936-.896c-2.208-1.04-2.64-3.312-.896-4.752l.72-.592 13.327-.016c10.927 0 13.407-.048 13.743-.224l.4-.208.016-4.176c.016-5.487.016-5.583-.304-5.823-.192-.144-3.312-.192-14.415-.176l-14.495.096zm120.521 64.572c-.576.592-3.248 3.872-4.048 4.975-.256.352-.752.944-1.088 1.312-.832.912-1.392 1.68-1.392 1.936 0 .288.48.688 2.448 2.016l5.024 3.088 5.008 2.432 1.679.656 1.84.672 1.44.464a8.9 8.9 0 0 1 .96.272c.656.272 3.152.864 5.28 1.248 4.752.864 9.583 1.184 13.279.896 3.84-.304 5.616-.496 5.776-.592.08-.048.784-.192 1.552-.32s1.824-.336 2.352-.464l1.935-.464c.528-.112 1.12-.288 1.312-.4.176-.096.448-.176.592-.176s.496-.096.768-.208a14.62 14.62 0 0 1 1.392-.496c1.472-.48 3.808-1.472 6.24-2.64 1.008-.496 1.296-.64 1.888-.976.144-.096.416-.24.592-.32a11.43 11.43 0 0 0 .752-.448l1.599-.976c.64-.4 1.472-.928 1.84-1.2l1.552-1.12c.64-.448.896-.736.896-.992 0-.192-.064-.384-.128-.416s-.544-.592-1.072-1.248l-1.152-1.408c-.112-.112-.544-.656-.96-1.199l-1.231-1.568c-.272-.32-.704-.848-.976-1.184-.256-.336-.672-.832-.896-1.104l-.416-.464-.544.368c-.304.208-.576.432-.624.48-.16.16-1.104.8-1.216.8-.048 0-.368.208-.688.448-.752.592-2.48 1.632-2.704 1.632-.096 0-.496.208-.88.48-.4.256-.768.48-.816.48s-.608.239-1.248.527a62.68 62.68 0 0 1-1.888.816c-.4.16-.928.384-1.168.512-.256.128-.624.224-.816.224s-.416.064-.512.128c-.416.384-4.623 1.44-7.103 1.808l-2.32.336c-1.696.256-7.472.24-9.279-.016-2.448-.352-3.312-.48-4.48-.736-2.08-.432-3.056-.672-3.408-.864-.176-.096-.48-.176-.656-.176s-.56-.096-.848-.224a22.61 22.61 0 0 0-1.248-.496c-.4-.144-1.008-.416-1.376-.576s-.736-.304-.832-.304-.368-.112-.624-.24c-.24-.112-.768-.384-1.168-.56-2.463-1.151-5.551-3.039-7.279-4.447-.432-.352-.576-.352-.912.016z" fill="#f6f6f6"/><path d="M224.029 56.639c-.208.304-.24 4.208-.224 32.862l.304 32.846c.272.304.48.32 5.2.32 4.544 0 4.928-.016 5.168-.288.24-.256.272-1.104.272-8.239 0-4.576.08-8.128.16-8.352.176-.48.672-.528 1.088-.112.144.16.768.896 1.375 1.632l1.392 1.68c.16.176.672.784 1.136 1.36l.928 1.12c.064.048.384.448.736.88.336.448.912 1.12 1.248 1.488.352.384.816.943 1.04 1.263.24.32.592.768.8.992a36.97 36.97 0 0 1 1.28 1.536l1.248 1.52c.192.224.752.896 1.264 1.52a50.98 50.98 0 0 0 1.376 1.568l.448.432 6.607-.032 6.592-.048.048-.368c.048-.352-.416-1.184-1.056-1.888-.16-.16-.496-.592-.752-.944l-.56-.72c-.048-.048-.368-.448-.72-.88-.336-.448-.672-.832-.72-.88s-.304-.368-.576-.72c-.256-.352-.624-.816-.8-1.04-.336-.384-.976-1.199-2.944-3.695-.512-.672-1.04-1.328-1.152-1.44-.288-.304-2.719-3.344-3.007-3.76-.24-.336-1.792-2.288-2.8-3.504-3.104-3.76-4.448-5.584-4.448-5.999 0-.288.848-1.472 2.864-4l4.528-5.68 2.175-2.72 3.76-4.704 2.8-3.52c3.712-4.624 3.76-4.672 3.216-5.12-.24-.192-12.159-.288-12.911-.096-.272.064-.848.624-1.6 1.568-.64.816-1.296 1.6-1.456 1.76s-.288.336-.288.4-.16.288-.368.512a212.42 212.42 0 0 0-2.336 2.88l-2.352 2.928c-.208.256-1.104 1.408-2.016 2.56l-1.728 2.192c-.064.048-.624.752-1.263 1.552-.976 1.248-1.232 1.488-1.616 1.488-.352 0-.464-.08-.528-.464-.048-.24-.096-7.408-.112-15.919l-.208-15.791c-.176-.288-.4-.304-5.232-.304-5.024.016-5.04.016-5.28.368zm-29.278 11.679l-2.16.256-2.88.656c-.176.08-.576.192-.88.256-.304.048-.704.208-.88.32-.176.128-.416.224-.544.224s-.624.192-1.12.416c-4.207 1.936-7.663 4.56-10.335 7.903-1.088 1.36-2.176 2.944-2.624 3.84-.192.4-.512 1.008-.704 1.36-.416.768-.944 2.08-1.328 3.28-.144.48-.368 1.136-.464 1.44-.352.976-.56 2.24-.816 4.72-.32 3.392-.032 7.023.816 9.839.128.4.272.96.32 1.232.064.288.176.56.256.608.08.064.144.208.144.352 0 .544 2.416 5.408 2.88 5.808.048.048.448.576.88 1.2.752 1.072 3.792 4.239 4.8 4.991 1.616 1.216 2 1.488 2.144 1.488.096 0 .176.064.176.144s.16.208.368.272c.192.048.464.192.592.32.304.256 3.439 1.824 3.663 1.824.096 0 .4.096.688.224 1.472.608 2.88.976 5.056 1.296.816.128 1.552.272 1.632.32.32.192 5.056.08 6.687-.16 6-.912 11.392-3.584 15.44-7.696.767-.768 1.391-1.503 1.391-1.615 0-.128-.096-.416-.224-.656-.288-.528-6.159-6.384-6.687-6.656-.512-.272-1.072.016-2.368 1.248-1.472 1.408-2.592 2.192-4.24 2.976-2.192 1.04-2.352 1.088-4.399 1.472-1.072.192-5.808.08-6.48-.16-.256-.096-1.056-.368-1.76-.608-2.384-.816-4.256-1.984-6.08-3.824-1.136-1.136-2.959-3.536-2.959-3.904 0-.064-.208-.512-.448-.992-.96-1.824-1.472-4.191-1.472-6.719 0-3.968 1.504-7.984 4.031-10.799 1.008-1.12 2.688-2.56 3.728-3.216 1.008-.624 4.144-1.968 4.592-1.968.144 0 .72-.112 1.28-.256 1.776-.464 7.231-.048 7.887.592.08.08.24.144.368.144.24 0 1.408.496 2.352.992 1.216.656 2.416 1.552 3.792 2.848 1.328 1.232 1.712 1.44 2.192 1.136.128-.08 1.728-1.648 3.568-3.472 2.4-2.4 3.327-3.44 3.327-3.712 0-.704-2.927-3.456-5.567-5.2-1.44-.944-4.16-2.352-5.472-2.816-3.904-1.392-8.111-1.936-12.159-1.568zm-60.717.096c-1.92.208-5.791 1.248-6.991 1.872-.224.128-.528.224-.656.224s-.32.112-.432.24-.288.24-.4.24c-.176 0-1.136.528-2.72 1.488-1.744 1.056-5.152 4.064-6.16 5.424-.208.288-.56.72-.784.96-.208.24-.464.576-.56.752a19.05 19.05 0 0 1-.752 1.168c-.64.928-2.031 3.504-2.223 4.128l-.48 1.28c-.544 1.376-.944 2.992-1.44 5.76-.208 1.12-.192 5.824 0 7.2.32 2.208.896 4.544 1.264 5.232.096.192.176.464.176.592 0 .24.704 1.92 1.232 2.896l1.759 3.024c2.048 3.12 5.216 6.127 8.608 8.207 1.056.64 4.944 2.448 5.28 2.448.128 0 .464.096.752.224 2.495 1.056 8.991 1.504 12.607.864 2.976-.512 5.631-1.36 6.127-1.92.24-.288.272-.832.272-6.048 0-5.071-.032-5.743-.256-5.823-.4-.16-.832-.112-1.056.112-.112.112-.592.432-1.039.72-1.648 1.008-3.504 1.696-5.648 2.112-.944.192-5.024.192-5.84 0-1.968-.432-2.544-.624-3.92-1.248-.639-.288-2.431-1.328-2.559-1.472-.048-.048-.432-.352-.88-.672-1.088-.8-2.96-2.848-3.328-3.648a11.83 11.83 0 0 0-.416-.72c-.288-.432-.496-.848-1.216-2.4-.128-.272-.272-.704-.336-.96-.064-.272-.16-.56-.224-.64-.24-.304-.64-3.119-.64-4.447 0-2 .576-4.896 1.216-6.064.128-.224.224-.528.224-.656s.112-.32.24-.432.24-.288.24-.4c0-.208.768-1.472 1.472-2.4 1.232-1.648 3.568-3.616 5.488-4.656.879-.464 2.863-1.184 3.679-1.36.352-.064.912-.192 1.232-.272.816-.208 4.016-.24 5.056-.032l1.6.304c2.352.48 5.263 2.112 7.327 4.128 1.488 1.44 1.776 1.776 2.672 3.168s2.192 4.704 2.192 5.632c0 .208.08.688.16 1.056.096.416.176 5.824.208 14.383l.24 13.919c.16.16 1.328.208 5.04.24 2.656.016 4.991-.032 5.199-.112l.352-.144v-14.527l-.16-15.407c-.544-3.024-1.104-5.152-1.744-6.64-.927-2.128-2.671-5.216-3.519-6.176-.096-.128-.368-.464-.576-.768-1.44-2.016-5.632-5.552-8-6.752-.352-.176-.752-.384-.88-.464-.48-.272-2.336-1.104-2.72-1.2-.224-.064-.464-.176-.56-.24-.08-.064-.447-.176-.799-.24s-.72-.176-.8-.24c-.096-.08-.56-.208-1.04-.304a18.62 18.62 0 0 1-1.52-.336c-.784-.208-7.088-.336-8.64-.176zm-55.037 1.6c-1.264.144-2.8.448-3.52.688l-1.04.288c-.96.208-3.648 1.392-4.72 2.096l-.72.416c-1.488.752-5.136 4.112-6.24 5.728l-.992 1.472c-.624.912-1.824 3.376-2.192 4.496-1.344 4.112-1.296 3.44-1.296 21.407v15.839l.368.304c.336.304.624.32 5.232.336 4.864.016 4.864.016 5.232-.352l.368-.368v-15.439c0-17.183-.032-16.527 1.104-19.055 2.144-4.736 7.776-7.775 12.687-6.88 2.496.448 3.888 1.024 5.648 2.32 2.592 1.904 4.208 4.704 4.704 8.128.112.752.176 6.32.176 16.079l.224 15.247c.224.288.48.304 5.088.32 2.671 0 5.007-.048 5.183-.112.192-.064.416-.32.496-.576.176-.544.16-30.158-.032-32.366-.064-.832-.192-1.696-.288-1.92a8 8 0 0 1-.272-1.04c-.144-.736-.992-3.104-1.392-3.92-.432-.832-1.376-2.464-1.472-2.56-.048-.048-.208-.288-.336-.544-.767-1.488-4.415-5.056-6.639-6.464-.848-.544-3.952-2.112-4.176-2.112-.112 0-.4-.112-.64-.24-.256-.128-.592-.24-.736-.24-.16 0-.512-.096-.8-.224-1.424-.608-6.464-1.024-9.007-.752zm200.549.624c-.928.08-2.944.528-3.104.688-.096.08-.256.144-.384.144-.112 0-.528.144-.928.336-2.288 1.04-5.28 3.84-6.288 5.904l-.48.96c-.72 1.312-1.376 4.848-1.216 6.56.096 1.12.544 3.184.72 3.44.064.08.16.352.224.608.144.576.928 1.872 1.872 3.072.736.928 2.416 2.64 2.592 2.64.048 0 .4.208.784.448.384.256 1.264.736 1.968 1.072l1.52.736a3.36 3.36 0 0 0 .48.24c.128.032.672.272 1.2.528l3.679 1.696 2.4 1.12 3.12 1.44 3.04 1.408 2.192 1.008 1.2.544c.208.08.48.224.608.304l1.792.88c1.871.896 2.207 1.328 2.207 2.736 0 1.104-.368 1.792-1.247 2.351l-.592.368-13.52.048-13.679.208c-.096.096-.176 2.08-.208 5.088l.176 5.12c.352.288 28.734.16 29.71-.128 2.064-.64 5.024-2.464 6.32-3.888 2.464-2.736 3.68-5.92 3.68-9.647 0-1.728-.08-2.16-.752-4.24-.512-1.552-2.08-3.936-3.408-5.168-.816-.752-2.672-1.952-3.76-2.448-.576-.24-1.056-.512-1.088-.576s-.128-.128-.208-.128c-.176 0-1.04-.368-2.863-1.232-.656-.32-1.632-.768-2.16-1.008l-2.16-1.008-4.48-2.064-4.736-2.224c-.896-.432-1.744-.784-1.888-.784s-.256-.064-.256-.128c0-.08-.527-.352-1.151-.608-.816-.32-1.408-.704-1.952-1.232l-.768-.768.064-1.024c.048-.848.144-1.136.544-1.616.96-1.2.416-1.152 15.279-1.168l13.231-.016.064-.528c.032-.272.048-2.576.048-5.104 0-3.264-.048-4.64-.192-4.784-.128-.128-3.648-.176-13.439-.208l-13.807.032zm-257.825.464c-1.216.288-2.848.96-3.68 1.488-.256.176-.624.384-.8.464-.752.336-3.92 3.504-3.92 3.904 0 .08-.208.448-.464.832s-.512.864-.576 1.072c-.064.192-.176.432-.24.528-.064.08-.176.416-.24.72s-.176.64-.256.736c-.144.176-.48 2.864-.512 3.904-.016 1.664.448 3.856 1.152 5.28.96 1.968 2.8 4.144 4.416 5.248l.72.512c.048.048.656.352 1.36.704l1.52.752a3.36 3.36 0 0 0 .48.24l1.36.624 2.08.96 2.24 1.04 2.4 1.12 3.6 1.648 4.24 1.952 2.576 1.216 1.776.784c.32 0 1.472 1.136 1.552 1.568.224 1.024.224 1.184 0 1.824-.24.704-.72 1.296-1.264 1.616-.24.144-4.048.208-13.967.272-11.887.064-13.663.112-13.791.32-.096.144-.144 2.24-.112 5.199l.032 4.944.4.112c.224.064 6.48.112 13.919.128 14.799.016 14.671.032 17.023-.928 3.936-1.584 6.88-4.992 8.176-9.471.256-.928.368-5.056.144-6-.608-2.608-1.872-4.832-3.888-6.784-.912-.896-3.152-2.4-3.728-2.512-.24-.048-.528-.192-.624-.304-.096-.128-.24-.224-.32-.224s-.672-.24-1.296-.544l-2.72-1.28-1.648-.736c-.032 0-.704-.288-1.472-.656L34.6 92.077l-2.32-1.072a80.19 80.19 0 0 0-2-.928l-2.24-1.056-2.48-1.152-1.936-.896c-2.208-1.04-2.64-3.312-.896-4.752l.72-.592 13.327-.016c10.927 0 13.407-.048 13.743-.224l.4-.208.016-4.176c.016-5.488.016-5.584-.304-5.824-.192-.144-3.312-.192-14.415-.176l-14.495.096zm120.521 64.572c-.576.592-3.248 3.872-4.048 4.976-.256.352-.752.944-1.088 1.312-.832.912-1.392 1.68-1.392 1.936 0 .288.48.688 2.448 2.016l5.024 3.087 5.008 2.432 1.679.656 1.84.672 1.44.464a8.9 8.9 0 0 1 .96.272c.656.272 3.152.864 5.28 1.248 4.752.864 9.583 1.184 13.279.896 3.84-.304 5.616-.496 5.776-.592.08-.048.784-.192 1.552-.32s1.824-.336 2.352-.464l1.935-.464c.528-.112 1.12-.288 1.312-.4.176-.096.448-.176.592-.176s.496-.096.768-.208a14.62 14.62 0 0 1 1.392-.496c1.472-.48 3.808-1.472 6.24-2.64 1.008-.496 1.296-.64 1.888-.976.144-.096.416-.24.592-.32a11.43 11.43 0 0 0 .752-.448l1.599-.976c.64-.399 1.472-.927 1.84-1.199l1.552-1.12c.64-.448.896-.736.896-.992 0-.192-.064-.384-.128-.416s-.544-.592-1.072-1.248l-1.152-1.408c-.112-.112-.544-.656-.96-1.2l-1.231-1.568c-.272-.32-.704-.848-.976-1.184-.256-.336-.672-.832-.896-1.104l-.416-.464-.544.368c-.304.208-.576.432-.624.48-.16.16-1.104.8-1.216.8-.048 0-.368.208-.688.448-.752.592-2.48 1.632-2.704 1.632-.096 0-.496.208-.88.48-.4.256-.768.48-.816.48s-.608.24-1.248.528a62.68 62.68 0 0 1-1.888.816c-.4.16-.928.384-1.168.512-.256.128-.624.224-.816.224s-.416.064-.512.128c-.416.384-4.623 1.44-7.103 1.808l-2.32.336c-1.696.256-7.472.24-9.279-.016-2.448-.352-3.312-.48-4.48-.736-2.08-.432-3.056-.672-3.408-.864-.176-.096-.48-.176-.656-.176s-.56-.096-.848-.224a22.61 22.61 0 0 0-1.248-.496c-.4-.144-1.008-.416-1.376-.576s-.736-.304-.832-.304-.368-.112-.624-.24c-.24-.112-.768-.384-1.168-.56-2.463-1.152-5.551-3.04-7.279-4.448-.432-.352-.576-.352-.912.016z" fill="#e6e6e6"/><path d="M49.152.316c-.394.445-.445 1.114-.086 1.199.188.034.394-.137.565-.463.137-.291.325-.531.394-.531s.377.24.702.514c.308.291.668.531.771.531.822.086 1.473-.411 1.473-1.148 0-.565-.343-.514-.874.12l-.445.548-.582-.411c-.326-.223-.6-.463-.634-.548-.12-.24-1.011-.12-1.285.188zM3.033 2.235c-.154.257.069.514.428.514a.61.61 0 0 1 .497.308c.223.411.24 7.23.034 7.795-.103.257-.326.463-.565.497-.223.034-.394.12-.394.223s1.216.188 3.221.223l3.221.034-.051-.977c-.034-.754-.12-.994-.308-.994-.137 0-.274.171-.308.36-.12.805-.582.977-2.176.839-.805-.069-1.456-.171-1.473-.223-.017-.223-.017-2.022 0-2.656l.017-.634h1.525c1.559 0 1.816-.086 1.628-.582-.086-.223-.394-.274-1.542-.274-1.079 0-1.473-.069-1.542-.24-.137-.377-.171-2.81-.034-3.187.12-.308.274-.343 1.576-.343 1.508 0 1.645.069 1.645.891 0 .24.103.326.394.274.308-.034.394-.171.428-.822.086-1.148-.069-1.199-3.324-1.199-1.679 0-2.827.069-2.895.171zm9.972.068c-.839.308-1.096.548-1.508 1.319-.411.822-.411 1.182.017 1.902.308.548 1.199 1.336 1.491 1.336.069.017.445.154.822.343s.805.326.959.343c.171 0 .531.274.839.634.48.531.531.72.463 1.302-.12.822-.428 1.165-1.285 1.405-.685.206-1.97.051-2.364-.274-.137-.103-.308-.445-.377-.737-.103-.36-.257-.548-.514-.582-.325-.051-.377.017-.377.617 0 2.09 4.095 2.673 5.448.754 1.182-1.662.24-3.324-2.467-4.334-1.131-.428-1.953-1.148-1.953-1.713 0-.206.154-.617.343-.925.257-.428.497-.582 1.028-.668 1.251-.206 2.33.206 2.484.942.137.617.548.651.702.051.36-1.388-1.833-2.399-3.752-1.713zm5.738-.102c-.154.103-.206.445-.171 1.079.034.72.12.942.36.977.206.051.291-.051.291-.36 0-.891.12-.977 1.371-.977.651 0 1.233.086 1.285.188.154.223.154 7.624 0 7.864-.051.086-.24.171-.411.171-.36 0-.754.394-.582.565.051.069.84.12 1.713.12 1.456 0 1.61-.034 1.559-.308-.034-.154-.223-.308-.445-.343-.206-.034-.463-.206-.548-.394-.24-.445-.206-7.35.034-7.641s1.919-.291 2.159-.017c.086.12.206.411.24.651.034.291.154.428.394.428.308 0 .343-.12.343-1.028V2.149l-3.683-.034c-2.022-.034-3.786.017-3.906.086zm11.787.205c-.189.188-.343.514-.343.737s-.069.463-.154.548c-.103.103-.36.754-.6 1.456l-2.039 5.619c-.086.103-.36.308-.617.428-.805.377-.48.548 1.148.6 1.336.034 1.576 0 1.576-.223 0-.137-.188-.343-.428-.428-.514-.188-.531-.497-.103-1.628l.326-.857 1.61-.051c1.799-.051 1.799-.051 2.261 1.148.325.839.24 1.388-.24 1.388-.308 0-.583.394-.394.582.154.154 2.93.12 3.032-.034.137-.223-.154-.565-.514-.617-.428-.069-.754-.737-1.61-3.358l-.805-2.399c-.069-.137-.308-.857-.565-1.61-.583-1.679-.908-1.936-1.542-1.302zm1.028 2.775l.548 1.61c.36.788.154.994-1.114 1.011-1.028 0-1.165-.034-1.251-.343-.051-.188.034-.634.188-.977.137-.36.257-.754.257-.874 0-.411.702-1.85.84-1.747.086.034.325.634.531 1.319zm8.103-2.792a4.99 4.99 0 0 0-3.221 3.512c-.308 1.096-.291 1.114.103 2.364.325 1.028.565 1.405 1.319 2.141.497.497.977.908 1.079.908s.548.171 1.028.36c.839.36.839.377.737 1.028-.103.617-.069.668.377.857l.497.188-.6.189c-.771.257-.702.531.154.6.565.051.737-.017.959-.377.308-.463.154-1.011-.343-1.199-.343-.12-.274-.788.086-.959.137-.069.702-.257 1.233-.411 1.199-.343 1.902-1.079 1.816-1.885-.069-.737-.497-.685-.857.103-.36.754-.428.805-1.662 1.096a3.5 3.5 0 0 1-1.97 0c-3.564-.839-4.3-5.568-1.148-7.418.651-.377.994-.463 2.107-.463 1.525-.017 2.159.308 2.398 1.234.154.582.583.737.771.274.051-.137.017-.565-.103-.925-.154-.531-.343-.72-1.011-1.028-1.131-.531-2.621-.617-3.752-.188zm10.793-.188c-.103.069-.343.582-.548 1.148l-.891 2.484-.771 2.227-.411 1.114-.411.977c-.154.411-.445.737-.737.857-.531.24-.754.48-.634.685.051.069.788.137 1.628.137 1.353 0 1.542-.034 1.49-.274-.034-.154-.206-.377-.394-.48l-.411-.223c-.034-.034.069-.514.24-1.062.36-1.182.411-1.216 2.433-1.216 1.525 0 1.85.154 2.039.994a3.62 3.62 0 0 0 .223.72c.189.394.017.891-.257.788-.12-.051-.308.069-.411.257-.257.463-.017.531 1.645.463 1.062-.034 1.353-.103 1.353-.308 0-.137-.171-.274-.377-.308-.394-.051-1.079-.857-1.079-1.251 0-.206-.411-1.353-.874-2.467-.086-.188-.308-.839-.514-1.456-.188-.617-.463-1.353-.6-1.662-.137-.291-.24-.617-.24-.72 0-.12-.154-.514-.343-.874-.343-.668-.702-.839-1.148-.548zm1.302 3.563c.343 1.011.497 1.713.394 1.816-.223.223-2.279.326-2.536.12-.206-.171-.206-.188.377-1.953.48-1.456.583-1.628.891-1.628.274 0 .445.343.874 1.645zm7.402-3.392c-1.216.463-2.604 1.867-2.998 2.998-1.028 3.032 1.336 6.459 4.454 6.459 1.97 0 3.752-1.114 4.506-2.844.531-1.182.497-3.067-.051-4.163-1.097-2.124-3.838-3.272-5.911-2.45zm2.381.72c1.045.206 1.885.771 2.501 1.713.634.959.702 2.741.137 3.889-.428.891-.977 1.593-1.233 1.593-.086 0-.257.103-.36.24-.188.24-1.336.514-1.987.48-1.388-.051-2.758-1.028-3.358-2.399-.428-.994-.428-2.501 0-3.392.668-1.371 1.525-1.97 3.289-2.279.069-.017.514.069 1.011.154zm13.587 10.776c-.857.942-.942 1.216-.377 1.216.188 0 .497-.171.668-.394l.308-.377.548.394c.291.223.651.36.788.308.206-.086.154-.223-.206-.788-.36-.531-.565-.685-.942-.685-.274 0-.634.154-.788.325zM5.191 16.283c-1.422.788-2.022 1.593-2.501 3.358-.291.994-.274 1.079.051 2.262.822 2.878 3.82 4.283 6.887 3.221 1.508-.531 1.816-.959 1.765-2.536-.034-.771-.12-1.268-.257-1.371-.308-.188-1.73-.171-2.261.034-.72.274-.377.668.634.72.771.051.908.103 1.045.497.394 1.114-.411 1.919-2.107 2.107-1.628.189-3.238-.291-3.992-1.182-.565-.668-1.045-2.262-.942-3.135.326-2.57 2.484-4.112 5.02-3.581 1.285.274 1.405.343 1.782 1.251.343.788.583.942.754.48.188-.497.103-.994-.257-1.525-.514-.737-1.645-1.114-3.341-1.114-1.182 0-1.473.069-2.279.514zm11.273-.051l-.582 1.508-1.491 4.197c-.086.326-.24.668-.325.754-.086.103-.154.291-.154.445 0 .514-.634 1.456-1.045 1.542-.257.069-.411.223-.411.428 0 .308.12.343 1.456.343s1.456-.034 1.456-.343c0-.223-.137-.36-.377-.394-.48-.069-.497-.36-.086-1.491l.308-.857 1.765-.051c1.936-.051 2.159.034 2.347.874.051.308.171.634.257.737.24.291 0 .754-.394.754-.24 0-.326.103-.274.377.051.377.137.394 1.456.394.771 0 1.439-.051 1.49-.103.206-.188-.103-.668-.411-.668s-1.028-.822-1.028-1.165c0-.137-.685-2.073-1.456-4.146-1.422-3.786-1.336-3.598-1.833-3.598-.377 0-.531.12-.668.463zm.771 1.628c.411.651 1.148 2.981 1.028 3.289-.137.377-2.261.411-2.399.034-.12-.291.805-3.701.994-3.701.069 0 .24.171.377.377zm7.059-1.748c-1.593 1.011-1.491 3.358.188 4.18l1.079.531c.24.12.634.257.874.326.737.171 1.525 1.011 1.525 1.645 0 .994-.411 1.49-1.405 1.713-1.508.343-2.878-.188-2.878-1.114 0-.48-.206-.651-.6-.497-.223.086-.257.24-.171.737.206 1.079.977 1.645 2.518 1.833 2.381.274 4.232-1.73 3.289-3.564-.48-.925-1.045-1.319-2.964-2.039-.308-.12-.805-.394-1.062-.634-.411-.326-.497-.548-.497-1.131 0-.857.343-1.268 1.268-1.473.959-.206 1.936.154 2.296.857.394.754.634.685.634-.206 0-.668-.051-.754-.685-1.114-.891-.497-2.655-.531-3.409-.051zm6.013-.24c-.154.154-.154 1.85-.017 2.005.223.206.754-.24.754-.617 0-.223.086-.48.206-.6.257-.257 1.953-.274 2.124-.017.137.24.086 7.744-.069 7.881-.069.069-.274.154-.463.188a.39.39 0 0 0-.343.394c0 .308.12.343 1.542.343s1.542-.017 1.542-.343c0-.24-.137-.36-.446-.394s-.497-.188-.565-.428c-.051-.206-.103-1.919-.103-3.82 0-2.518.051-3.512.223-3.735.171-.24.428-.274 1.319-.24l1.114.051.086.6c.069.463.171.6.428.6.308 0 .343-.12.343-.942v-.942l-3.786-.051c-2.073-.017-3.82.017-3.889.069zm9.217.068c-.051.103.034.223.206.274.84.257.822.137.874 4.18.034 3.94-.017 4.283-.651 4.283-.325 0-.583.428-.411.702.12.206 2.827.189 3.135 0 .326-.205-.017-.651-.548-.737-.36-.051-.377-.137-.377-1.593v-1.542l.719-.051c.394-.034.874.017 1.045.12s.617.754.994 1.473c1.114 2.159 1.747 2.775 2.467 2.313.206-.137.171-.257-.274-.719-.548-.582-1.953-2.878-1.953-3.204 0-.103.154-.257.343-.36s.583-.497.857-.891c.925-1.268.617-3.324-.6-4.078-.497-.308-.84-.343-3.135-.343-1.542 0-2.621.069-2.69.171zm5.345.959c.428.326.48.48.531 1.508.051 1.062.017 1.165-.463 1.645s-.583.514-1.885.514h-1.388V18.63c0-1.079.051-2.004.137-2.073.069-.068.668-.103 1.353-.068.908.034 1.354.154 1.713.411zm6.802-.804c-.857.394-2.142 1.61-2.553 2.416-.154.325-.325 1.062-.377 1.627-.223 2.638 1.679 4.9 4.454 5.311 1.713.257 3.786-1.028 4.626-2.844.685-1.456.737-2.159.291-3.495-.291-.857-.582-1.336-1.216-1.987-.48-.462-.994-.839-1.165-.839-.154 0-.446-.12-.634-.257-.48-.36-2.553-.325-3.427.069zm2.981.651c.84.154 2.124 1.388 2.484 2.381.617 1.73.137 3.546-1.216 4.574-1.422 1.079-3.101 1.199-4.454.326-1.61-1.011-2.261-3.632-1.353-5.362.48-.891 1.679-1.867 2.313-1.867.257 0 .583-.086.72-.171.137-.103.411-.137.6-.086l.908.206zm5.432-.823c-.103.188.6.72.788.6.274-.171.343.754.291 4.386s-.051 3.683-.428 3.735c-.531.086-.874.531-.548.737.308.189 3.015.206 3.135 0 .188-.291-.103-.702-.497-.702-.223 0-.445-.12-.497-.274-.171-.428-.12-5.962.069-6.236.086-.137.188-.206.223-.171l4.266 6.185c.805 1.199 1.062 1.405 1.508 1.268.326-.103.343-.223.343-4.215 0-4.232.086-4.78.668-4.78.394 0 .617-.497.291-.617-.394-.154-3.101.017-3.067.188.034.189.274.343.788.497.257.086.291.394.291 3.409l-.103 3.426c-.12.12-.548-.462-4.506-6.27l-.908-1.319h-.994c-.565 0-1.045.069-1.114.154zm13.738.206c-.874.463-1.902 1.508-2.364 2.416-.531 1.045-.548 2.844-.017 3.94a4.91 4.91 0 0 0 2.381 2.467c2.501 1.268 5.517-.017 6.527-2.775.463-1.251.463-1.816.086-3.067-.377-1.199-1.508-2.45-2.707-2.981-1.097-.48-2.981-.497-3.906 0zm3.255.617c.702.103 1.85 1.199 2.296 2.159.719 1.593.257 3.666-1.062 4.763-1.405 1.182-3.135 1.268-4.591.257-1.199-.84-1.645-1.765-1.645-3.444 0-1.199.051-1.456.463-2.073.257-.394.702-.891.994-1.096.634-.445 1.987-.839 2.57-.737l.977.171zm5.398-.686c.034.171.223.326.445.36.206.034.446.188.531.343.223.411-.12 6.853-.377 7.401-.12.223-.394.463-.634.514-.274.069-.428.223-.428.428 0 .308.12.343 1.542.343s1.542-.017 1.542-.343c0-.223-.137-.36-.394-.394-.24-.034-.463-.24-.548-.48-.223-.565.137-4.574.463-5.379l.257-.6.188.428.668 1.508.48 1.199c.017.069.154.428.343.805s.325.771.343.874c0 .103.154.326.325.48.411.36.959.137 1.148-.445.069-.223.325-.857.582-1.422.274-.565.668-1.508.874-2.107.771-2.004 1.131-1.079 1.234 3.032l.034 1.97-.428.103c-.274.069-.428.223-.428.428 0 .308.137.343 1.371.394.754.017 1.473-.034 1.593-.103.325-.223.051-.72-.411-.72-.445 0-.497-.12-.668-1.799l-.343-4.968c0-1.302.017-1.353.428-1.456.24-.051.445-.24.48-.394.051-.257-.103-.291-1.028-.291h-1.097l-.822 1.919-2.073 4.523c-.188.069-.343-.257-1.627-3.358-1.354-3.272-1.114-2.998-2.467-3.05-1.045-.051-1.148-.017-1.096.257zm12.609-.188c-.206.189.069.582.394.582.171 0 .394.154.497.326.188.36.257 7.161.069 7.624-.051.154-.274.274-.497.274-.445 0-.72.497-.394.72.308.188 2.741.171 3.032-.017.326-.206-.017-.651-.548-.737-.377-.051-.377-.086-.428-4.043-.034-3.683-.017-3.992.257-4.078.514-.154.754-.308.788-.497s-2.998-.343-3.169-.154zm7.607.274c-.942.428-1.918 1.405-2.398 2.381-.274.582-.377 1.096-.377 2.022 0 1.079.069 1.405.548 2.279.531 1.011 1.251 1.713 2.364 2.279.857.445 3.067.428 4.112-.034.943-.428 1.182-.702 1.319-1.473.069-.48.018-.634-.257-.788-.376-.188-.548.017-.548.668 0 1.045-3.135 1.508-4.591.685-.429-.24-.977-.771-1.319-1.302-.549-.805-.6-.994-.617-2.244-.017-1.165.034-1.491.394-2.124.651-1.165 1.73-1.782 3.478-1.953.102-.017.359.034.599.103l.908.223c.36.086.566.308.806.891.411.925.753.908.822-.034.034-.531-.034-.754-.343-1.028-1.045-.942-3.46-1.216-4.9-.548zm10.52.428l-1.062 2.758c-.137.308-.24.634-.24.737s-.103.428-.24.72a12.9 12.9 0 0 0-.428 1.148c-.497 1.765-1.063 2.741-1.542 2.741-.326 0-.634.48-.429.668.052.051.72.103 1.491.103 1.319 0 1.405-.017 1.456-.394.052-.274-.034-.377-.274-.377-.497 0-.548-.343-.205-1.388l.308-.925.839-.086c.446-.051 1.32-.051 1.936 0l1.097.086.308.857c.394 1.114.394 1.456-.017 1.456-.343 0-.6.428-.428.702.12.206 2.484.206 2.792 0 .326-.206.103-.702-.308-.702-.36 0-.805-.582-.977-1.302-.068-.257-.222-.668-.342-.908-.137-.24-.24-.582-.24-.754 0-.188-.103-.531-.24-.771-.137-.257-.617-1.508-1.096-2.775-.806-2.227-.857-2.313-1.354-2.364-.48-.051-.531.017-.805.771zm1.559 2.775c.223.617.377 1.319.36 1.559-.052.394-.12.428-1.08.48-1.524.051-1.576 0-1.062-1.696l.548-1.953.12-.514.36.497c.189.274.531.994.754 1.628zm112.335.378c-.326.36-.326 1.182-.343 35.001l.223 35.087.24.48h5.379c4.66 0 5.414-.034 5.637-.274.24-.24.274-1.268.274-8.806 0-5.14.068-8.72.171-8.977.291-.805.754-.548 2.125 1.131.685.874 1.439 1.782 1.661 2.022a18.3 18.3 0 0 1 .994 1.199c.326.428.874 1.079 1.199 1.473.343.377 1.114 1.302 1.731 2.056l1.473 1.782c.634.737 3.392 4.078 3.666 4.42.24.325 1.028 1.251 2.467 2.93.36.428.771.84.891.925.12.069 3.358.103 7.213.086l6.99-.051.051-.531c.035-.291-.051-.651-.171-.771-.137-.137-1.011-1.216-1.953-2.398l-1.919-2.398a18.22 18.22 0 0 1-.685-.857c-.257-.343-1.542-1.953-2.861-3.598l-2.519-3.152c-.171-.223-1.919-2.381-2.552-3.169l-1.388-1.73-1.336-1.679c-.24-.291-.566-.72-.754-.925-.172-.206-.771-.959-1.319-1.662l-2.279-2.895c-1.079-1.37-1.251-1.679-1.131-2.004.086-.223.943-1.371 1.919-2.57l2.878-3.581 3.564-4.454c.222-.257 2.295-2.895 3.512-4.454.068-.103.445-.514.822-.942s.823-.959.977-1.199.788-1.045 1.405-1.816l3.083-3.838 1.765-2.193c1.114-1.388 1.251-1.987.531-2.261-.599-.24-12.609-.206-13.517.017-.583.154-.84.394-1.713 1.559-.566.754-1.183 1.542-1.371 1.73-.206.206-.771.908-1.285 1.576l-1.028 1.285a87.72 87.72 0 0 0-1.37 1.713c-.686.891-1.302 1.662-1.371 1.713-.051.051-.737.891-1.525 1.885l-1.816 2.313c-.24.274-1.25 1.559-2.261 2.827-1.028 1.268-2.005 2.33-2.176 2.364-.805.154-.788.48-.788-17.304 0-16.533 0-16.755-.343-17.098-.325-.325-.565-.343-5.533-.343-5.072 0-5.209.017-5.534.36zm-93.524 12.386c-.085.034-.976.154-1.97.274-2.261.24-5.414.959-6.767 1.542l-1.285.548c-3.581 1.473-6.887 3.769-9.765 6.767-.891.925-1.851 2.039-2.142 2.45-.274.428-.548.805-.6.857-.085.069-.925 1.388-1.49 2.313-.188.326-.617 1.165-1.525 3.05-.205.445-.445 1.062-.514 1.371-.051.308-.222.702-.342.891-.137.189-.24.48-.24.668s-.103.651-.24 1.045c-.651 1.867-.874 3.889-.874 7.624.017 3.649.086 4.3.788 7.11.103.377.24.977.309 1.336.085.36.239.754.342.857s.189.325.189.48c0 .446 1.456 3.649 2.227 4.866.223.377.497.822.6.977 2.004 3.358 5.893 7.144 9.679 9.406 3.204 1.919 7.144 3.341 10.451 3.769 3.563.445 4.9.531 6.082.343.668-.103 1.953-.257 2.878-.36.942-.103 1.833-.257 2.005-.343a1.54 1.54 0 0 1 .668-.171c.719 0 4.146-1.268 4.334-1.593.257-.497.189-12.489-.085-12.661-.309-.206-.874-.034-1.697.531-.873.6-2.672 1.491-3.717 1.833-2.125.754-3.358.942-5.757.959-3.341.017-5.037-.36-7.881-1.765-2.261-1.114-3.032-1.679-4.848-3.563-2.604-2.707-3.958-5.38-4.677-9.183-.411-2.176-.411-3.666 0-5.825.771-4.009 2.176-6.699 4.985-9.491 2.502-2.518 4.678-3.735 8.31-4.677 1.798-.463 5.893-.497 7.709-.069 1.491.36 3.221 1.028 4.626 1.765 1.901 1.011 4.283 3.118 5.773 5.105 1.354 1.816 2.673 4.831 3.101 7.11.103.565.206 6.853.274 16.053l.24 15.248c.086.069 2.536.154 5.431.188 5.14.051 5.311.034 5.654-.308s.342-.463.342-15.47l-.171-16.31c-.857-6.442-3.855-12.507-8.412-17.03-1.902-1.867-4.488-3.786-6.681-4.934a32.67 32.67 0 0 1-1.2-.668c-.308-.188-.822-.394-3.238-1.234-2.261-.771-3.854-1.165-5.568-1.336a34.77 34.77 0 0 1-1.542-.188c-.633-.103-3.597-.223-3.769-.154zm61.676.223c-1.714.24-4.746.874-5.226 1.079-.137.069-.788.291-1.456.514-3.478 1.131-8.755 4.506-10.947 6.99l-.994 1.079c-.805.839-2.707 3.341-2.707 3.546 0 .086-.137.343-.326.565-.171.223-.685 1.148-1.13 2.039-1.217 2.416-1.285 2.57-1.285 2.827 0 .137-.103.497-.24.805-.274.6-.6 1.713-1.045 3.563-.291 1.148-.6 4.3-.6 6.082 0 1.713.309 4.9.6 6.082.428 1.799.771 2.964 1.045 3.564.137.308.24.651.24.754s.188.582.411 1.062l.685 1.473c.137.325.497.977.771 1.456.291.463.617 1.045.737 1.285s.274.497.36.6c.068.086.531.702 1.028 1.371.479.651 1.799 2.107 2.912 3.221 3.375 3.358 7.555 5.825 12.027 7.127l2.124.6a6.99 6.99 0 0 0 1.714.274 8.07 8.07 0 0 1 1.473.171c1.593.394 6.305.154 9.337-.463 2.673-.548 6.459-2.056 8.977-3.581 1.439-.874 4.078-2.947 5.448-4.283 1.08-1.062 1.337-1.405 1.337-1.816 0-.445-.497-1.028-3.684-4.18-2.741-2.724-3.786-3.666-4.094-3.666-.274 0-.874.428-1.748 1.234-2.107 1.902-2.792 2.398-4.54 3.255-3.135 1.542-4.66 1.902-7.984 1.902-2.467 0-4.334-.291-5.413-.84-.274-.137-.566-.24-.651-.24-.343 0-3.29-1.525-3.906-2.022-1.851-1.456-2.93-2.501-3.821-3.683-1.148-1.491-2.707-4.386-2.707-5.003 0-.189-.068-.428-.154-.531-.274-.274-.702-2.638-.822-4.437-.155-2.656.633-6.236 1.85-8.48a19.75 19.75 0 0 0 .531-1.011c.223-.428.565-.959.771-1.199s.754-.925 1.233-1.491c.463-.582 1.422-1.525 2.125-2.09 1.199-.977 4.317-2.775 4.814-2.775.137 0 .463-.103.737-.24 1.25-.617 4.317-1.028 6.647-.874 1.559.103 4.317.685 4.626.959a.68.68 0 0 0 .428.154c.754 0 3.855 1.902 5.397 3.289 2.021 1.85 2.227 2.022 2.57 2.022.222 0 1.696-1.336 4.077-3.684 4.403-4.352 4.3-4.146 2.673-5.739-.583-.582-1.645-1.525-2.365-2.107s-1.336-1.096-1.387-1.165c-.052-.051-.463-.325-.908-.6-.463-.274-1.045-.634-1.285-.788-.549-.343-3.924-2.022-4.078-2.022-.051 0-.342-.103-.634-.24a13.03 13.03 0 0 0-1.148-.428 17.22 17.22 0 0 1-1.113-.343c-2.69-.908-8.189-1.37-11.307-.925zM71.391 34.289c-1.302.154-2.998.565-3.478.822-.189.103-.514.188-.703.188-.171 0-.548.103-.822.24-.257.137-1.131.531-1.936.891l-2.141 1.114-1.713 1.114c-1.079.702-4.232 3.735-5.26 5.037-.583.754-2.707 4.197-2.707 4.386 0 .051-.12.343-.257.634a22.07 22.07 0 0 0-.942 2.604l-.308 1.028c-.103.274-.308 1.165-.445 1.97-.24 1.268-.274 3.718-.274 18.691V90.26l.565.24c.805.36 10.296.326 10.879-.034l.377-.257.017-15.847.154-17.047c.445-3.855 2.039-6.613 5.14-8.96 2.501-1.902 5.02-2.69 8.138-2.553 2.57.103 3.067.24 5.636 1.508 3.015 1.49 5.397 4.437 6.493 8.035.12.394.223 6.305.274 17.595l.103 16.995.394.394c.394.394.394.394 5.602.394 4.883-.017 5.225-.034 5.568-.343l.36-.326-.051-17.749-.069-17.732-.548-2.005c-1.182-4.403-3.187-7.949-6.322-11.153-1.285-1.302-3.341-2.964-4.523-3.632-3.632-2.039-6.168-2.981-9.577-3.512-1.148-.171-6.202-.171-7.624.017zm212.867.822a15.21 15.21 0 0 0-9.628 7.555c-1.474 2.792-2.039 6.682-1.371 9.594.257 1.131.805 2.724 1.165 3.341 1.919 3.324 4.146 5.397 7.367 6.87l2.895 1.353 2.399 1.114c.48.206 1.559.719 2.433 1.131.856.411 1.61.754 1.644.754.052 0 .926.394 1.936.874l3.153 1.473 2.655 1.268c2.656 1.251 4.043 1.867 4.232 1.867.103 0 .325.103.462.223.155.12.617.377 1.046.548 1.37.582 2.055 1.49 2.055 2.758 0 .702-.102 1.011-.531 1.593-1.028 1.439-.103 1.371-16.087 1.388-12.318.017-14.168.051-14.391.274-.394.394-.48 9.937-.086 10.691l.274.514h14.683c13.843 0 14.751-.017 16.001-.326 2.947-.72 5.123-1.953 7.384-4.163.994-.977 3.033-4.077 3.033-4.626 0-.103.12-.411.24-.702.514-1.114 1.01-4.54.856-5.945-.36-3.564-1.525-6.048-4.094-8.703-1.645-1.73-2.313-2.159-6.459-4.129-1.011-.48-1.885-.874-1.936-.874s-.805-.343-1.679-.754l-2.947-1.388-2.398-1.114-4.969-2.313a154.45 154.45 0 0 1-1.799-.822l-4.968-2.313c-1.902-.874-2.399-1.473-2.399-2.913 0-1.182.412-1.953 1.371-2.501.583-.36.857-.36 15.076-.446l14.477-.086.052-5.465c.034-3.889-.018-5.534-.155-5.688-.171-.206-2.672-.24-15.042-.223-13.192.017-14.956.051-15.95.308zm-271.288.017c-.274.069-.839.137-1.234.154-.394 0-.977.12-1.285.257l-1.49.617c-.874.36-2.467 1.251-2.861 1.627l-1.045.857C3.53 39.84.72 44.054.72 45.116a1.72 1.72 0 0 1-.188.668c-.154.274-.514 3.169-.531 4.163-.017 1.405.582 4.18 1.216 5.568 1.268 2.758 4.369 5.774 7.384 7.144.24.12 1.131.531 1.97.925l3.598 1.645 3.478 1.61c.788.36 1.491.668 1.593.668.086 0 .154.069.154.171 0 .086.12.171.257.171.223 0 2.45.977 3.169 1.388a3.52 3.52 0 0 0 .514.257c.257.086 1.336.6 3.255 1.49l5.071 2.347c1.336.582 2.261 1.936 2.039 2.981-.051.24-.12.634-.171.874-.154.737-1.199 1.576-2.107 1.696-.445.051-6.973.103-14.494.103-12.027 0-13.74.034-14.1.257l-.394.257v5.311c0 5.174 0 5.311.36 5.482.377.206 27.908.274 29.879.069 2.536-.257 5.619-1.765 7.932-3.906 1.251-1.148 2.775-3.426 3.392-5.071.908-2.398.942-2.587.942-5.517.017-2.501-.034-2.981-.377-4.009-.206-.651-.445-1.268-.497-1.353-.069-.103-.189-.343-.257-.565-.206-.72-1.765-2.827-2.947-4.026-1.525-1.525-2.587-2.227-5.105-3.375l-2.947-1.388c-.959-.463-1.799-.84-1.85-.84-.034 0-.874-.377-1.833-.822l-2.364-1.114c-.651-.274-2.484-1.131-4.54-2.09l-4.626-2.142-2.518-1.182c-1.011-.48-1.885-.874-1.953-.874-.343 0-1.439-1.114-1.542-1.593-.326-1.319.017-2.587.857-3.272l.651-.531 14.408-.051c14.134-.034 14.408-.051 14.768-.377.36-.343.377-.445.343-5.277l-.068-5.208c0-.171-.24-.411-.531-.565-.445-.24-2.176-.257-14.511-.24l-14.528.154zm127.001 68.889c-.171.086-.822.84-1.456 1.662l-1.251 1.576c-.12.103-2.484 3.033-3.632 4.506-.463.565-.822 1.079-.822 1.131.017.222.479.651 1.113 1.045.377.222.771.497.857.617.154.171 1.747 1.267 2.45 1.696l2.347 1.404c.48.309 5.91 3.016 6.527 3.256l4.009 1.507c.24.052.583.172.771.257l1.028.326c.377.085 1.114.308 1.628.462 1.285.377 2.963.737 6.339 1.354 3.392.617 10.022.925 13.106.599l2.912-.274c1.062-.085 3.512-.479 4.883-.771.428-.102 1.165-.24 1.662-.325.479-.069.976-.189 1.079-.257.12-.069.634-.223 1.165-.343 1.268-.291 2.313-.617 4.403-1.37l2.159-.754c.24-.086.582-.223.771-.326.171-.103.719-.36 1.182-.548.959-.411 4.848-2.347 5.688-2.844 1.936-1.148 3.135-1.902 3.752-2.364l1.096-.788c.702-.48 1.713-1.405 1.713-1.576 0-.137-3.769-4.986-4.111-5.277-.052-.052-.514-.634-1.011-1.285-1.2-1.559-2.09-2.484-2.364-2.484-.12 0-.463.205-.771.462-.84.703-1.645 1.251-1.851 1.251-.085 0-.171.051-.171.12 0 .137-.377.36-2.724 1.713-1.319.771-4.506 2.313-5.757 2.793l-1.576.616c-.291.137-.651.24-.805.24-.137 0-.514.103-.822.24-2.724 1.165-9.937 2.33-14.357 2.33-3.032 0-8.481-.668-10.691-1.302-.445-.137-.942-.24-1.096-.24-.24 0-1.953-.514-2.861-.856-.189-.069-.6-.206-.891-.326l-2.193-.788c-1.884-.754-5.105-2.381-6.51-3.255-1.576-.977-3.975-2.587-4.163-2.776-.274-.257-.36-.274-.754-.034z" fill="#000"/></svg>