<svg width="319" height="189" viewBox="0 0 319 189" fill="none" xmlns="http://www.w3.org/2000/svg">
<path d="M224.029 89.7396C223.821 90.0436 223.789 93.9473 223.805 122.602C223.821 153.8 223.821 155.144 224.109 155.448C224.381 155.752 224.589 155.768 229.309 155.768C233.853 155.768 234.237 155.752 234.477 155.48C234.717 155.224 234.749 154.376 234.749 147.24C234.749 142.664 234.829 139.113 234.909 138.889C235.085 138.409 235.581 138.361 235.997 138.777C236.141 138.937 236.765 139.673 237.372 140.409C237.996 141.16 238.62 141.912 238.764 142.088C238.924 142.264 239.436 142.872 239.9 143.448C240.364 144.024 240.78 144.52 240.828 144.568C240.892 144.616 241.212 145.016 241.564 145.448C241.9 145.896 242.476 146.568 242.812 146.936C243.164 147.32 243.628 147.88 243.852 148.2C244.092 148.52 244.444 148.968 244.652 149.192C244.86 149.416 245.436 150.104 245.932 150.728C246.428 151.336 246.988 152.024 247.18 152.248C247.372 152.472 247.932 153.144 248.444 153.768C248.956 154.376 249.58 155.08 249.82 155.336L250.268 155.768L256.875 155.736L263.467 155.688L263.515 155.32C263.563 154.968 263.099 154.136 262.459 153.432C262.299 153.272 261.963 152.84 261.707 152.488C261.435 152.136 261.195 151.816 261.147 151.768C261.099 151.72 260.779 151.32 260.427 150.888C260.091 150.44 259.755 150.056 259.707 150.008C259.659 149.96 259.403 149.64 259.131 149.288C258.875 148.936 258.507 148.472 258.331 148.248C257.995 147.864 257.355 147.048 255.387 144.552C254.875 143.88 254.347 143.224 254.235 143.112C253.947 142.808 251.516 139.769 251.228 139.353C250.988 139.017 249.436 137.065 248.428 135.849C245.324 132.089 243.98 130.265 243.98 129.849C243.98 129.561 244.828 128.377 246.844 125.849C248.428 123.866 250.46 121.306 251.372 120.17C252.268 119.018 253.244 117.802 253.547 117.45C254.219 116.634 255.755 114.714 257.307 112.746C257.979 111.898 259.243 110.314 260.107 109.226C263.819 104.603 263.867 104.555 263.323 104.107C263.083 103.915 251.164 103.819 250.412 104.011C250.14 104.075 249.564 104.635 248.812 105.579C248.172 106.395 247.516 107.179 247.356 107.339C247.196 107.499 247.068 107.674 247.068 107.738C247.068 107.802 246.908 108.026 246.7 108.25C246.508 108.474 245.452 109.77 244.364 111.13C243.292 112.49 242.236 113.818 242.012 114.058C241.804 114.314 240.908 115.466 239.996 116.618C239.1 117.786 238.316 118.762 238.268 118.81C238.204 118.858 237.644 119.562 237.005 120.362C236.029 121.61 235.773 121.85 235.389 121.85C235.037 121.85 234.925 121.77 234.861 121.386C234.813 121.146 234.765 113.978 234.749 105.467C234.749 93.6113 234.701 89.9156 234.541 89.6756C234.365 89.3876 234.141 89.3716 229.309 89.3716C224.285 89.3876 224.269 89.3876 224.029 89.7396Z" fill="#1A1A1A"/>
<path d="M194.751 101.419C193.999 101.483 193.039 101.595 192.591 101.675C190.735 102.027 190.015 102.187 189.711 102.331C189.535 102.411 189.135 102.523 188.831 102.587C188.527 102.635 188.127 102.795 187.951 102.907C187.775 103.035 187.535 103.131 187.407 103.131C187.279 103.131 186.783 103.323 186.287 103.547C182.08 105.483 178.624 108.106 175.952 111.45C174.864 112.81 173.776 114.394 173.328 115.29C173.136 115.69 172.816 116.298 172.624 116.65C172.208 117.418 171.68 118.73 171.296 119.93C171.152 120.41 170.928 121.066 170.832 121.37C170.48 122.346 170.272 123.61 170.016 126.089C169.696 129.481 169.984 133.113 170.832 135.929C170.96 136.329 171.104 136.889 171.152 137.161C171.216 137.449 171.328 137.721 171.408 137.769C171.488 137.833 171.552 137.977 171.552 138.121C171.552 138.665 173.968 143.528 174.432 143.928C174.48 143.976 174.88 144.504 175.312 145.128C176.064 146.2 179.104 149.368 180.112 150.12C181.728 151.336 182.112 151.608 182.256 151.608C182.352 151.608 182.432 151.672 182.432 151.752C182.432 151.832 182.592 151.96 182.8 152.024C182.992 152.072 183.264 152.216 183.392 152.344C183.696 152.6 186.831 154.168 187.055 154.168C187.151 154.168 187.455 154.264 187.743 154.392C189.215 155 190.623 155.368 192.799 155.688C193.615 155.816 194.351 155.96 194.431 156.008C194.751 156.2 199.487 156.088 201.118 155.848C207.118 154.936 212.51 152.264 216.558 148.152C217.325 147.384 217.949 146.648 217.949 146.536C217.949 146.408 217.853 146.12 217.725 145.88C217.437 145.352 211.566 139.497 211.038 139.225C210.526 138.953 209.966 139.241 208.67 140.473C207.198 141.88 206.078 142.664 204.43 143.448C202.238 144.488 202.078 144.536 200.031 144.92C198.959 145.112 194.223 145 193.551 144.76C193.295 144.664 192.495 144.392 191.791 144.152C189.407 143.336 187.535 142.168 185.711 140.329C184.575 139.193 182.752 136.793 182.752 136.425C182.752 136.361 182.544 135.913 182.304 135.433C181.344 133.609 180.832 131.241 180.832 128.713C180.832 124.745 182.336 120.73 184.863 117.914C185.871 116.794 187.551 115.354 188.591 114.698C189.599 114.074 192.735 112.73 193.183 112.73C193.327 112.73 193.903 112.618 194.463 112.474C196.239 112.01 201.694 112.426 202.35 113.066C202.43 113.146 202.59 113.21 202.718 113.21C202.958 113.21 204.126 113.706 205.07 114.202C206.286 114.858 207.486 115.754 208.862 117.05C210.19 118.282 210.574 118.49 211.054 118.186C211.182 118.106 212.782 116.538 214.622 114.714C217.022 112.314 217.949 111.274 217.949 111.002C217.949 110.298 215.022 107.547 212.382 105.803C210.942 104.859 208.222 103.451 206.91 102.987C203.006 101.595 198.799 101.051 194.751 101.419Z" fill="#1A1A1A"/>
<path d="M134.034 101.515C132.114 101.723 128.243 102.763 127.043 103.387C126.819 103.515 126.515 103.611 126.387 103.611C126.259 103.611 126.067 103.723 125.955 103.851C125.843 103.979 125.667 104.091 125.555 104.091C125.379 104.091 124.419 104.619 122.835 105.579C121.091 106.635 117.683 109.642 116.675 111.002C116.467 111.29 116.115 111.722 115.891 111.962C115.683 112.202 115.427 112.538 115.331 112.714C115.235 112.89 114.899 113.418 114.579 113.882C113.939 114.81 112.548 117.386 112.356 118.01C112.276 118.234 112.068 118.81 111.876 119.29C111.332 120.666 110.932 122.282 110.436 125.049C110.228 126.169 110.244 130.873 110.436 132.249C110.756 134.457 111.332 136.793 111.7 137.481C111.796 137.673 111.876 137.945 111.876 138.073C111.876 138.313 112.58 139.993 113.108 140.968C113.859 142.392 114.131 142.856 114.867 143.992C116.915 147.112 120.083 150.12 123.475 152.2C124.531 152.84 128.419 154.648 128.755 154.648C128.883 154.648 129.219 154.744 129.507 154.872C132.002 155.928 138.498 156.376 142.114 155.736C145.09 155.224 147.745 154.376 148.241 153.816C148.481 153.528 148.513 152.984 148.513 147.768C148.513 142.696 148.481 142.024 148.257 141.944C147.857 141.784 147.425 141.832 147.201 142.056C147.089 142.168 146.609 142.488 146.162 142.776C144.514 143.784 142.658 144.472 140.514 144.888C139.57 145.08 135.49 145.08 134.674 144.888C132.706 144.456 132.13 144.264 130.754 143.64C130.115 143.352 128.323 142.312 128.195 142.168C128.147 142.12 127.763 141.816 127.315 141.496C126.227 140.696 124.355 138.649 123.987 137.849C123.923 137.721 123.731 137.385 123.571 137.129C123.283 136.697 123.075 136.281 122.355 134.729C122.227 134.457 122.083 134.025 122.019 133.769C121.955 133.497 121.859 133.209 121.795 133.129C121.555 132.825 121.155 130.009 121.155 128.681C121.155 126.681 121.731 123.786 122.371 122.618C122.499 122.394 122.595 122.09 122.595 121.962C122.595 121.834 122.707 121.642 122.835 121.53C122.963 121.418 123.075 121.242 123.075 121.13C123.075 120.922 123.843 119.658 124.547 118.73C125.779 117.082 128.115 115.114 130.035 114.074C130.914 113.61 132.898 112.89 133.714 112.714C134.066 112.65 134.626 112.522 134.946 112.442C135.762 112.234 138.962 112.202 140.002 112.41C140.45 112.49 141.17 112.634 141.602 112.714C143.954 113.194 146.865 114.826 148.929 116.842C150.417 118.282 150.705 118.618 151.601 120.01C152.497 121.402 153.793 124.713 153.793 125.641C153.793 125.849 153.873 126.329 153.953 126.697C154.049 127.113 154.129 132.521 154.161 141.08C154.193 152.072 154.241 154.84 154.401 155C154.561 155.16 155.729 155.208 159.441 155.24C162.097 155.256 164.432 155.208 164.64 155.128L164.992 154.984V140.457C164.992 131.593 164.928 125.593 164.832 125.049C164.288 122.026 163.728 119.898 163.088 118.41C162.161 116.282 160.417 113.194 159.569 112.234C159.473 112.106 159.201 111.77 158.993 111.466C157.553 109.45 153.361 105.915 150.993 104.715C150.641 104.539 150.241 104.331 150.113 104.251C149.633 103.979 147.777 103.147 147.393 103.051C147.169 102.987 146.929 102.875 146.833 102.811C146.753 102.747 146.386 102.635 146.034 102.571C145.682 102.507 145.314 102.395 145.234 102.331C145.138 102.251 144.674 102.123 144.194 102.027C143.714 101.947 143.026 101.787 142.674 101.691C141.89 101.483 135.586 101.355 134.034 101.515Z" fill="#1A1A1A"/>
<path d="M78.9968 103.115C77.7329 103.259 76.197 103.563 75.477 103.803C75.221 103.883 74.741 104.011 74.4371 104.091C73.4771 104.299 70.7893 105.483 69.7174 106.186C69.4614 106.346 69.1254 106.538 68.9974 106.602C67.5095 107.354 63.8617 110.714 62.7578 112.33C62.4698 112.762 62.0218 113.434 61.7658 113.802C61.1419 114.714 59.9419 117.178 59.574 118.298C58.23 122.409 58.278 121.738 58.278 139.704V155.543L58.646 155.847C58.982 156.151 59.27 156.167 63.8777 156.183C68.7414 156.199 68.7414 156.199 69.1094 155.831L69.4774 155.463V140.024C69.4774 122.841 69.4454 123.497 70.5813 120.97C72.7252 116.234 78.3568 113.194 83.2685 114.09C85.7644 114.538 87.1563 115.114 88.9162 116.41C91.508 118.314 93.1239 121.114 93.6199 124.537C93.7319 125.289 93.7959 130.857 93.7959 140.616C93.7959 153.256 93.8279 155.591 94.0199 155.863C94.2439 156.151 94.4999 156.167 99.1076 156.183C101.779 156.183 104.115 156.135 104.291 156.071C104.483 156.007 104.707 155.751 104.787 155.495C104.963 154.952 104.947 125.337 104.755 123.129C104.691 122.297 104.563 121.434 104.467 121.21C104.387 120.986 104.259 120.522 104.195 120.17C104.051 119.434 103.203 117.066 102.803 116.25C102.371 115.418 101.427 113.786 101.331 113.69C101.283 113.642 101.123 113.402 100.995 113.146C100.228 111.658 96.5797 108.09 94.3559 106.682C93.5079 106.138 90.4041 104.571 90.1801 104.571C90.0681 104.571 89.7801 104.459 89.5401 104.331C89.2842 104.203 88.9482 104.091 88.8042 104.091C88.6442 104.091 88.2922 103.995 88.0042 103.867C86.5803 103.259 81.5406 102.843 78.9968 103.115Z" fill="#1A1A1A"/>
<path d="M279.546 103.739C278.618 103.819 276.602 104.267 276.442 104.427C276.346 104.507 276.186 104.571 276.058 104.571C275.946 104.571 275.53 104.715 275.13 104.906C272.842 105.946 269.85 108.746 268.842 110.81C268.65 111.21 268.426 111.642 268.362 111.77C267.642 113.082 266.986 116.618 267.146 118.33C267.242 119.45 267.69 121.513 267.866 121.769C267.93 121.849 268.026 122.121 268.09 122.377C268.234 122.953 269.018 124.249 269.962 125.449C270.698 126.377 272.378 128.089 272.554 128.089C272.602 128.089 272.954 128.297 273.338 128.537C273.722 128.793 274.602 129.273 275.306 129.609C276.01 129.929 276.698 130.265 276.826 130.345C276.954 130.425 277.178 130.537 277.306 130.585C277.434 130.617 277.978 130.857 278.506 131.113C280.586 132.089 281.258 132.393 282.185 132.809C282.713 133.049 283.801 133.545 284.585 133.929C285.385 134.297 286.777 134.953 287.705 135.369C288.633 135.801 289.993 136.425 290.745 136.777C291.497 137.113 292.473 137.577 292.937 137.784C293.401 137.992 293.929 138.248 294.137 138.328C294.345 138.408 294.617 138.552 294.745 138.632C294.873 138.696 295.689 139.096 296.537 139.512C298.408 140.408 298.744 140.84 298.744 142.248C298.744 143.352 298.376 144.04 297.497 144.6L296.905 144.968L283.385 145.016C274.73 145.048 269.802 145.128 269.706 145.224C269.61 145.32 269.53 147.304 269.498 150.312C269.466 154.391 269.498 155.271 269.674 155.431C270.026 155.719 298.408 155.591 299.384 155.303C301.448 154.663 304.408 152.84 305.704 151.416C308.168 148.68 309.384 145.496 309.384 141.768C309.384 140.04 309.304 139.608 308.632 137.529C308.12 135.977 306.552 133.593 305.224 132.361C304.408 131.609 302.552 130.409 301.464 129.913C300.888 129.673 300.408 129.401 300.376 129.337C300.344 129.273 300.248 129.209 300.168 129.209C299.992 129.209 299.128 128.841 297.305 127.977C296.649 127.657 295.673 127.209 295.145 126.969C294.617 126.729 293.641 126.265 292.985 125.961C291.785 125.401 290.457 124.793 288.505 123.897C286.697 123.065 285.433 122.473 283.769 121.673C282.873 121.241 282.025 120.89 281.881 120.89C281.737 120.89 281.625 120.826 281.625 120.762C281.625 120.682 281.098 120.41 280.474 120.154C279.658 119.834 279.066 119.45 278.522 118.922L277.754 118.154L277.818 117.13C277.866 116.282 277.962 115.994 278.362 115.514C279.322 114.314 278.778 114.362 293.641 114.346L306.872 114.33L306.936 113.802C306.968 113.53 306.984 111.226 306.984 108.698C306.984 105.434 306.936 104.059 306.792 103.915C306.664 103.787 303.144 103.739 293.353 103.707C286.073 103.707 279.85 103.707 279.546 103.739Z" fill="#1A1A1A"/>
<path d="M21.721 104.203C20.505 104.491 18.8731 105.163 18.0412 105.691C17.7852 105.867 17.4172 106.075 17.2412 106.155C16.4893 106.491 13.3215 109.658 13.3215 110.058C13.3215 110.138 13.1135 110.506 12.8575 110.89C12.6015 111.274 12.3455 111.754 12.2815 111.962C12.2175 112.154 12.1055 112.394 12.0415 112.49C11.9775 112.57 11.8656 112.906 11.8016 113.21C11.7376 113.514 11.6256 113.85 11.5456 113.946C11.4016 114.122 11.0656 116.81 11.0336 117.85C11.0176 119.514 11.4816 121.706 12.1855 123.13C13.1455 125.098 14.9854 127.273 16.6013 128.377C16.9532 128.617 17.2732 128.841 17.3212 128.889C17.3692 128.937 17.9772 129.241 18.6811 129.593C19.3851 129.929 20.0731 130.265 20.201 130.345C20.329 130.425 20.553 130.537 20.681 130.585C20.809 130.649 21.433 130.921 22.0409 131.209C22.6649 131.497 23.5928 131.929 24.1208 132.169C24.6488 132.409 25.6567 132.889 26.3607 133.209C27.0646 133.545 28.1526 134.041 28.7605 134.329C30.6164 135.161 30.7764 135.241 32.3603 135.977C33.9922 136.745 35.0801 137.241 36.6001 137.929C37.128 138.169 38.2799 138.713 39.1759 139.145C40.0558 139.577 40.8558 139.929 40.9518 139.929C41.2718 139.929 42.4237 141.065 42.5037 141.497C42.7277 142.52 42.7277 142.68 42.5037 143.32C42.2637 144.024 41.7837 144.616 41.2398 144.936C40.9998 145.08 37.192 145.144 27.2726 145.208C15.3853 145.272 13.6094 145.32 13.4815 145.528C13.3855 145.672 13.3375 147.768 13.3695 150.728L13.4015 155.672L13.8014 155.784C14.0254 155.848 20.281 155.896 27.7206 155.912C42.5197 155.928 42.3917 155.944 44.7436 154.984C48.6793 153.4 51.6231 149.992 52.9191 145.512C53.175 144.584 53.287 140.457 53.0631 139.513C52.4551 136.905 51.1912 134.681 49.1753 132.729C48.2633 131.833 46.0235 130.329 45.4475 130.217C45.2075 130.169 44.9195 130.025 44.8236 129.913C44.7276 129.785 44.5836 129.689 44.5036 129.689C44.4236 129.689 43.8316 129.449 43.2076 129.145C42.5677 128.841 41.3358 128.265 40.4878 127.865C39.6239 127.465 38.8879 127.129 38.8399 127.129C38.8079 127.129 38.136 126.841 37.368 126.473C36.5841 126.105 35.3521 125.53 34.6002 125.178C33.8482 124.842 32.8083 124.346 32.2803 124.106C31.7523 123.85 30.8564 123.434 30.2804 123.178C29.7045 122.906 28.6965 122.442 28.0406 122.122C27.3846 121.818 26.2647 121.306 25.5607 120.97C24.8568 120.65 23.9928 120.25 23.6248 120.074C21.417 119.034 20.985 116.762 22.7289 115.322L23.4489 114.73L36.776 114.714C47.7034 114.714 50.1832 114.666 50.5192 114.49L50.9192 114.282L50.9352 110.106C50.9512 104.619 50.9512 104.523 50.6312 104.283C50.4392 104.139 47.3194 104.091 36.2161 104.107C28.4245 104.123 21.8969 104.155 21.721 104.203Z" fill="#1A1A1A"/>
<path d="M142.242 168.775C141.666 169.367 138.994 172.647 138.194 173.75C137.938 174.102 137.442 174.694 137.106 175.062C136.274 175.974 135.714 176.742 135.714 176.998C135.714 177.286 136.194 177.686 138.162 179.014C141.026 180.918 141.394 181.158 143.186 182.102C145.426 183.286 145.202 183.174 148.194 184.534C148.594 184.71 149.346 185.014 149.873 185.19C150.401 185.366 151.233 185.67 151.713 185.862C152.193 186.038 152.849 186.246 153.153 186.326C153.457 186.39 153.889 186.518 154.113 186.598C154.769 186.87 157.265 187.462 159.393 187.846C164.145 188.71 168.976 189.03 172.672 188.742C176.512 188.438 178.288 188.246 178.448 188.15C178.528 188.102 179.232 187.958 180 187.83C180.768 187.702 181.824 187.494 182.352 187.366C182.879 187.238 183.743 187.03 184.287 186.902C184.815 186.79 185.407 186.614 185.599 186.502C185.775 186.406 186.047 186.326 186.191 186.326C186.335 186.326 186.687 186.23 186.959 186.118C187.247 185.99 187.871 185.766 188.351 185.622C189.823 185.142 192.159 184.15 194.591 182.982C195.599 182.486 195.887 182.342 196.479 182.006C196.623 181.91 196.895 181.766 197.071 181.686C197.247 181.59 197.583 181.398 197.823 181.238C198.063 181.094 198.783 180.646 199.422 180.262C200.062 179.862 200.894 179.334 201.262 179.062C201.63 178.79 202.334 178.278 202.814 177.942C203.454 177.494 203.71 177.206 203.71 176.95C203.71 176.758 203.646 176.566 203.582 176.534C203.518 176.502 203.038 175.942 202.51 175.286C201.982 174.63 201.47 173.99 201.358 173.878C201.246 173.766 200.814 173.222 200.398 172.679C199.982 172.135 199.438 171.431 199.167 171.111C198.895 170.791 198.463 170.263 198.191 169.927C197.935 169.591 197.519 169.095 197.295 168.823L196.879 168.359L196.335 168.727C196.031 168.935 195.759 169.159 195.711 169.207C195.551 169.367 194.607 170.007 194.495 170.007C194.447 170.007 194.127 170.215 193.807 170.455C193.055 171.047 191.327 172.087 191.103 172.087C191.007 172.087 190.607 172.295 190.223 172.567C189.823 172.823 189.455 173.047 189.407 173.047C189.359 173.047 188.799 173.286 188.159 173.574C187.519 173.862 186.671 174.23 186.271 174.39C185.871 174.55 185.343 174.774 185.103 174.902C184.847 175.03 184.479 175.126 184.287 175.126C184.095 175.126 183.871 175.19 183.775 175.254C183.359 175.638 179.152 176.694 176.672 177.062C176.096 177.142 175.056 177.286 174.352 177.398C172.656 177.654 166.88 177.638 165.073 177.382C162.625 177.03 161.761 176.902 160.593 176.646C158.513 176.214 157.537 175.974 157.185 175.782C157.009 175.686 156.705 175.606 156.529 175.606C156.353 175.606 155.969 175.51 155.681 175.382C155.393 175.254 154.833 175.03 154.433 174.886C154.033 174.742 153.425 174.47 153.057 174.31C152.689 174.15 152.321 174.006 152.225 174.006C152.129 174.006 151.857 173.894 151.601 173.766C151.361 173.654 150.833 173.382 150.433 173.206C147.97 172.055 144.882 170.167 143.154 168.759C142.722 168.407 142.578 168.407 142.242 168.775Z" fill="#1A1A1A"/>
<path d="M224.029 56.639C223.821 56.943 223.789 60.8467 223.805 89.501C223.821 120.699 223.821 122.043 224.109 122.347C224.381 122.651 224.589 122.667 229.309 122.667C233.853 122.667 234.237 122.651 234.477 122.379C234.717 122.123 234.749 121.275 234.749 114.14C234.749 109.564 234.829 106.012 234.909 105.788C235.085 105.308 235.581 105.26 235.997 105.676C236.141 105.836 236.765 106.572 237.372 107.308C237.996 108.06 238.62 108.812 238.764 108.988C238.924 109.164 239.436 109.772 239.9 110.348C240.364 110.924 240.78 111.42 240.828 111.468C240.892 111.516 241.212 111.916 241.564 112.348C241.9 112.796 242.476 113.468 242.812 113.836C243.164 114.22 243.628 114.779 243.852 115.099C244.092 115.419 244.444 115.867 244.652 116.091C244.86 116.315 245.436 117.003 245.932 117.627C246.428 118.235 246.988 118.923 247.18 119.147C247.372 119.371 247.932 120.043 248.444 120.667C248.956 121.275 249.58 121.979 249.82 122.235L250.268 122.667L256.875 122.635L263.467 122.587L263.515 122.219C263.563 121.867 263.099 121.035 262.459 120.331C262.299 120.171 261.963 119.739 261.707 119.387C261.435 119.035 261.195 118.715 261.147 118.667C261.099 118.619 260.779 118.219 260.427 117.787C260.091 117.339 259.755 116.955 259.707 116.907C259.659 116.859 259.403 116.539 259.131 116.187C258.875 115.835 258.507 115.371 258.331 115.147C257.995 114.763 257.355 113.948 255.387 111.452C254.875 110.78 254.347 110.124 254.235 110.012C253.947 109.708 251.516 106.668 251.228 106.252C250.988 105.916 249.436 103.964 248.428 102.748C245.324 98.9884 243.98 97.1645 243.98 96.7486C243.98 96.4606 244.828 95.2767 246.844 92.7488C248.428 90.7649 250.46 88.2051 251.372 87.0691C252.268 85.9172 253.244 84.7013 253.547 84.3493C254.219 83.5334 255.755 81.6135 257.307 79.6456C257.979 78.7976 259.243 77.2137 260.107 76.1258C263.819 71.5021 263.867 71.4541 263.323 71.0061C263.083 70.8141 251.164 70.7181 250.412 70.9101C250.14 70.9741 249.564 71.5341 248.812 72.478C248.172 73.294 247.516 74.0779 247.356 74.2379C247.196 74.3979 247.068 74.5739 247.068 74.6379C247.068 74.7019 246.908 74.9259 246.7 75.1499C246.508 75.3739 245.452 76.6698 244.364 78.0297C243.292 79.3896 242.236 80.7175 242.012 80.9575C241.804 81.2135 240.908 82.3654 239.996 83.5174C239.1 84.6853 238.316 85.6612 238.268 85.7092C238.204 85.7572 237.644 86.4612 237.005 87.2611C236.029 88.5091 235.773 88.749 235.389 88.749C235.037 88.749 234.925 88.6691 234.861 88.2851C234.813 88.0451 234.765 80.8775 234.749 72.366C234.749 60.5108 234.701 56.815 234.541 56.575C234.365 56.287 234.141 56.271 229.309 56.271C224.285 56.287 224.269 56.287 224.029 56.639Z" fill="#515151"/>
<path d="M194.751 68.3183C193.999 68.3823 193.039 68.4943 192.591 68.5743C190.735 68.9263 190.015 69.0862 189.711 69.2302C189.535 69.3102 189.135 69.4222 188.831 69.4862C188.527 69.5342 188.127 69.6942 187.951 69.8062C187.775 69.9342 187.535 70.0302 187.407 70.0302C187.279 70.0302 186.783 70.2222 186.287 70.4462C182.08 72.382 178.624 75.0059 175.952 78.3497C174.864 79.7096 173.776 81.2935 173.328 82.1894C173.136 82.5894 172.816 83.1974 172.624 83.5494C172.208 84.3173 171.68 85.6292 171.296 86.8292C171.152 87.3091 170.928 87.9651 170.832 88.2691C170.48 89.245 170.272 90.5089 170.016 92.9888C169.696 96.3806 169.984 100.012 170.832 102.828C170.96 103.228 171.104 103.788 171.152 104.06C171.216 104.348 171.328 104.62 171.408 104.668C171.488 104.732 171.552 104.876 171.552 105.02C171.552 105.564 173.968 110.428 174.432 110.828C174.48 110.876 174.88 111.404 175.312 112.028C176.064 113.1 179.104 116.267 180.112 117.019C181.728 118.235 182.112 118.507 182.256 118.507C182.352 118.507 182.432 118.571 182.432 118.651C182.432 118.731 182.592 118.859 182.8 118.923C182.992 118.971 183.264 119.115 183.392 119.243C183.696 119.499 186.831 121.067 187.055 121.067C187.151 121.067 187.455 121.163 187.743 121.291C189.215 121.899 190.623 122.267 192.799 122.587C193.615 122.715 194.351 122.859 194.431 122.907C194.751 123.099 199.487 122.987 201.118 122.747C207.118 121.835 212.51 119.163 216.558 115.051C217.325 114.283 217.949 113.548 217.949 113.436C217.949 113.308 217.853 113.02 217.725 112.78C217.437 112.252 211.566 106.396 211.038 106.124C210.526 105.852 209.966 106.14 208.67 107.372C207.198 108.78 206.078 109.564 204.43 110.348C202.238 111.388 202.078 111.436 200.031 111.82C198.959 112.012 194.223 111.9 193.551 111.66C193.295 111.564 192.495 111.292 191.791 111.052C189.407 110.236 187.535 109.068 185.711 107.228C184.575 106.092 182.752 103.692 182.752 103.324C182.752 103.26 182.544 102.812 182.304 102.332C181.344 100.508 180.832 98.1405 180.832 95.6126C180.832 91.6449 182.336 87.6291 184.863 84.8133C185.871 83.6934 187.551 82.2534 188.591 81.5975C189.599 80.9735 192.735 79.6296 193.183 79.6296C193.327 79.6296 193.903 79.5176 194.463 79.3736C196.239 78.9096 201.694 79.3256 202.35 79.9656C202.43 80.0456 202.59 80.1096 202.718 80.1096C202.958 80.1096 204.126 80.6055 205.07 81.1015C206.286 81.7575 207.486 82.6534 208.862 83.9493C210.19 85.1813 210.574 85.3892 211.054 85.0853C211.182 85.0053 212.782 83.4374 214.622 81.6135C217.022 79.2136 217.949 78.1737 217.949 77.9017C217.949 77.1977 215.022 74.4459 212.382 72.702C210.942 71.7581 208.222 70.3502 206.91 69.8862C203.006 68.4943 198.799 67.9503 194.751 68.3183Z" fill="#515151"/>
<path d="M134.034 68.4143C132.114 68.6223 128.243 69.6622 127.043 70.2862C126.819 70.4142 126.515 70.5102 126.387 70.5102C126.259 70.5102 126.067 70.6221 125.955 70.7501C125.843 70.8781 125.667 70.9901 125.555 70.9901C125.379 70.9901 124.419 71.5181 122.835 72.478C121.091 73.534 117.683 76.5418 116.675 77.9017C116.467 78.1897 116.115 78.6217 115.891 78.8616C115.683 79.1016 115.427 79.4376 115.331 79.6136C115.235 79.7896 114.899 80.3176 114.579 80.7815C113.939 81.7095 112.548 84.2853 112.356 84.9093C112.276 85.1333 112.068 85.7092 111.876 86.1892C111.332 87.5651 110.932 89.181 110.436 91.9489C110.228 93.0688 110.244 97.7725 110.436 99.1484C110.756 101.356 111.332 103.692 111.7 104.38C111.796 104.572 111.876 104.844 111.876 104.972C111.876 105.212 112.58 106.892 113.108 107.868C113.859 109.292 114.131 109.756 114.867 110.892C116.915 114.012 120.083 117.019 123.475 119.099C124.531 119.739 128.419 121.547 128.755 121.547C128.883 121.547 129.219 121.643 129.507 121.771C132.002 122.827 138.498 123.275 142.114 122.635C145.09 122.123 147.745 121.275 148.241 120.715C148.481 120.427 148.513 119.883 148.513 114.667C148.513 109.596 148.481 108.924 148.257 108.844C147.857 108.684 147.425 108.732 147.201 108.956C147.089 109.068 146.609 109.388 146.162 109.676C144.514 110.684 142.658 111.372 140.514 111.788C139.57 111.98 135.49 111.98 134.674 111.788C132.706 111.356 132.13 111.164 130.754 110.54C130.115 110.252 128.323 109.212 128.195 109.068C128.147 109.02 127.763 108.716 127.315 108.396C126.227 107.596 124.355 105.548 123.987 104.748C123.923 104.62 123.731 104.284 123.571 104.028C123.283 103.596 123.075 103.18 122.355 101.628C122.227 101.356 122.083 100.924 122.019 100.668C121.955 100.396 121.859 100.108 121.795 100.028C121.555 99.7244 121.155 96.9086 121.155 95.5806C121.155 93.5808 121.731 90.6849 122.371 89.517C122.499 89.293 122.595 88.989 122.595 88.861C122.595 88.733 122.707 88.5411 122.835 88.4291C122.963 88.3171 123.075 88.1411 123.075 88.0291C123.075 87.8211 123.843 86.5572 124.547 85.6292C125.779 83.9813 128.115 82.0135 130.035 80.9735C130.914 80.5095 132.898 79.7896 133.714 79.6136C134.066 79.5496 134.626 79.4216 134.946 79.3416C135.762 79.1336 138.962 79.1016 140.002 79.3096C140.45 79.3896 141.17 79.5336 141.602 79.6136C143.954 80.0936 146.865 81.7255 148.929 83.7414C150.417 85.1813 150.705 85.5172 151.601 86.9092C152.497 88.3011 153.793 91.6129 153.793 92.5408C153.793 92.7488 153.873 93.2288 153.953 93.5968C154.049 94.0127 154.129 99.4204 154.161 107.98C154.193 118.971 154.241 121.739 154.401 121.899C154.561 122.059 155.729 122.107 159.441 122.139C162.097 122.155 164.432 122.107 164.64 122.027L164.992 121.883V107.356C164.992 98.4925 164.928 92.4928 164.832 91.9489C164.288 88.925 163.728 86.7972 163.088 85.3093C162.161 83.1814 160.417 80.0936 159.569 79.1336C159.473 79.0056 159.201 78.6697 158.993 78.3657C157.553 76.3498 153.361 72.814 150.993 71.6141C150.641 71.4381 150.241 71.2301 150.113 71.1501C149.633 70.8781 147.777 70.0462 147.393 69.9502C147.169 69.8862 146.929 69.7742 146.833 69.7102C146.753 69.6462 146.386 69.5342 146.034 69.4702C145.682 69.4062 145.314 69.2942 145.234 69.2302C145.138 69.1502 144.674 69.0222 144.194 68.9263C143.714 68.8463 143.026 68.6863 142.674 68.5903C141.89 68.3823 135.586 68.2543 134.034 68.4143Z" fill="#515151"/>
<path d="M78.9968 70.0141C77.7329 70.1581 76.197 70.462 75.477 70.702C75.221 70.782 74.741 70.91 74.4371 70.99C73.4771 71.198 70.7893 72.3819 69.7174 73.0859C69.4614 73.2459 69.1254 73.4379 68.9974 73.5019C67.5095 74.2538 63.8617 77.6136 62.7578 79.2295C62.4698 79.6615 62.0218 80.3334 61.7658 80.7014C61.1419 81.6134 59.9419 84.0772 59.574 85.1971C58.23 89.3089 58.278 88.6369 58.278 106.604V122.443L58.646 122.747C58.982 123.051 59.27 123.067 63.8777 123.083C68.7414 123.099 68.7414 123.099 69.1094 122.731L69.4774 122.363V106.924C69.4774 89.7409 69.4454 90.3968 70.5813 87.869C72.7252 83.1333 78.3568 80.0935 83.2685 80.9894C85.7644 81.4374 87.1563 82.0133 88.9162 83.3093C91.508 85.2131 93.1239 88.013 93.6199 91.4368C93.7319 92.1887 93.7959 97.7564 93.7959 107.516C93.7959 120.155 93.8279 122.491 94.0199 122.763C94.2439 123.051 94.4999 123.067 99.1076 123.083C101.779 123.083 104.115 123.035 104.291 122.971C104.483 122.907 104.707 122.651 104.787 122.395C104.963 121.851 104.947 92.2367 104.755 90.0289C104.691 89.1969 104.563 88.333 104.467 88.109C104.387 87.885 104.259 87.421 104.195 87.069C104.051 86.3331 103.203 83.9652 102.803 83.1493C102.371 82.3173 101.427 80.6854 101.331 80.5894C101.283 80.5414 101.123 80.3014 100.995 80.0455C100.228 78.5575 96.5797 74.9898 94.3559 73.5818C93.5079 73.0379 90.4041 71.47 90.1801 71.47C90.0681 71.47 89.7801 71.358 89.5401 71.23C89.2842 71.102 88.9482 70.99 88.8042 70.99C88.6442 70.99 88.2922 70.894 88.0042 70.766C86.5803 70.1581 81.5406 69.7421 78.9968 70.0141Z" fill="#515151"/>
<path d="M279.546 70.638C278.618 70.718 276.602 71.1659 276.442 71.3259C276.346 71.4059 276.186 71.4699 276.058 71.4699C275.946 71.4699 275.53 71.6139 275.13 71.8059C272.842 72.8458 269.85 75.6457 268.842 77.7095C268.65 78.1095 268.426 78.5415 268.362 78.6695C267.642 79.9814 266.986 83.5172 267.146 85.2291C267.242 86.349 267.69 88.4129 267.866 88.6689C267.93 88.7489 268.026 89.0209 268.09 89.2768C268.234 89.8528 269.018 91.1487 269.962 92.3487C270.698 93.2766 272.378 94.9885 272.554 94.9885C272.602 94.9885 272.954 95.1965 273.338 95.4365C273.722 95.6925 274.602 96.1724 275.306 96.5084C276.01 96.8284 276.698 97.1644 276.826 97.2444C276.954 97.3244 277.178 97.4363 277.306 97.4843C277.434 97.5163 277.978 97.7563 278.506 98.0123C280.586 98.9883 281.258 99.2922 282.185 99.7082C282.713 99.9482 283.801 100.444 284.585 100.828C285.385 101.196 286.777 101.852 287.705 102.268C288.633 102.7 289.993 103.324 290.745 103.676C291.497 104.012 292.473 104.476 292.937 104.684C293.401 104.892 293.929 105.148 294.137 105.228C294.345 105.308 294.617 105.452 294.745 105.532C294.873 105.596 295.689 105.996 296.537 106.412C298.408 107.308 298.744 107.74 298.744 109.148C298.744 110.252 298.376 110.94 297.497 111.499L296.905 111.867L283.385 111.915C274.73 111.947 269.802 112.027 269.706 112.123C269.61 112.219 269.53 114.203 269.498 117.211C269.466 121.291 269.498 122.171 269.674 122.331C270.026 122.619 298.408 122.491 299.384 122.203C301.448 121.563 304.408 119.739 305.704 118.315C308.168 115.579 309.384 112.395 309.384 108.668C309.384 106.94 309.304 106.508 308.632 104.428C308.12 102.876 306.552 100.492 305.224 99.2602C304.408 98.5083 302.552 97.3084 301.464 96.8124C300.888 96.5724 300.408 96.3004 300.376 96.2364C300.344 96.1724 300.248 96.1084 300.168 96.1084C299.992 96.1084 299.128 95.7404 297.305 94.8765C296.649 94.5565 295.673 94.1085 295.145 93.8686C294.617 93.6286 293.641 93.1646 292.985 92.8606C291.785 92.3007 290.457 91.6927 288.505 90.7967C286.697 89.9648 285.433 89.3728 283.769 88.5729C282.873 88.1409 282.025 87.7889 281.881 87.7889C281.737 87.7889 281.625 87.7249 281.625 87.6609C281.625 87.5809 281.098 87.309 280.474 87.053C279.658 86.733 279.066 86.349 278.522 85.8211L277.754 85.0531L277.818 84.0292C277.866 83.1812 277.962 82.8932 278.362 82.4133C279.322 81.2133 278.778 81.2613 293.641 81.2453L306.872 81.2293L306.936 80.7014C306.968 80.4294 306.984 78.1255 306.984 75.5977C306.984 72.3339 306.936 70.958 306.792 70.814C306.664 70.686 303.144 70.638 293.353 70.606C286.073 70.606 279.85 70.606 279.546 70.638Z" fill="#515151"/>
<path d="M21.721 71.1022C20.505 71.3902 18.8731 72.0622 18.0412 72.5901C17.7852 72.7661 17.4172 72.9741 17.2412 73.0541C16.4893 73.3901 13.3215 76.5579 13.3215 76.9579C13.3215 77.0379 13.1135 77.4058 12.8575 77.7898C12.6015 78.1738 12.3455 78.6538 12.2815 78.8618C12.2175 79.0537 12.1055 79.2937 12.0415 79.3897C11.9775 79.4697 11.8656 79.8057 11.8016 80.1097C11.7376 80.4137 11.6256 80.7496 11.5456 80.8456C11.4016 81.0216 11.0656 83.7095 11.0336 84.7494C11.0176 86.4133 11.4816 88.6052 12.1855 90.0291C13.1455 91.997 14.9854 94.1728 16.6013 95.2768C16.9532 95.5167 17.2732 95.7407 17.3212 95.7887C17.3692 95.8367 17.9772 96.1407 18.6811 96.4927C19.3851 96.8287 20.0731 97.1646 20.201 97.2446C20.329 97.3246 20.553 97.4366 20.681 97.4846C20.809 97.5486 21.433 97.8206 22.0409 98.1086C22.6649 98.3966 23.5928 98.8285 24.1208 99.0685C24.6488 99.3085 25.6567 99.7885 26.3607 100.108C27.0646 100.444 28.1526 100.94 28.7605 101.228C30.6164 102.06 30.7764 102.14 32.3603 102.876C33.9922 103.644 35.0801 104.14 36.6001 104.828C37.128 105.068 38.2799 105.612 39.1759 106.044C40.0558 106.476 40.8558 106.828 40.9518 106.828C41.2718 106.828 42.4237 107.964 42.5037 108.396C42.7277 109.42 42.7277 109.58 42.5037 110.22C42.2637 110.924 41.7837 111.516 41.2398 111.836C40.9998 111.98 37.192 112.044 27.2726 112.108C15.3853 112.172 13.6094 112.22 13.4815 112.428C13.3855 112.572 13.3375 114.668 13.3695 117.627L13.4015 122.571L13.8014 122.683C14.0254 122.747 20.281 122.795 27.7206 122.811C42.5197 122.827 42.3917 122.843 44.7436 121.883C48.6793 120.299 51.6231 116.891 52.9191 112.412C53.175 111.484 53.287 107.356 53.0631 106.412C52.4551 103.804 51.1912 101.58 49.1753 99.6285C48.2633 98.7325 46.0235 97.2286 45.4475 97.1166C45.2075 97.0687 44.9195 96.9247 44.8236 96.8127C44.7276 96.6847 44.5836 96.5887 44.5036 96.5887C44.4236 96.5887 43.8316 96.3487 43.2076 96.0447C42.5677 95.7407 41.3358 95.1648 40.4878 94.7648C39.6239 94.3648 38.8879 94.0288 38.8399 94.0288C38.8079 94.0288 38.136 93.7409 37.368 93.3729C36.5841 93.0049 35.3521 92.4289 34.6002 92.077C33.8482 91.741 32.8083 91.245 32.2803 91.005C31.7523 90.749 30.8564 90.3331 30.2804 90.0771C29.7045 89.8051 28.6965 89.3411 28.0406 89.0211C27.3846 88.7172 26.2647 88.2052 25.5607 87.8692C24.8568 87.5492 23.9928 87.1493 23.6248 86.9733C21.417 85.9333 20.985 83.6615 22.7289 82.2216L23.4489 81.6296L36.776 81.6136C47.7034 81.6136 50.1832 81.5656 50.5192 81.3896L50.9192 81.1816L50.9352 77.0059C50.9512 71.5182 50.9512 71.4222 50.6312 71.1822C50.4392 71.0382 47.3194 70.9902 36.2161 71.0062C28.4245 71.0222 21.8969 71.0542 21.721 71.1022Z" fill="#515151"/>
<path d="M142.242 135.674C141.666 136.266 138.994 139.546 138.194 140.65C137.938 141.002 137.442 141.594 137.106 141.962C136.274 142.874 135.714 143.642 135.714 143.898C135.714 144.186 136.194 144.586 138.162 145.914C141.026 147.817 141.394 148.057 143.186 149.001C145.426 150.185 145.202 150.073 148.194 151.433C148.594 151.609 149.346 151.913 149.873 152.089C150.401 152.265 151.233 152.569 151.713 152.761C152.193 152.937 152.849 153.145 153.153 153.225C153.457 153.289 153.889 153.417 154.113 153.497C154.769 153.769 157.265 154.361 159.393 154.745C164.145 155.609 168.976 155.929 172.672 155.641C176.512 155.337 178.288 155.145 178.448 155.049C178.528 155.001 179.232 154.857 180 154.729C180.768 154.601 181.824 154.393 182.352 154.265C182.879 154.137 183.743 153.929 184.287 153.801C184.815 153.689 185.407 153.513 185.599 153.401C185.775 153.305 186.047 153.225 186.191 153.225C186.335 153.225 186.687 153.129 186.959 153.017C187.247 152.889 187.871 152.665 188.351 152.521C189.823 152.041 192.159 151.049 194.591 149.881C195.599 149.385 195.887 149.241 196.479 148.905C196.623 148.809 196.895 148.665 197.071 148.585C197.247 148.489 197.583 148.297 197.823 148.137C198.063 147.993 198.783 147.545 199.422 147.161C200.062 146.762 200.894 146.234 201.262 145.962C201.63 145.69 202.334 145.178 202.814 144.842C203.454 144.394 203.71 144.106 203.71 143.85C203.71 143.658 203.646 143.466 203.582 143.434C203.518 143.402 203.038 142.842 202.51 142.186C201.982 141.53 201.47 140.89 201.358 140.778C201.246 140.666 200.814 140.122 200.398 139.578C199.982 139.034 199.438 138.33 199.167 138.01C198.895 137.69 198.463 137.162 198.191 136.826C197.935 136.49 197.519 135.994 197.295 135.722L196.879 135.258L196.335 135.626C196.031 135.834 195.759 136.058 195.711 136.106C195.551 136.266 194.607 136.906 194.495 136.906C194.447 136.906 194.127 137.114 193.807 137.354C193.055 137.946 191.327 138.986 191.103 138.986C191.007 138.986 190.607 139.194 190.223 139.466C189.823 139.722 189.455 139.946 189.407 139.946C189.359 139.946 188.799 140.186 188.159 140.474C187.519 140.762 186.671 141.13 186.271 141.29C185.871 141.45 185.343 141.674 185.103 141.802C184.847 141.93 184.479 142.026 184.287 142.026C184.095 142.026 183.871 142.09 183.775 142.154C183.359 142.538 179.152 143.594 176.672 143.962C176.096 144.042 175.056 144.186 174.352 144.298C172.656 144.554 166.88 144.538 165.073 144.282C162.625 143.93 161.761 143.802 160.593 143.546C158.513 143.114 157.537 142.874 157.185 142.682C157.009 142.586 156.705 142.506 156.529 142.506C156.353 142.506 155.969 142.41 155.681 142.282C155.393 142.154 154.833 141.93 154.433 141.786C154.033 141.642 153.425 141.37 153.057 141.21C152.689 141.05 152.321 140.906 152.225 140.906C152.129 140.906 151.857 140.794 151.601 140.666C151.361 140.554 150.833 140.282 150.433 140.106C147.97 138.954 144.882 137.066 143.154 135.658C142.722 135.306 142.578 135.306 142.242 135.674Z" fill="#515151"/>
<path d="M49.1521 0.315685C48.758 0.761124 48.7066 1.42928 49.0664 1.51494C49.2549 1.54921 49.4604 1.37788 49.6318 1.05237C49.7688 0.761124 49.9573 0.521272 50.0258 0.521272C50.0943 0.521272 50.4027 0.761124 50.7282 1.03524C51.0366 1.32649 51.3964 1.56634 51.4992 1.56634C52.3215 1.652 52.9726 1.15517 52.9726 0.418479C52.9726 -0.146885 52.6299 -0.0954887 52.0988 0.538404L51.6534 1.08664L51.0709 0.675462C50.7454 0.452743 50.4712 0.212892 50.437 0.127231C50.3171 -0.112621 49.4262 0.00730479 49.1521 0.315685Z" fill="white"/>
<path d="M3.03299 2.2348C2.8788 2.49179 3.10152 2.74877 3.4613 2.74877C3.64975 2.74877 3.87247 2.88583 3.95813 3.05715C4.18085 3.46832 4.19798 10.287 3.9924 10.8523C3.8896 11.1093 3.66688 11.3149 3.42703 11.3492C3.20431 11.3834 3.03299 11.4691 3.03299 11.5719C3.03299 11.6747 4.24938 11.7603 6.25385 11.7946L9.47471 11.8289L9.42332 10.8523C9.38905 10.0985 9.30339 9.85865 9.11494 9.85865C8.97788 9.85865 8.84082 10.03 8.80656 10.2184C8.68663 11.0236 8.22406 11.195 6.63076 11.0579C5.82555 10.9894 5.17452 10.8866 5.15739 10.8352C5.14026 10.6125 5.14026 8.81358 5.15739 8.17969L5.17452 7.5458H6.69929C8.25832 7.5458 8.51531 7.46014 8.32685 6.9633C8.24119 6.74058 7.93281 6.68919 6.78495 6.68919C5.70562 6.68919 5.31158 6.62066 5.24305 6.44933C5.10599 6.07242 5.07173 3.63965 5.20879 3.26274C5.32871 2.95436 5.4829 2.92009 6.78495 2.92009C8.29259 2.92009 8.42965 2.98862 8.42965 3.81097C8.42965 4.05082 8.53244 4.13648 8.82369 4.08508C9.13207 4.05082 9.21773 3.91376 9.252 3.26274C9.33766 2.11488 9.18347 2.06348 5.92834 2.06348C4.24938 2.06348 3.10152 2.13201 3.03299 2.2348Z" fill="white"/>
<path d="M13.0045 2.30336C12.1651 2.61174 11.9081 2.85159 11.4969 3.62254C11.0857 4.44489 11.0857 4.80467 11.514 5.52422C11.8224 6.07245 12.7133 6.86054 13.0045 6.86054C13.0731 6.87767 13.45 7.01473 13.8269 7.20318C14.2038 7.39164 14.6321 7.5287 14.7863 7.54583C14.9576 7.54583 15.3174 7.81994 15.6258 8.17972C16.1055 8.71082 16.1569 8.89928 16.0883 9.48177C15.9684 10.3041 15.66 10.6468 14.8034 10.8866C14.1181 11.0922 12.8332 10.938 12.4392 10.6125C12.3021 10.5097 12.1308 10.1671 12.0623 9.87581C11.9595 9.51604 11.8053 9.32758 11.5483 9.29332C11.2228 9.24192 11.1714 9.31045 11.1714 9.91008C11.1714 12.0002 15.266 12.5827 16.6194 10.6639C17.8016 9.00207 16.8593 7.34024 14.1524 6.32944C13.0217 5.90113 12.1993 5.18158 12.1993 4.61621C12.1993 4.41063 12.3535 3.99945 12.542 3.69107C12.7989 3.26277 13.0388 3.10858 13.5699 3.02292C14.8206 2.81733 15.8999 3.2285 16.0541 3.96519C16.1911 4.58195 16.6023 4.61621 16.7565 4.01659C17.1163 2.62887 14.9233 1.61807 13.0045 2.30336Z" fill="white"/>
<path d="M18.7425 2.20054C18.5883 2.30333 18.5369 2.64598 18.5712 3.27987C18.6054 3.99942 18.6911 4.22214 18.931 4.25641C19.1365 4.3078 19.2222 4.20501 19.2222 3.89663C19.2222 3.00575 19.3421 2.92009 20.5928 2.92009C21.2438 2.92009 21.8263 3.00575 21.8777 3.10855C22.0319 3.33127 22.0319 10.7324 21.8777 10.9722C21.8263 11.0579 21.6379 11.1436 21.4665 11.1436C21.1068 11.1436 20.7127 11.5376 20.884 11.7089C20.9354 11.7775 21.7235 11.8289 22.5973 11.8289C24.0535 11.8289 24.2077 11.7946 24.1563 11.5205C24.122 11.3663 23.9336 11.2121 23.7109 11.1778C23.5053 11.1436 23.2483 10.9722 23.1626 10.7838C22.9228 10.3384 22.957 3.43406 23.1969 3.14281C23.4367 2.85156 25.1157 2.85156 25.3555 3.12568C25.4412 3.2456 25.5611 3.53685 25.5954 3.7767C25.6297 4.06795 25.7496 4.20501 25.9894 4.20501C26.2978 4.20501 26.3321 4.08508 26.3321 3.17708V2.14914L22.6487 2.11488C20.6271 2.08061 18.8624 2.13201 18.7425 2.20054Z" fill="white"/>
<path d="M30.5301 2.40582C30.3416 2.59427 30.1874 2.91978 30.1874 3.1425C30.1874 3.36522 30.1189 3.60507 30.0332 3.69074C29.9304 3.79353 29.6734 4.44455 29.4336 5.14698C28.5256 7.9224 27.5662 10.5608 27.3949 10.7664C27.3092 10.8691 27.0351 11.0747 26.7781 11.1947C25.9729 11.5716 26.2984 11.7429 27.926 11.7943C29.2623 11.8286 29.5021 11.7943 29.5021 11.5716C29.5021 11.4345 29.3137 11.2289 29.0738 11.1433C28.5598 10.9548 28.5427 10.6464 28.971 9.5157L29.2965 8.65909L30.907 8.60769C32.7058 8.55629 32.7058 8.55629 33.1684 9.75555C33.4939 10.595 33.4083 11.1433 32.9286 11.1433C32.6202 11.1433 32.3461 11.5373 32.5345 11.7258C32.6887 11.8799 35.4641 11.8457 35.5669 11.6915C35.704 11.4688 35.4127 11.1261 35.053 11.0747C34.6247 11.0062 34.2991 10.338 33.4425 7.71681C33.0485 6.53469 32.6887 5.45536 32.6373 5.3183C32.5688 5.18124 32.3289 4.46169 32.072 3.70787C31.4895 2.02891 31.1639 1.77192 30.5301 2.40582ZM31.558 5.18124C31.7636 5.86653 32.0206 6.60322 32.1062 6.79167C32.466 7.57975 32.2604 7.78534 30.9926 7.80247C29.9647 7.80247 29.8276 7.76821 29.742 7.45983C29.6906 7.27137 29.7762 6.82594 29.9304 6.48329C30.0675 6.12351 30.1874 5.72947 30.1874 5.60955C30.1874 5.19837 30.8898 3.75926 31.0269 3.86206C31.1125 3.89632 31.3524 4.49595 31.558 5.18124Z" fill="white"/>
<path d="M39.6614 2.38864C37.9995 3.0054 36.9031 4.20466 36.4405 5.90075C36.1321 6.99722 36.1492 7.01435 36.5433 8.265C36.8688 9.29294 37.1087 9.66985 37.8625 10.4065C38.3593 10.9034 38.839 11.3145 38.9418 11.3145C39.0446 11.3145 39.49 11.4859 39.9697 11.6743C40.8092 12.0341 40.8092 12.0512 40.7064 12.7023C40.6036 13.319 40.6379 13.3704 41.0833 13.5589L41.5802 13.7473L40.9805 13.9358C40.2096 14.1928 40.2781 14.4669 41.1347 14.5354C41.7001 14.5868 41.8714 14.5183 42.0941 14.1585C42.4025 13.6959 42.2483 13.1477 41.7515 12.9592C41.4088 12.8393 41.4774 12.1712 41.8372 11.9998C41.9742 11.9313 42.5396 11.7428 43.0707 11.5887C44.2699 11.246 44.9724 10.5093 44.8867 9.70411C44.8182 8.96742 44.3899 9.01882 44.0301 9.8069C43.6703 10.5607 43.6018 10.6121 42.3683 10.9034C41.5459 11.0918 41.2204 11.0918 40.398 10.9034C36.8345 10.0639 36.0979 5.33539 39.2502 3.48511C39.9012 3.1082 40.2439 3.02254 41.3575 3.02254C42.8822 3.0054 43.5161 3.33092 43.756 4.25606C43.9102 4.83855 44.3385 4.99274 44.5269 4.53017C44.5783 4.39312 44.544 3.96481 44.4241 3.60503C44.2699 3.07393 44.0815 2.88548 43.4133 2.5771C42.2826 2.046 40.7921 1.96034 39.6614 2.38864Z" fill="white"/>
<path d="M50.4542 2.20054C50.3514 2.26907 50.1115 2.78303 49.906 3.3484C49.7175 3.91376 49.3063 5.02736 49.0151 5.83257C48.7238 6.63779 48.3812 7.63146 48.2441 8.05976C48.1071 8.48807 47.9357 8.98491 47.833 9.17336C47.7473 9.36181 47.5588 9.80725 47.4218 10.1499C47.2676 10.5611 46.9763 10.8866 46.6851 11.0065C46.154 11.2464 45.9313 11.4862 46.0512 11.6918C46.1026 11.7603 46.8393 11.8289 47.6788 11.8289C49.0322 11.8289 49.2207 11.7946 49.1693 11.5547C49.135 11.4006 48.9637 11.1778 48.7752 11.075C48.5868 10.9722 48.3983 10.8695 48.3641 10.8523C48.3298 10.8181 48.4326 10.3384 48.6039 9.79012C48.9637 8.608 49.0151 8.57373 51.0367 8.57373C52.5614 8.57373 52.887 8.72792 53.0754 9.5674C53.1268 9.82438 53.2296 10.1499 53.2981 10.287C53.4866 10.681 53.3153 11.1778 53.0412 11.075C52.9212 11.0236 52.7328 11.1436 52.63 11.332C52.373 11.7946 52.6128 11.8631 54.2747 11.7946C55.3369 11.7603 55.6281 11.6918 55.6281 11.4862C55.6281 11.3492 55.4568 11.2121 55.2512 11.1778C54.8572 11.1264 54.1719 10.3212 54.1719 9.92718C54.1719 9.72159 53.7607 8.57373 53.2981 7.46014C53.2125 7.27168 52.9898 6.62066 52.7842 6.00389C52.5957 5.38713 52.3216 4.65045 52.1845 4.34207C52.0475 4.05082 51.9447 3.72531 51.9447 3.62251C51.9447 3.50259 51.7905 3.10855 51.602 2.74877C51.2594 2.08061 50.8996 1.90929 50.4542 2.20054ZM51.7562 5.76404C52.0989 6.77485 52.2531 7.47727 52.1503 7.58006C51.9276 7.80278 49.8717 7.90557 49.6147 7.69999C49.4091 7.52866 49.4091 7.51153 49.9916 5.74691C50.4713 4.29067 50.5741 4.11935 50.8825 4.11935C51.1566 4.11935 51.3279 4.46199 51.7562 5.76404Z" fill="white"/>
<path d="M59.1584 2.37186C57.942 2.83443 56.5543 4.23927 56.1602 5.37C55.1323 8.40241 57.4965 11.8289 60.6146 11.8289C62.5848 11.8289 64.3666 10.7153 65.1204 8.98491C65.6515 7.80278 65.6172 5.91823 65.069 4.82177C63.9725 2.69737 61.2314 1.54951 59.1584 2.37186ZM61.5397 3.09141C62.5848 3.297 63.4243 3.86236 64.0411 4.80464C64.6749 5.76404 64.7435 7.5458 64.1781 8.69366C63.7498 9.58453 63.2016 10.287 62.9446 10.287C62.8589 10.287 62.6876 10.3897 62.5848 10.5268C62.3964 10.7667 61.2485 11.0408 60.5975 11.0065C59.2098 10.9551 57.8392 9.97858 57.2396 8.608C56.8112 7.61433 56.8112 6.10669 57.2396 5.21581C57.9077 3.84523 58.7643 3.2456 60.5289 2.93722C60.5975 2.92009 61.0429 3.00575 61.5397 3.09141Z" fill="white"/>
<path d="M75.126 13.8676C74.2694 14.8099 74.1837 15.084 74.7491 15.084C74.9375 15.084 75.2459 14.9127 75.4173 14.6899L75.7256 14.313L76.2739 14.7071C76.5651 14.9298 76.9249 15.0669 77.0619 15.0155C77.2675 14.9298 77.2161 14.7927 76.8564 14.2274C76.4966 13.6963 76.291 13.5421 75.9141 13.5421C75.64 13.5421 75.2802 13.6963 75.126 13.8676Z" fill="white"/>
<path d="M5.19101 16.2827C3.76903 17.0708 3.1694 17.876 2.6897 19.6406C2.39845 20.6343 2.41558 20.72 2.7411 21.9021C3.56344 24.7803 6.56159 26.1851 9.62826 25.1229C11.1359 24.5918 11.4443 24.1635 11.3929 22.5874C11.3586 21.8164 11.273 21.3196 11.1359 21.2168C10.8275 21.0283 9.40554 21.0455 8.87444 21.2511C8.15488 21.5252 8.49753 21.9192 9.50833 21.9706C10.2793 22.022 10.4163 22.0734 10.5534 22.4674C10.9474 23.581 10.1422 24.3863 8.44613 24.5747C6.81857 24.7632 5.20814 24.2835 4.45432 23.3926C3.88896 22.7244 3.40925 21.1311 3.51205 20.2574C3.83756 17.6875 5.99622 16.1456 8.53179 16.6767C9.81671 16.9509 9.93664 17.0194 10.3135 17.9274C10.6562 18.7155 10.896 18.8697 11.0674 18.4071C11.2558 17.9103 11.1702 17.4134 10.8104 16.8823C10.2964 16.1456 9.16569 15.7687 7.46959 15.7687C6.28747 15.7687 5.99622 15.8373 5.19101 16.2827Z" fill="white"/>
<path d="M16.4635 16.2316C16.3607 16.5057 16.1038 17.1739 15.881 17.7392C15.3842 19.0241 14.6304 21.1485 14.3905 21.9366C14.3049 22.2621 14.1507 22.6048 14.065 22.6904C13.9794 22.7932 13.9108 22.9817 13.9108 23.1359C13.9108 23.6498 13.2769 24.5921 12.8658 24.6778C12.6088 24.7463 12.4546 24.9005 12.4546 25.1061C12.4546 25.4145 12.5745 25.4487 13.9108 25.4487C15.2471 25.4487 15.3671 25.4145 15.3671 25.1061C15.3671 24.8834 15.23 24.7463 14.9902 24.712C14.5105 24.6435 14.4933 24.3523 14.9045 23.2215L15.2129 22.3649L16.9775 22.3135C18.9134 22.2621 19.1362 22.3478 19.3246 23.1873C19.376 23.4957 19.4959 23.8212 19.5816 23.924C19.8215 24.2152 19.5816 24.6778 19.1876 24.6778C18.9477 24.6778 18.862 24.7806 18.9134 25.0547C18.9648 25.4316 19.0505 25.4487 20.3697 25.4487C21.1406 25.4487 21.8088 25.3973 21.8602 25.3459C22.0658 25.1575 21.7574 24.6778 21.449 24.6778C21.1406 24.6778 20.4211 23.8554 20.4211 23.5128C20.4211 23.3757 19.7358 21.4398 18.9648 19.3668C17.5429 15.5806 17.6285 15.769 17.1317 15.769C16.7548 15.769 16.6006 15.8889 16.4635 16.2316ZM17.2345 17.8591C17.6457 18.5102 18.3823 20.8402 18.2624 21.1485C18.1254 21.5254 16.001 21.5597 15.8639 21.1828C15.744 20.8916 16.6691 17.4822 16.8576 17.4822C16.9261 17.4822 17.0974 17.6536 17.2345 17.8591Z" fill="white"/>
<path d="M24.2942 16.112C22.7009 17.1228 22.8037 19.4699 24.4826 20.2922C24.8424 20.4635 25.3221 20.7034 25.5619 20.8233C25.8018 20.9432 26.1958 21.0803 26.4357 21.1488C27.1724 21.3202 27.9605 22.1596 27.9605 22.7935C27.9605 23.7872 27.5493 24.284 26.5556 24.5068C25.048 24.8494 23.6774 24.3183 23.6774 23.3932C23.6774 22.9135 23.4718 22.7421 23.0778 22.8963C22.8551 22.982 22.8208 23.1362 22.9064 23.633C23.112 24.7123 23.883 25.2777 25.4249 25.4662C27.8063 25.7403 29.6566 23.7358 28.7143 21.9027C28.2346 20.9775 27.6692 20.5835 25.7504 19.8639C25.442 19.744 24.9452 19.4699 24.6882 19.23C24.277 18.9045 24.1914 18.6818 24.1914 18.0993C24.1914 17.2427 24.534 16.8315 25.4592 16.6259C26.4186 16.4203 27.3951 16.7801 27.7549 17.4825C28.1489 18.2364 28.3888 18.1678 28.3888 17.2769C28.3888 16.6088 28.3374 16.5231 27.7035 16.1634C26.8126 15.6665 25.048 15.6323 24.2942 16.112Z" fill="white"/>
<path d="M30.3073 15.8718C30.1531 16.026 30.1531 17.7221 30.2902 17.8763C30.5129 18.0819 31.044 17.6364 31.044 17.2595C31.044 17.0368 31.1297 16.7798 31.2496 16.6599C31.5066 16.4029 33.2027 16.3858 33.374 16.6428C33.5111 16.8826 33.4597 24.3865 33.3055 24.5236C33.2369 24.5921 33.0314 24.6778 32.8429 24.712C32.6373 24.7463 32.5003 24.9005 32.5003 25.1061C32.5003 25.4145 32.6202 25.4487 34.0422 25.4487C35.4641 25.4487 35.5841 25.4316 35.5841 25.1061C35.5841 24.8662 35.447 24.7463 35.1386 24.712C34.8302 24.6778 34.6418 24.5236 34.5733 24.2837C34.5219 24.0782 34.4705 22.3649 34.4705 20.4632C34.4705 17.9448 34.5219 16.9511 34.6932 16.7284C34.8645 16.4886 35.1215 16.4543 36.0124 16.4886L37.126 16.54L37.2116 17.1396C37.2802 17.6022 37.3829 17.7392 37.6399 17.7392C37.9483 17.7392 37.9826 17.6193 37.9826 16.7969V15.8547L34.1964 15.8033C32.1233 15.7861 30.3759 15.8204 30.3073 15.8718Z" fill="white"/>
<path d="M39.5244 15.9404C39.473 16.0432 39.5587 16.1631 39.73 16.2145C40.5695 16.4715 40.5523 16.3516 40.6037 20.3948C40.638 24.3352 40.5866 24.6778 39.9527 24.6778C39.6272 24.6778 39.3702 25.1061 39.5415 25.3802C39.6615 25.5858 42.3684 25.5687 42.6767 25.3802C43.0022 25.1747 42.6596 24.7292 42.1285 24.6436C41.7687 24.5922 41.7516 24.5065 41.7516 23.0503V21.5084L42.4711 21.457C42.8652 21.4227 43.3449 21.4741 43.5162 21.5769C43.6875 21.6797 44.133 22.3307 44.5099 23.0503C45.6235 25.2089 46.2574 25.8257 46.9769 25.3631C47.1825 25.2261 47.1482 25.1061 46.7028 24.6436C46.1546 24.0611 44.7497 21.7653 44.7497 21.4398C44.7497 21.337 44.9039 21.1828 45.0924 21.08C45.2808 20.9773 45.6749 20.5832 45.949 20.1892C46.8741 18.9214 46.5657 16.8655 45.3494 16.1117C44.8525 15.8033 44.5099 15.7691 42.2142 15.7691C40.6723 15.7691 39.5929 15.8376 39.5244 15.9404ZM44.8697 16.8998C45.298 17.2253 45.3494 17.3795 45.4008 18.4074C45.4522 19.4696 45.4179 19.5724 44.9382 20.0521C44.4585 20.5318 44.3557 20.5661 43.0536 20.5661H41.6659V18.6301C41.6659 17.5508 41.7173 16.6257 41.803 16.5571C41.8715 16.4886 42.4711 16.4543 43.1564 16.4886C44.0644 16.5229 44.5099 16.6428 44.8697 16.8998Z" fill="white"/>
<path d="M51.6714 16.0945C50.8148 16.4885 49.5299 17.7049 49.1187 18.5102C48.9645 18.8357 48.7932 19.5724 48.7418 20.1377C48.5191 22.7761 50.4208 25.0375 53.1962 25.4487C54.9094 25.7057 56.9824 24.4208 57.8219 22.6048C58.5072 21.1485 58.5586 20.4461 58.1132 19.1098C57.8219 18.2532 57.5307 17.7735 56.8968 17.1224C56.4171 16.6599 55.9031 16.283 55.7318 16.283C55.5776 16.283 55.2863 16.163 55.0979 16.026C54.6182 15.6662 52.5452 15.7005 51.6714 16.0945ZM54.6524 16.7455C55.4919 16.8997 56.7768 18.1332 57.1366 19.1269C57.7534 20.8573 57.2737 22.6733 55.9202 23.7012C54.4983 24.7806 52.8193 24.9005 51.4658 24.0267C49.8554 23.0159 49.2044 20.3947 50.1124 18.6643C50.5921 17.7735 51.7914 16.7969 52.4252 16.7969C52.6822 16.7969 53.0077 16.7113 53.1448 16.6256C53.2819 16.5228 53.556 16.4885 53.7444 16.5399C53.9329 16.5913 54.3441 16.677 54.6524 16.7455Z" fill="white"/>
<path d="M60.0838 15.9232C59.981 16.1117 60.6834 16.6428 60.8718 16.5229C61.146 16.3515 61.2145 17.2767 61.1631 20.9087C61.1117 24.5408 61.1117 24.5922 60.7348 24.6436C60.2037 24.7292 59.861 25.1747 60.1866 25.3802C60.4949 25.5687 63.2018 25.5858 63.3218 25.3802C63.5102 25.089 63.219 24.6778 62.8249 24.6778C62.6022 24.6778 62.3795 24.5579 62.3281 24.4037C62.1568 23.9754 62.2082 18.4417 62.3966 18.1676C62.4823 18.0305 62.5851 17.962 62.6193 17.9962C62.962 18.4588 65.1206 21.5598 66.8853 24.181C67.6905 25.3802 67.9475 25.5858 68.3929 25.4488C68.7184 25.346 68.7355 25.2261 68.7355 21.2342C68.7355 17.0026 68.8212 16.4543 69.4037 16.4543C69.7977 16.4543 70.0205 15.9575 69.6949 15.8376C69.3009 15.6834 66.594 15.8547 66.6283 16.026C66.6625 16.2145 66.9024 16.3687 67.4164 16.5229C67.6733 16.6085 67.7076 16.9169 67.7076 19.9322C67.7076 21.7653 67.6562 23.2901 67.6048 23.3586C67.4849 23.4786 67.0566 22.8961 63.099 17.0882L62.191 15.7691H61.1974C60.632 15.7691 60.1523 15.8376 60.0838 15.9232Z" fill="white"/>
<path d="M73.822 16.1288C72.9483 16.5914 71.9203 17.6365 71.4578 18.5445C70.9267 19.5895 70.9095 21.3884 71.4406 22.4849C71.9717 23.6327 72.7084 24.3866 73.822 24.9519C76.3233 26.2197 79.3386 24.9348 80.3494 22.1765C80.812 20.9258 80.812 20.3605 80.4351 19.1098C80.0582 17.9106 78.9274 16.6599 77.7282 16.1288C76.6317 15.6491 74.7472 15.632 73.822 16.1288ZM77.0772 16.7456C77.7796 16.8484 78.9274 17.9448 79.3729 18.9042C80.0924 20.4975 79.6299 22.5705 78.3107 23.667C76.9058 24.8491 75.1755 24.9348 73.7192 23.924C72.52 23.0845 72.0745 22.1594 72.0745 20.4804C72.0745 19.2812 72.1259 19.0242 72.5371 18.4074C72.7941 18.0134 73.2395 17.5165 73.5308 17.3109C74.1647 16.8655 75.5181 16.4715 76.1006 16.5743C76.3405 16.6257 76.7859 16.6942 77.0772 16.7456Z" fill="white"/>
<path d="M82.4748 16.0602C82.509 16.2316 82.6975 16.3857 82.9202 16.42C83.1258 16.4543 83.3657 16.6085 83.4513 16.7627C83.674 17.1738 83.3314 23.6156 83.0744 24.1638C82.9545 24.3865 82.6804 24.6264 82.4405 24.6777C82.1664 24.7463 82.0122 24.9005 82.0122 25.1061C82.0122 25.4144 82.1321 25.4487 83.5541 25.4487C84.9761 25.4487 85.096 25.4316 85.096 25.1061C85.096 24.8833 84.959 24.7463 84.702 24.712C84.4621 24.6777 84.2394 24.4722 84.1537 24.2323C83.931 23.6669 84.2908 19.658 84.6163 18.8528L84.8733 18.2532L85.0617 18.6815C85.1645 18.9213 85.4558 19.5895 85.7299 20.1891C85.9869 20.7887 86.2096 21.3198 86.2096 21.3884C86.2267 21.4569 86.3638 21.8167 86.5523 22.1936C86.7407 22.5705 86.8778 22.9645 86.8949 23.0673C86.8949 23.1701 87.0491 23.3928 87.2204 23.547C87.6316 23.9068 88.1798 23.6841 88.3683 23.1016C88.4368 22.8789 88.6938 22.245 88.9508 21.6796C89.2249 21.1142 89.6189 20.172 89.8245 19.5723C90.5955 17.5679 90.9552 18.493 91.058 22.6047L91.0923 24.575L90.664 24.6777C90.3899 24.7463 90.2357 24.9005 90.2357 25.1061C90.2357 25.4144 90.3727 25.4487 91.6063 25.5001C92.3601 25.5172 93.0796 25.4658 93.1996 25.3973C93.5251 25.1746 93.251 24.6777 92.7884 24.6777C92.3429 24.6777 92.2916 24.5578 92.1202 22.8789C91.8632 20.3776 91.7947 19.1954 91.7776 17.9105C91.7776 16.6085 91.7947 16.5571 92.2059 16.4543C92.4457 16.4029 92.6513 16.2144 92.6856 16.0602C92.737 15.8032 92.5828 15.769 91.6577 15.769H90.5612L89.7388 17.6878C88.0942 21.6111 87.82 22.1764 87.6658 22.2107C87.4774 22.2792 87.3232 21.9537 86.0383 18.8528C84.6848 15.5805 84.9247 15.8546 83.5712 15.8032C82.5262 15.7519 82.4234 15.7861 82.4748 16.0602Z" fill="white"/>
<path d="M95.0844 15.8719C94.8788 16.0604 95.1529 16.4544 95.4784 16.4544C95.6497 16.4544 95.8725 16.6086 95.9753 16.7799C96.1637 17.1397 96.2322 23.9412 96.0438 24.4038C95.9924 24.558 95.7697 24.6779 95.547 24.6779C95.1015 24.6779 94.8274 25.1747 95.1529 25.3975C95.4613 25.5859 97.8941 25.5688 98.1853 25.3803C98.5108 25.1747 98.1682 24.7293 97.6371 24.6436C97.2602 24.5922 97.2602 24.558 97.2088 20.6004C97.1745 16.917 97.1916 16.6086 97.4658 16.5229C97.9797 16.3688 98.2196 16.2146 98.2538 16.0261C98.2881 15.8377 95.2557 15.6835 95.0844 15.8719Z" fill="white"/>
<path d="M102.691 16.1459C101.749 16.5742 100.773 17.5507 100.293 18.5273C100.019 19.1098 99.916 19.6237 99.916 20.5489C99.916 21.6282 99.9845 21.9537 100.464 22.8275C100.995 23.8383 101.715 24.5407 102.828 25.106C103.685 25.5515 105.895 25.5343 106.94 25.0718C107.883 24.6435 108.122 24.3694 108.259 23.5984C108.328 23.1187 108.277 22.9645 108.002 22.8103C107.626 22.6219 107.454 22.8275 107.454 23.4785C107.454 24.5235 104.319 24.9861 102.863 24.1638C102.434 23.9239 101.886 23.3928 101.544 22.8617C100.995 22.0565 100.944 21.868 100.927 20.6174C100.91 19.4524 100.961 19.1269 101.321 18.493C101.972 17.328 103.051 16.7112 104.799 16.5399C104.901 16.5228 105.158 16.5742 105.398 16.6427C105.638 16.7112 106.049 16.814 106.306 16.8654C106.666 16.9511 106.872 17.1738 107.112 17.7563C107.523 18.6815 107.865 18.6643 107.934 17.722C107.968 17.1909 107.9 16.9682 107.591 16.6941C106.546 15.7518 104.131 15.4777 102.691 16.1459Z" fill="white"/>
<path d="M113.211 16.5743C112.8 17.705 112.44 18.6644 112.149 19.3326C112.012 19.6409 111.909 19.9664 111.909 20.0692C111.909 20.172 111.806 20.4975 111.669 20.7888C111.532 21.0972 111.343 21.6111 111.241 21.9367C110.744 23.7013 110.178 24.6778 109.699 24.6778C109.373 24.6778 109.065 25.1575 109.27 25.346C109.322 25.3974 109.99 25.4488 110.761 25.4488C112.08 25.4488 112.166 25.4316 112.217 25.0547C112.269 24.7806 112.183 24.6778 111.943 24.6778C111.446 24.6778 111.395 24.3352 111.738 23.2901L112.046 22.365L112.885 22.2793C113.331 22.2279 114.205 22.2279 114.821 22.2793L115.918 22.365L116.226 23.2216C116.62 24.3352 116.62 24.6778 116.209 24.6778C115.866 24.6778 115.609 25.1061 115.781 25.3802C115.901 25.5858 118.265 25.5858 118.573 25.3802C118.899 25.1746 118.676 24.6778 118.265 24.6778C117.905 24.6778 117.46 24.0953 117.288 23.3758C117.22 23.1188 117.066 22.7076 116.946 22.4678C116.809 22.2279 116.706 21.8853 116.706 21.7139C116.706 21.5255 116.603 21.1828 116.466 20.943C116.329 20.686 115.849 19.4353 115.37 18.1676C114.564 15.9404 114.513 15.8547 114.016 15.8033C113.536 15.7519 113.485 15.8204 113.211 16.5743ZM114.77 19.3497C114.993 19.9664 115.147 20.6689 115.13 20.9087C115.078 21.3028 115.01 21.337 114.05 21.3884C112.526 21.4398 112.474 21.3884 112.988 19.6923C113.228 18.9042 113.468 18.0305 113.536 17.7393L113.656 17.2253L114.016 17.7221C114.205 17.9962 114.547 18.7158 114.77 19.3497Z" fill="white"/>
<path d="M227.105 19.7265C226.779 20.0863 226.779 20.9086 226.762 54.7277C226.745 83.7154 226.779 89.4204 226.985 89.8145L227.225 90.2942H232.604C237.264 90.2942 238.018 90.2599 238.241 90.0201C238.481 89.7802 238.515 88.7523 238.515 81.2141C238.515 76.0744 238.583 72.4938 238.686 72.2368C238.977 71.4316 239.44 71.6886 240.811 73.3675C241.496 74.2413 242.25 75.1493 242.472 75.3891C242.695 75.629 243.158 76.1772 243.466 76.5884C243.792 77.0167 244.34 77.6677 244.665 78.0618C245.008 78.4387 245.779 79.3638 246.396 80.1176C247.012 80.8543 247.681 81.6595 247.869 81.8994C248.503 82.6361 251.261 85.9769 251.535 86.3195C251.775 86.645 252.563 87.5702 254.002 89.2491C254.362 89.6774 254.773 90.0886 254.893 90.1743C255.013 90.2428 258.251 90.2771 262.106 90.2599L269.096 90.2085L269.147 89.6774C269.182 89.3862 269.096 89.0264 268.976 88.9065C268.839 88.7694 267.965 87.6901 267.023 86.508C266.081 85.3258 265.207 84.2465 265.104 84.1095C264.984 83.9724 264.676 83.5955 264.419 83.2528C264.162 82.9102 262.877 81.2998 261.558 79.6551C260.239 78.0104 259.108 76.5884 259.039 76.5027C258.868 76.28 257.12 74.1214 256.487 73.3333C256.23 73.0078 255.596 72.2368 255.099 71.6029C254.602 70.9862 254.002 70.2323 253.763 69.924C253.523 69.6327 253.197 69.2044 253.009 68.9988C252.837 68.7932 252.238 68.0394 251.69 67.337C251.141 66.6346 250.113 65.3325 249.411 64.4416C248.332 63.0711 248.16 62.7627 248.28 62.4372C248.366 62.2144 249.223 61.0666 250.199 59.8673C251.176 58.6852 252.461 57.0748 253.077 56.2867C254.79 54.128 256.332 52.2092 256.641 51.8323C256.863 51.5753 258.936 48.937 260.153 47.3779C260.221 47.2751 260.598 46.864 260.975 46.4357C261.352 46.0074 261.798 45.4762 261.952 45.2364C262.106 44.9965 262.74 44.1913 263.357 43.4204C265.464 40.8163 265.669 40.5593 266.44 39.5828C266.869 39.0517 267.657 38.058 268.205 37.3898C269.319 36.0021 269.456 35.4025 268.736 35.1284C268.137 34.8885 256.127 34.9228 255.219 35.1455C254.636 35.2997 254.379 35.5396 253.506 36.7045C252.94 37.4584 252.323 38.2464 252.135 38.4349C251.929 38.6405 251.364 39.3429 250.85 40.0111C250.336 40.6621 249.874 41.2446 249.822 41.296C249.771 41.3474 249.154 42.1183 248.452 43.0092C247.766 43.9001 247.15 44.671 247.081 44.7224C247.03 44.7738 246.344 45.6133 245.556 46.607C244.785 47.6006 243.963 48.6286 243.74 48.9198C243.5 49.1939 242.49 50.4789 241.479 51.7467C240.451 53.0144 239.474 54.0766 239.303 54.1109C238.498 54.2651 238.515 54.5906 238.515 36.8073C238.515 20.2747 238.515 20.052 238.172 19.7094C237.847 19.3839 237.607 19.3667 232.639 19.3667C227.567 19.3667 227.43 19.3839 227.105 19.7265Z" fill="white"/>
<path d="M133.581 32.113C133.496 32.1472 132.605 32.2672 131.611 32.3871C129.35 32.6269 126.197 33.3465 124.844 33.929C124.655 34.0147 124.073 34.2545 123.559 34.4772C119.978 35.9506 116.672 38.2463 113.794 41.2445C112.903 42.1696 111.943 43.2832 111.652 43.6944C111.378 44.1227 111.104 44.4996 111.052 44.551C110.967 44.6195 110.127 45.9387 109.562 46.8638C109.374 47.1894 108.945 48.0288 108.037 49.9134C107.832 50.3588 107.592 50.9756 107.523 51.284C107.472 51.5923 107.301 51.9864 107.181 52.1748C107.044 52.3633 106.941 52.6545 106.941 52.843C106.941 53.0314 106.838 53.494 106.701 53.8881C106.05 55.7555 105.827 57.7771 105.827 61.5119C105.844 65.1611 105.913 65.8121 106.615 68.6218C106.718 68.9987 106.855 69.5983 106.924 69.9581C107.009 70.3179 107.163 70.7119 107.266 70.8147C107.369 70.9175 107.455 71.1402 107.455 71.2944C107.455 71.7399 108.911 74.9436 109.682 76.16C109.905 76.5369 110.179 76.9823 110.282 77.1365C112.286 80.4944 116.175 84.2807 119.961 86.5421C123.165 88.4609 127.105 89.8829 130.412 90.3112C133.975 90.7567 135.312 90.8423 136.494 90.6539C137.162 90.5511 138.447 90.3969 139.372 90.2941C140.314 90.1913 141.205 90.0371 141.377 89.9514C141.548 89.8486 141.856 89.7801 142.045 89.7801C142.764 89.7801 146.191 88.5123 146.379 88.1868C146.636 87.69 146.568 75.6974 146.294 75.5261C145.985 75.3205 145.42 75.4918 144.597 76.0572C143.724 76.6568 141.925 77.5477 140.88 77.8903C138.755 78.6442 137.522 78.8326 135.123 78.8497C131.782 78.8669 130.086 78.49 127.242 77.0851C124.981 75.9715 124.21 75.4062 122.394 73.5216C119.79 70.8147 118.436 68.1421 117.717 64.3387C117.306 62.1629 117.306 60.6724 117.717 58.5138C118.488 54.5048 119.893 51.8151 122.702 49.0225C125.204 46.5041 127.38 45.2877 131.012 44.3454C132.81 43.8828 136.905 43.8486 138.721 44.2769C140.212 44.6367 141.942 45.3048 143.347 46.0415C145.248 47.0523 147.63 49.1596 149.12 51.1469C150.474 52.9629 151.793 55.9782 152.221 58.2568C152.324 58.8221 152.427 65.1097 152.495 74.3097C152.547 82.6188 152.667 89.4717 152.735 89.5574C152.821 89.6259 155.271 89.7116 158.166 89.7458C163.306 89.7972 163.477 89.7801 163.82 89.4375C164.162 89.0948 164.162 88.9749 164.162 73.9671C164.145 65.6579 164.077 58.3082 163.991 57.6572C163.134 51.2154 160.136 45.1506 155.579 40.6277C153.677 38.7603 151.091 36.8415 148.898 35.6936C148.384 35.4195 147.835 35.1111 147.698 35.0255C147.39 34.837 146.876 34.6314 144.46 33.7919C142.199 33.021 140.606 32.6269 138.892 32.4556C138.241 32.3871 137.539 32.3014 137.35 32.2672C136.717 32.1644 133.753 32.0445 133.581 32.113Z" fill="white"/>
<path d="M195.257 32.336C193.543 32.5759 190.511 33.2097 190.031 33.4153C189.894 33.4839 189.243 33.7066 188.575 33.9293C185.097 35.06 179.82 38.4351 177.628 40.9193C177.422 41.142 176.977 41.6217 176.634 41.9986C175.829 42.8381 173.927 45.3394 173.927 45.545C173.927 45.6306 173.79 45.8876 173.601 46.1103C173.43 46.333 172.916 47.2582 172.471 48.1491C171.254 50.5647 171.186 50.7189 171.186 50.9759C171.186 51.1129 171.083 51.4727 170.946 51.7811C170.672 52.3807 170.346 53.4943 169.901 55.3446C169.61 56.4925 169.301 59.6448 169.301 61.4265C169.301 63.1398 169.61 66.3264 169.901 67.5085C170.329 69.3074 170.672 70.4724 170.946 71.072C171.083 71.3804 171.186 71.723 171.186 71.8258C171.186 71.9286 171.374 72.4083 171.597 72.888C171.82 73.3677 172.128 74.0359 172.282 74.3614C172.419 74.6869 172.779 75.3379 173.053 75.8176C173.344 76.2802 173.67 76.8627 173.79 77.1025C173.91 77.3424 174.064 77.5994 174.15 77.7022C174.218 77.7878 174.681 78.4046 175.178 79.0728C175.657 79.7238 176.977 81.18 178.09 82.2936C181.465 85.6515 185.645 88.1186 190.117 89.4206C190.785 89.6091 191.727 89.8832 192.241 90.0203C192.738 90.1744 193.509 90.2944 193.955 90.2944C194.383 90.2944 195.051 90.38 195.428 90.4657C197.021 90.8597 201.733 90.6199 204.765 90.0031C207.438 89.4549 211.224 87.9473 213.742 86.4225C215.181 85.5487 217.82 83.4757 219.19 82.1394C220.27 81.0772 220.527 80.7346 220.527 80.3234C220.527 79.878 220.03 79.2955 216.843 76.1431C214.102 73.4191 213.057 72.4768 212.749 72.4768C212.475 72.4768 211.875 72.9051 211.001 73.7104C208.894 75.612 208.209 76.1089 206.461 76.9655C203.326 78.5074 201.801 78.8672 198.477 78.8672C196.01 78.8672 194.143 78.5759 193.064 78.0277C192.79 77.8906 192.498 77.7878 192.413 77.7878C192.07 77.7878 189.123 76.2631 188.507 75.7662C186.656 74.31 185.577 73.2649 184.686 72.0828C183.538 70.5923 181.979 67.6969 181.979 67.0802C181.979 66.8917 181.911 66.6519 181.825 66.5491C181.551 66.275 181.123 63.9107 181.003 62.1118C180.848 59.4563 181.636 55.8757 182.853 53.6314C182.939 53.4943 183.178 53.0317 183.384 52.6206C183.607 52.1923 183.949 51.6612 184.155 51.4213C184.361 51.1815 184.909 50.4962 185.388 49.9308C185.851 49.3483 186.81 48.406 187.513 47.8407C188.712 46.8641 191.83 45.0653 192.327 45.0653C192.464 45.0653 192.79 44.9625 193.064 44.8254C194.314 44.2086 197.381 43.7975 199.711 43.9517C201.27 44.0545 204.028 44.637 204.337 44.9111C204.422 44.9967 204.611 45.0653 204.765 45.0653C205.519 45.0653 208.62 46.9669 210.162 48.3546C212.183 50.2049 212.389 50.3763 212.732 50.3763C212.954 50.3763 214.428 49.0399 216.809 46.6928C221.212 42.3412 221.109 42.5468 219.482 40.9535C218.899 40.371 217.837 39.4288 217.117 38.8463C216.398 38.2638 215.781 37.7498 215.73 37.6813C215.678 37.6299 215.267 37.3558 214.822 37.0816C214.359 36.8075 213.777 36.4477 213.537 36.2936C212.988 35.9509 209.613 34.2719 209.459 34.2719C209.408 34.2719 209.117 34.1692 208.825 34.0321C208.517 33.895 208.003 33.7066 207.677 33.6038C207.352 33.5181 206.855 33.3639 206.564 33.2611C203.874 32.3531 198.375 31.8906 195.257 32.336Z" fill="white"/>
<path d="M71.3913 34.289C70.0892 34.4432 68.3932 34.8543 67.9135 35.1113C67.725 35.2141 67.3995 35.2998 67.211 35.2998C67.0397 35.2998 66.6628 35.4026 66.3887 35.5396C66.1317 35.6767 65.258 36.0707 64.4527 36.4305C63.6475 36.8074 62.6881 37.3043 62.3112 37.5441C61.9343 37.784 61.1633 38.2808 60.598 38.6577C59.5187 39.3601 56.3663 42.3925 55.3384 43.6946C54.7559 44.4484 52.6315 47.892 52.6315 48.0804C52.6315 48.1318 52.5116 48.4231 52.3745 48.7143C52.0833 49.3482 51.6378 50.5817 51.4322 51.3184C51.3637 51.5925 51.2095 52.0551 51.1239 52.3464C51.0211 52.6205 50.8155 53.5114 50.6784 54.3166C50.4386 55.5844 50.4043 58.0343 50.4043 73.0078V90.26L50.9697 90.4999C51.7749 90.8596 61.2661 90.8254 61.8486 90.4656L62.2255 90.2086L62.2427 74.3613C62.2427 65.641 62.3112 57.9657 62.3969 57.3147C62.8423 53.46 64.4356 50.7017 67.5365 48.3545C70.0378 46.4529 72.5563 45.6648 75.6744 45.8018C78.2442 45.9046 78.741 46.0417 81.3109 47.3095C84.3261 48.8 86.7075 51.7467 87.804 55.3445C87.9239 55.7385 88.0267 61.6492 88.0781 72.9393L88.1809 89.9345L88.5749 90.3285C88.969 90.7226 88.969 90.7226 94.1772 90.7226C99.0599 90.7054 99.4025 90.6883 99.7452 90.3799L100.105 90.0544L100.054 72.3054L99.985 54.5736L99.4368 52.5691C98.2547 48.1661 96.2502 44.6197 93.115 41.416C91.8301 40.1139 89.7742 38.4521 88.5921 37.784C84.96 35.7452 82.4245 34.8029 79.0151 34.2718C77.8673 34.1005 72.8133 34.1005 71.3913 34.289Z" fill="white"/>
<path d="M284.258 35.1112C280.146 36.1563 276.617 38.9317 274.63 42.6666C273.156 45.4591 272.591 49.3481 273.259 52.2606C273.516 53.3913 274.064 54.9846 274.424 55.6014C276.343 58.9251 278.57 60.9981 281.791 62.4714C282.545 62.8141 283.847 63.4137 284.686 63.8249C285.543 64.236 286.622 64.7329 287.085 64.9385C287.565 65.1441 288.644 65.658 289.518 66.0692C290.374 66.4804 291.128 66.823 291.162 66.823C291.214 66.823 292.088 67.2171 293.098 67.6968C294.126 68.1765 295.548 68.8446 296.251 69.1701C296.953 69.5128 298.152 70.0781 298.906 70.4379C301.562 71.6886 302.949 72.3053 303.138 72.3053C303.241 72.3053 303.463 72.4081 303.6 72.5281C303.755 72.648 304.217 72.905 304.646 73.0763C306.016 73.6588 306.701 74.5668 306.701 75.8346C306.701 76.537 306.599 76.8454 306.17 77.4279C305.142 78.867 306.067 78.7985 290.083 78.8156C277.765 78.8327 275.915 78.867 275.692 79.0897C275.298 79.4837 275.212 89.0264 275.606 89.7802L275.88 90.2942H290.563C304.406 90.2942 305.314 90.2771 306.564 89.9687C309.511 89.2491 311.687 88.0156 313.948 85.8055C314.942 84.829 316.981 81.7281 316.981 81.1798C316.981 81.077 317.101 80.7687 317.221 80.4774C317.735 79.3638 318.231 75.9374 318.077 74.5325C317.717 70.969 316.552 68.4848 313.983 65.8293C312.338 64.099 311.67 63.6707 307.524 61.7005C306.513 61.2208 305.639 60.8267 305.588 60.8267C305.536 60.8267 304.783 60.4841 303.909 60.0729C303.052 59.6617 301.716 59.045 300.962 58.6852C300.208 58.3426 299.129 57.8457 298.564 57.5716C297.467 57.0576 294.435 55.6528 293.595 55.2588C293.321 55.1388 292.499 54.7619 291.796 54.4364C290.306 53.734 288.867 53.0658 286.828 52.1236C284.926 51.2498 284.429 50.6502 284.429 49.2111C284.429 48.0289 284.841 47.258 285.8 46.7098C286.383 46.35 286.657 46.35 300.876 46.2643L315.353 46.1787L315.405 40.7135C315.439 36.8245 315.387 35.1798 315.25 35.0256C315.079 34.82 312.578 34.7857 300.208 34.8029C287.016 34.82 285.252 34.8543 284.258 35.1112Z" fill="white"/>
<path d="M12.9695 35.1283C12.6954 35.1969 12.13 35.2654 11.7359 35.2825C11.3419 35.2825 10.7594 35.4025 10.451 35.5395C10.1426 35.6766 9.47449 35.9507 8.96052 36.1563C8.08678 36.516 6.49348 37.4069 6.09944 37.7838C5.99664 37.8695 5.51694 38.2635 5.05437 38.6404C3.5296 39.8397 0.719913 44.0542 0.719913 45.1164C0.719913 45.2878 0.634251 45.5961 0.531458 45.7846C0.377268 46.0587 0.0174907 48.9541 0.000358498 49.9477C-0.0167737 51.3526 0.582855 54.128 1.21675 55.5157C2.48453 58.274 5.58547 61.2893 8.60074 62.6598C8.8406 62.7798 9.73147 63.1909 10.571 63.585C11.4276 63.979 13.038 64.7157 14.1687 65.2297C15.2995 65.7437 16.8585 66.4632 17.6466 66.8401C18.4347 67.1999 19.1371 67.5083 19.2399 67.5083C19.3255 67.5083 19.3941 67.5768 19.3941 67.6796C19.3941 67.7653 19.514 67.8509 19.651 67.8509C19.8738 67.8509 22.101 68.8275 22.8205 69.2386C22.9576 69.3243 23.1974 69.4442 23.3345 69.4956C23.5915 69.5813 24.6708 70.0952 26.5896 70.9861C29.5363 72.3738 31.044 73.0591 31.6607 73.3332C32.9971 73.9157 33.9222 75.2692 33.6995 76.3142C33.6481 76.5541 33.5796 76.9481 33.5282 77.188C33.374 77.9247 32.3289 78.7642 31.4209 78.8841C30.9755 78.9355 24.4481 78.9869 16.927 78.9869C4.90018 78.9869 3.18696 79.0211 2.82718 79.2439L2.43314 79.5008V84.8118C2.43314 89.9858 2.43314 90.1228 2.79291 90.2942C3.16982 90.4997 30.7013 90.5683 32.6715 90.3627C35.2071 90.1057 38.2909 88.5981 40.6038 86.4565C41.8544 85.3087 43.3792 83.0301 43.996 81.3854C44.904 78.9869 44.9382 78.7984 44.9382 75.8688C44.9554 73.3675 44.904 72.8878 44.5613 71.8599C44.3557 71.2088 44.1159 70.5921 44.0645 70.5064C43.996 70.4036 43.876 70.1638 43.8075 69.9411C43.6019 69.2215 42.0429 67.1142 40.8608 65.915C39.336 64.3902 38.2738 63.6878 35.7554 62.5399C35.1043 62.2315 33.768 61.6148 32.8086 61.1522C31.8492 60.6896 31.0097 60.3127 30.9583 60.3127C30.9241 60.3127 30.0846 59.9358 29.1252 59.4904C28.1486 59.0278 27.0864 58.531 26.7609 58.3768C26.1099 58.1027 24.2767 57.2461 22.2209 56.2867C20.6447 55.55 18.5203 54.5734 17.5952 54.1451C17.2183 53.9738 16.0875 53.4427 15.0767 52.963C14.0659 52.4833 13.1922 52.0893 13.1237 52.0893C12.781 52.0893 11.6845 50.9757 11.5818 50.496C11.2562 49.1768 11.5989 47.909 12.4384 47.2237L13.0894 46.6926L27.4976 46.6412C41.6317 46.6069 41.9058 46.5898 42.2656 46.2643C42.6254 45.9216 42.6425 45.8189 42.6082 40.9876C42.574 38.2807 42.5569 35.9336 42.5397 35.7794C42.5397 35.608 42.2999 35.3682 42.0086 35.214C41.5632 34.9741 39.8328 34.957 27.4976 34.9741C19.7881 34.9913 13.2607 35.0598 12.9695 35.1283Z" fill="white"/>
<path d="M139.971 104.017C139.8 104.103 139.149 104.857 138.515 105.679C137.881 106.501 137.315 107.204 137.264 107.255C137.144 107.358 134.78 110.288 133.632 111.761C133.169 112.326 132.81 112.84 132.81 112.892C132.827 113.114 133.289 113.543 133.923 113.937C134.3 114.159 134.694 114.434 134.78 114.554C134.934 114.725 136.527 115.821 137.23 116.25C137.846 116.609 139.251 117.466 139.577 117.654C140.057 117.963 145.487 120.67 146.104 120.91C149.411 122.212 149.616 122.297 150.113 122.417C150.353 122.469 150.696 122.589 150.884 122.674C151.073 122.743 151.535 122.897 151.912 123C152.289 123.085 153.026 123.308 153.54 123.462C154.825 123.839 156.503 124.199 159.879 124.816C163.271 125.433 169.901 125.741 172.985 125.415C174.03 125.313 175.332 125.193 175.897 125.141C176.959 125.056 179.409 124.662 180.78 124.37C181.208 124.268 181.945 124.13 182.442 124.045C182.921 123.976 183.418 123.856 183.521 123.788C183.641 123.719 184.155 123.565 184.686 123.445C185.954 123.154 186.999 122.828 189.089 122.075C190.031 121.732 191.008 121.389 191.248 121.321C191.488 121.235 191.83 121.098 192.019 120.995C192.19 120.892 192.738 120.635 193.201 120.447C194.16 120.036 198.049 118.1 198.889 117.603C200.825 116.455 202.024 115.701 202.641 115.239C203.035 114.948 203.531 114.588 203.737 114.451C204.439 113.971 205.45 113.046 205.45 112.875C205.45 112.738 201.681 107.889 201.339 107.598C201.287 107.546 200.825 106.964 200.328 106.313C199.128 104.754 198.238 103.829 197.964 103.829C197.844 103.829 197.501 104.034 197.193 104.291C196.353 104.994 195.548 105.542 195.342 105.542C195.257 105.542 195.171 105.593 195.171 105.662C195.171 105.799 194.794 106.022 192.447 107.375C191.128 108.146 187.941 109.688 186.69 110.168C186.125 110.39 185.423 110.665 185.114 110.784C184.823 110.921 184.463 111.024 184.309 111.024C184.172 111.024 183.795 111.127 183.487 111.264C180.763 112.429 173.55 113.594 169.13 113.594C166.098 113.594 160.649 112.926 158.439 112.292C157.994 112.155 157.497 112.052 157.343 112.052C157.103 112.052 155.39 111.538 154.482 111.196C154.293 111.127 153.882 110.99 153.591 110.87C152.169 110.373 151.878 110.27 151.398 110.082C149.514 109.328 146.293 107.701 144.888 106.827C143.312 105.85 140.913 104.24 140.725 104.051C140.451 103.794 140.365 103.777 139.971 104.017Z" fill="white"/>
</svg>
