<svg xmlns="http://www.w3.org/2000/svg" width="897" height="730" fill="#000" xmlns:v="https://vecta.io/nano"><path d="M703.212.858c-6.267.533-14.267 1.6-18 2.267-13.867 2.533-21.467 4.133-24 5.2-1.467.533-6.8 2.4-12 4.133-8.134 2.667-15.6 5.733-28.667 11.733-1.867.933-4.533 2.4-6 3.2l-12 7.6c-14.267 8.933-28.267 20.133-40.4 32.267-12.8 12.667-29.333 34.133-36.4 47.2-7.333 13.6-10.533 19.866-10.533 21.2 0 .8-.934 3.2-2.134 5.466-6.266 12.134-14.666 44.667-15.866 62l-1.467 18.667c-1.2 13.067 4.8 60.533 8.533 67.6.934 1.6 1.6 4.133 1.6 5.733s.8 4.8 1.867 7.067c.933 2.4 3.2 7.6 4.8 11.6 3.467 8.667 11.2 24.4 14.8 30 1.333 2.133 3.067 5.333 3.867 7.067.666 1.733 2.266 4 3.333 5.066s4 5.2 6.533 8.934c4.667 7.066 25.334 28.933 36.8 38.933 5.867 5.2 24 18 28 19.733 1.067.534 3.867 2.134 6 3.467 11.2 7.333 39.467 18.933 52 21.467 2.934.666 6.8 1.733 8.667 2.4s7.2 1.733 12 2.266 11.2 1.467 14.4 2.134c14.933 3.2 58.533.533 78.267-4.8 15.333-4.134 26.8-7.734 27.866-8.8.8-.667 2.267-1.2 3.334-1.2 2.4 0 25.066-11.334 36.8-18.4 21.466-12.8 51.333-40 51.333-46.667 0-2.533-6.267-9.6-26.933-30.533-14.934-14.934-28.667-28-30.667-28.934-4.8-2.4-8.267-.533-20.4 10.934-14.4 13.733-17.467 16-34.667 24.266-15.466 7.467-20.8 9.2-36.666 12.134-8.934 1.733-48.4.8-54-1.2-2.134-.8-7.334-2.534-11.334-3.734-26.8-7.866-54.933-29.2-71.333-53.6-4-6.133-7.333-11.333-7.333-11.733 0-.267-1.6-3.733-3.467-7.6-11.733-23.733-16-60.133-10-84.533 3.067-11.867 6-21.6 7.867-25.2l3.6-7.867c7.6-16.4 25.066-37.467 40.666-49.2 15.067-11.2 35.2-20.8 49.334-23.467 3.333-.667 8.133-1.867 10.666-2.533 5.467-1.733 35.734-1.867 43.334-.267 2.933.667 8.666 1.867 12.666 2.667s7.867 2.133 8.534 2.8c.8.8 2.133 1.333 3.2 1.333 1.866 0 11.866 4.134 18.266 7.6 10.8 5.867 22.4 14.4 33.067 24.4 10.933 10.4 12 10.934 15.733 9.867 5.467-1.6 59.867-56.133 59.867-60 0-8.533-38.533-41.2-64.533-54.4-4.934-2.533-9.734-5.2-10.534-5.867-.933-.667-2.8-1.6-4.266-2-4-1.067-14.267-4.8-17.334-6.267-3.866-1.6-15.6-4.933-28.666-7.867-18-4.133-46.934-5.733-68-3.733zm-506.001.8c-12.8 1.333-37.6 7.333-47.066 11.6-2.4.933-5.2 1.867-6.134 1.867-1.066 0-9.6 3.867-18.933 8.667-36.4 18.4-64.933 43.467-87.733 77.467-7.467 11.066-18.933 31.866-20.8 37.866-.667 1.867-2.4 6.667-4 10.667s-3.733 10.267-4.667 14c-7.067 26.133-8 34.133-7.867 66.667 0 32.666 2.133 46.266 11.2 72.666 1.6 4.4 2.533 6.8 7.6 18.667 6.4 15.067 20.4 38 30.533 50.267 14.8 17.6 36.133 36.8 53.2 47.733 10.133 6.4 37.6 20.667 40 20.667.933 0 3.466.8 5.6 1.866 5.733 2.8 12.4 4.934 19.333 6.134 3.467.666 7.333 1.733 8.667 2.4s6.4 1.733 11.333 2.133c4.933.533 10.933 1.467 13.333 2.267 5.734 1.6 46.267 1.6 52.8 0 2.667-.667 8.534-1.6 12.934-2.134 8.4-.933 13.333-2.266 34.4-8.933 8.267-2.667 13.867-5.2 15.067-6.933 2.533-3.734 2.8-95.334.266-97.867-2.133-2.133-7.066-2-9.333.133-9.067 8.667-33.334 19.067-55.067 23.6-7.2 1.467-42.8 1.6-49.333 0-18.267-4.133-20.934-5.066-36.667-12.533-28.933-13.733-51.333-37.867-65.733-71.467-3.733-8.666-7.6-21.333-7.6-25.066 0-2-.667-5.734-1.333-8.267-4.533-15.867.667-51.2 10.799-73.067 2.134-4.666 3.867-8.666 3.867-8.933 0-2.8 23.2-32.667 28.267-36.4 1.466-1.067 3.466-2.933 4.8-4.267 3.733-4 19.066-13.866 28.266-18.266 8.8-4.267 20-8.134 33.734-11.6 10.4-2.667 42.666-2.667 51.333-.133 3.467 1.067 7.333 2 8.667 2 4.4 0 26.933 9.734 38 16.267 10.533 6.4 30.533 24.4 37.467 33.733 4.666 6.4 12.133 18.134 12.133 19.067 0 .533 1.733 4.533 3.867 8.933 4.933 10.267 9.466 24.4 9.466 29.467 0 2.133.667 6.267 1.467 9.2 1.067 3.733 1.6 40 1.733 119.6l1.867 116c1.333 1.333 11.067 1.733 43.733 1.733 35.867 0 42.134-.266 43.2-2 2-3.066 1.067-250-.933-256-.933-2.533-2-7.333-2.4-10.666s-1.333-7.467-2-9.334-1.867-5.733-2.533-8.666c-2.534-10.667-5.867-18.8-16.134-39.334-9.333-18.933-23.2-38.266-39.2-54.666-18.8-19.2-38.133-33.333-61.466-44.667-18.667-9.2-22.4-10.533-55.334-19.6-12-3.2-54.8-4.667-76.667-2.533zm68.268 560.533c-4.934 5.067-12.134 14.133-31.334 38.4l-6.666 8.533c-.534.667-4.534 5.467-8.667 10.4-6.133 7.2-7.467 9.734-6.8 12 1.067 3.467.933 3.334 19.867 16 23.066 15.6 28.133 18.8 40 24.8l14 7.334c7.866 4.266 27.333 13.066 38 17.2 20.133 7.6 28.533 10.666 32.666 11.6 2.534.533 6.534 1.733 8.667 2.4 7.067 2.4 18.533 5.333 24.667 6.266 3.333.534 6.933 1.467 8 2s5.6 1.467 10 1.867c4.4.533 9.866 1.467 12 2.133 7.333 2.134 46.266 5.6 68 6 19.6.4 27.2 0 56.666-2.666 20.8-1.867 49.334-7.334 73.334-14l14-3.867c2.266-.533 5.333-1.733 6.933-2.533 1.6-.934 3.867-1.6 5.067-1.6s4.133-.8 6.4-1.867l12.266-4.8c16.8-6.4 46.667-20.533 62.267-29.6 15.067-8.8 27.2-16.267 32.533-20.267l8.534-6.133c5.866-4 12-9.733 12-11.2 0-1.2-9.467-13.867-17.334-22.933-1.333-1.6-5.6-6.934-9.466-12s-7.734-9.867-8.534-10.534c-.933-.8-3.066-3.466-4.8-6-3.2-4.533-6.4-8.533-13.2-16.266l-3.333-3.734-19.6 13.067c-18.667 12.667-25.467 16.533-44 25.733-15.067 7.334-28.4 13.2-30.4 13.2-.933 0-3.2.8-5.067 1.867-12.133 6.133-55.066 16.933-77.6 19.467l-20.666 2.533c-12.8 1.6-53.067.933-70-1.2-21.6-2.667-58.134-10.133-63.6-13.067-1.6-.933-4.134-1.6-5.6-1.6s-4.667-.8-7.067-1.866-7.067-2.934-10.4-4.134-7.733-3.066-9.733-4.133c-2.134-1.067-4.4-1.867-5.2-1.867-1.467 0-11.867-4.533-15.734-6.8-1.066-.666-2.933-1.6-4-2s-2.933-1.2-4-1.866-5.6-3.067-10-5.334-9.733-5.2-12-6.666c-2.133-1.467-4.933-3.067-6-3.6-3.466-1.6-25.866-17.067-29.066-20.134-2.4-2.133-2.534-2.133-6 1.467z"/></svg>