<svg xmlns="http://www.w3.org/2000/svg" width="2476" height="978" fill="#000" xmlns:v="https://vecta.io/nano"><path d="M382.536 2.456c-3.066 3.467-3.466 8.667-.666 9.333 1.466.267 3.066-1.067 4.4-3.6 1.066-2.267 2.533-4.133 3.066-4.133s2.934 1.867 5.467 4c2.4 2.267 5.2 4.133 6 4.133 6.4.667 11.467-3.2 11.467-8.933 0-4.4-2.667-4-6.8.933l-3.467 4.267-4.533-3.2c-2.534-1.733-4.667-3.6-4.934-4.267-.933-1.867-7.866-.933-10 1.467zM23.603 17.39c-1.2 2 .533 4 3.333 4 1.467 0 3.2 1.067 3.867 2.4 1.733 3.2 1.867 56.267.267 60.667-.8 2-2.533 3.6-4.4 3.867-1.733.267-3.067.933-3.067 1.733s9.467 1.467 25.067 1.733l25.067.267-.4-7.6c-.267-5.867-.933-7.733-2.4-7.733-1.067 0-2.133 1.333-2.4 2.8-.933 6.267-4.533 7.6-16.933 6.533-6.267-.533-11.333-1.333-11.467-1.733-.133-1.733-.133-15.733 0-20.667l.133-4.933h11.867c12.133 0 14.133-.667 12.667-4.533-.667-1.733-3.067-2.133-12-2.133-8.4 0-11.467-.533-12-1.867-1.067-2.933-1.333-21.867-.267-24.8.933-2.4 2.133-2.667 12.267-2.667 11.733 0 12.8.533 12.8 6.933 0 1.867.8 2.533 3.067 2.133 2.4-.267 3.067-1.333 3.333-6.4.667-8.933-.533-9.333-25.867-9.333-13.067 0-22 .533-22.533 1.333zm77.6.533c-6.533 2.4-8.533 4.267-11.733 10.267-3.2 6.4-3.2 9.2.133 14.8 2.4 4.267 9.333 10.4 11.6 10.4.534.133 3.467 1.2 6.4 2.667s6.267 2.533 7.467 2.667c1.333 0 4.133 2.133 6.533 4.933 3.734 4.133 4.134 5.6 3.6 10.133-.933 6.4-3.333 9.067-10 10.933-5.333 1.6-15.333.4-18.4-2.133-1.067-.8-2.4-3.467-2.933-5.733-.8-2.8-2-4.267-4-4.533-2.533-.4-2.933.133-2.933 4.8 0 16.267 31.867 20.8 42.4 5.867 9.2-12.933 1.866-25.867-19.2-33.733-8.8-3.333-15.201-8.933-15.201-13.333 0-1.6 1.2-4.8 2.667-7.2 2-3.333 3.867-4.533 8-5.2 9.734-1.6 18.134 1.6 19.334 7.333 1.066 4.8 4.266 5.067 5.466.4 2.8-10.8-14.266-18.667-29.2-13.333zm44.667-.8c-1.2.8-1.6 3.467-1.334 8.4.267 5.6.934 7.333 2.8 7.6 1.6.4 2.267-.4 2.267-2.8 0-6.933.933-7.6 10.667-7.6 5.066 0 9.6.667 10 1.467 1.2 1.733 1.2 59.333 0 61.2-.4.667-1.867 1.333-3.2 1.333-2.8 0-5.867 3.067-4.534 4.4.4.533 6.534.933 13.334.933 11.333 0 12.533-.267 12.133-2.4-.267-1.2-1.733-2.4-3.467-2.667-1.6-.267-3.6-1.6-4.266-3.067-1.867-3.467-1.6-57.2.266-59.467s14.934-2.267 16.8-.133c.667.933 1.6 3.2 1.867 5.067.267 2.267 1.2 3.333 3.067 3.333 2.4 0 2.666-.933 2.666-8v-8l-28.666-.267c-15.734-.267-29.467.133-30.4.667zm91.733 1.6c-1.467 1.467-2.667 4-2.667 5.733s-.533 3.6-1.2 4.267c-.8.8-2.8 5.867-4.666 11.333-7.067 21.6-14.534 42.133-15.867 43.733-.667.8-2.8 2.4-4.8 3.333-6.267 2.933-3.733 4.267 8.933 4.667 10.4.267 12.267 0 12.267-1.733 0-1.067-1.467-2.667-3.333-3.333-4-1.467-4.134-3.867-.8-12.667l2.533-6.667 12.533-.4c14-.4 14-.4 17.6 8.933 2.534 6.533 1.867 10.8-1.866 10.8-2.4 0-4.534 3.067-3.067 4.533 1.2 1.2 22.8.933 23.6-.267 1.067-1.733-1.2-4.4-4-4.8-3.333-.533-5.867-5.733-12.533-26.133l-6.267-18.667c-.533-1.067-2.4-6.667-4.4-12.533-4.533-13.067-7.067-15.067-12-10.133zm8 21.6c1.6 5.333 3.6 11.067 4.267 12.533 2.8 6.133 1.2 7.733-8.667 7.867-8 0-9.067-.267-9.733-2.667-.4-1.467.266-4.933 1.466-7.6 1.067-2.8 2-5.867 2-6.8 0-3.2 5.467-14.4 6.534-13.6.666.267 2.533 4.933 4.133 10.267zM308.67 18.59c-12.934 4.8-21.467 14.133-25.067 27.333-2.4 8.533-2.267 8.667.8 18.4 2.533 8 4.4 10.933 10.267 16.667 3.866 3.867 7.6 7.067 8.4 7.067s4.266 1.333 8 2.8c6.533 2.8 6.533 2.933 5.733 8-.8 4.8-.533 5.2 2.933 6.667l3.867 1.467-4.667 1.466c-6 2-5.466 4.134 1.2 4.667 4.4.4 5.734-.133 7.467-2.933 2.4-3.6 1.2-7.867-2.667-9.334-2.666-.933-2.133-6.133.667-7.466 1.067-.533 5.467-2 9.6-3.2 9.333-2.667 14.8-8.4 14.133-14.667-.533-5.733-3.866-5.333-6.666.8-2.8 5.867-3.334 6.267-12.934 8.533-6.4 1.467-8.933 1.467-15.333 0-27.733-6.533-33.467-43.333-8.933-57.733 5.066-2.933 7.733-3.6 16.4-3.6 11.866-.133 16.8 2.4 18.666 9.6 1.2 4.533 4.534 5.733 6 2.133.4-1.067.134-4.4-.8-7.2-1.2-4.133-2.666-5.6-7.866-8-8.8-4.133-20.4-4.8-29.2-1.467zm84-1.467c-.8.533-2.667 4.533-4.267 8.933-1.466 4.4-4.666 13.067-6.933 19.333l-6 17.333c-1.067 3.333-2.4 7.2-3.2 8.667-.667 1.467-2.133 4.933-3.2 7.6-1.2 3.2-3.467 5.733-5.733 6.667-4.134 1.867-5.867 3.733-4.934 5.333.4.533 6.134 1.067 12.667 1.067 10.533 0 12-.267 11.6-2.133-.267-1.2-1.6-2.933-3.067-3.733l-3.2-1.733c-.266-.267.534-4 1.867-8.267 2.8-9.2 3.2-9.467 18.933-9.467 11.867 0 14.4 1.2 15.867 7.733.4 2 1.2 4.533 1.733 5.6 1.467 3.067.134 6.933-2 6.133-.933-.4-2.4.533-3.2 2-2 3.6-.133 4.133 12.8 3.6 8.267-.267 10.534-.8 10.534-2.4 0-1.067-1.334-2.133-2.934-2.4-3.066-.4-8.4-6.667-8.4-9.733 0-1.6-3.2-10.533-6.8-19.2-.666-1.467-2.4-6.533-4-11.333-1.466-4.8-3.6-10.533-4.666-12.933-1.067-2.267-1.867-4.8-1.867-5.6 0-.933-1.2-4-2.667-6.8-2.666-5.2-5.466-6.533-8.933-4.267zm10.133 27.733c2.667 7.867 3.867 13.333 3.067 14.133-1.733 1.733-17.733 2.533-19.733.933-1.6-1.333-1.6-1.467 2.933-15.2 3.733-11.333 4.533-12.667 6.933-12.667 2.134 0 3.467 2.667 6.8 12.8zm57.6-26.4c-9.467 3.6-20.267 14.533-23.333 23.333-8 23.6 10.4 50.267 34.666 50.267 15.334 0 29.2-8.667 35.067-22.133 4.133-9.2 3.867-23.867-.4-32.4-8.533-16.533-29.867-25.467-46-19.067zm18.533 5.6c8.134 1.6 14.667 6 19.467 13.333 4.933 7.467 5.467 21.333 1.067 30.267-3.334 6.933-7.6 12.4-9.6 12.4-.667 0-2 .8-2.8 1.867-1.467 1.867-10.4 4-15.467 3.733-10.8-.4-21.467-8-26.133-18.667-3.334-7.733-3.334-19.467 0-26.4 5.2-10.667 11.866-15.333 25.6-17.733.533-.133 4 .533 7.866 1.2zm105.733 83.867c-6.666 7.333-7.333 9.467-2.933 9.467 1.467 0 3.867-1.334 5.2-3.067l2.4-2.933 4.267 3.066c2.266 1.734 5.066 2.8 6.133 2.4 1.6-.666 1.2-1.733-1.6-6.133-2.8-4.133-4.4-5.333-7.333-5.333-2.134 0-4.934 1.2-6.134 2.533zm-544.266 18.8c-11.067 6.133-15.733 12.4-19.467 26.133-2.267 7.734-2.133 8.4.4 17.6 6.4 22.4 29.733 33.334 53.6 25.067 11.733-4.133 14.133-7.467 13.733-19.733-.267-6-.933-9.867-2-10.667-2.4-1.467-13.467-1.333-17.6.267-5.6 2.133-2.933 5.2 4.933 5.6 6 .4 7.067.8 8.133 3.866 3.067 8.667-3.2 14.934-16.4 16.4-12.667 1.467-25.2-2.266-31.067-9.2-4.4-5.2-8.133-17.6-7.333-24.4 2.533-20 19.333-32 39.067-27.866 10 2.133 10.933 2.666 13.867 9.733 2.667 6.133 4.533 7.333 5.867 3.733 1.467-3.866.8-7.733-2-11.866-4-5.734-12.8-8.667-26-8.667-9.2 0-11.467.533-17.733 4zm87.734-.4l-4.534 11.733c-3.866 10-9.733 26.534-11.6 32.667-.666 2.533-1.866 5.2-2.533 5.867-.667.8-1.2 2.266-1.2 3.466 0 4-4.933 11.334-8.133 12-2.001.534-3.201 1.734-3.201 3.334 0 2.4.933 2.666 11.334 2.666s11.333-.266 11.333-2.666c0-1.734-1.066-2.8-2.933-3.067-3.733-.533-3.867-2.8-.667-11.6l2.4-6.667 13.734-.4c15.066-.4 16.8.267 18.266 6.8.4 2.4 1.334 4.934 2 5.734 1.867 2.266 0 5.866-3.066 5.866-1.867 0-2.534.8-2.134 2.934.4 2.933 1.067 3.066 11.334 3.066 6 0 11.2-.4 11.6-.8 1.6-1.466-.8-5.2-3.2-5.2s-8-6.4-8-9.066c0-1.067-5.334-16.134-11.334-32.267-11.066-29.467-10.4-28-14.266-28-2.934 0-4.134.933-5.2 3.6zm6 12.667c3.2 5.066 8.933 23.2 8 25.6-1.067 2.933-17.6 3.2-18.667.266-.933-2.266 6.267-28.8 7.733-28.8.534 0 1.867 1.334 2.934 2.934zm54.933-13.6c-12.4 7.867-11.6 26.133 1.466 32.533l8.4 4.134c1.867.933 4.934 2 6.8 2.533 5.734 1.333 11.867 7.867 11.867 12.8 0 7.733-3.2 11.6-10.933 13.333-11.734 2.667-22.4-1.466-22.4-8.666 0-3.734-1.6-5.067-4.667-3.867-1.733.667-2 1.867-1.333 5.733 1.6 8.4 7.6 12.8 19.6 14.267 18.533 2.133 32.933-13.467 25.6-27.733-3.734-7.2-8.134-10.267-23.067-15.867-2.4-.933-6.267-3.067-8.267-4.933-3.2-2.534-3.866-4.267-3.866-8.8 0-6.667 2.666-9.867 9.866-11.467 7.467-1.6 15.067 1.2 17.867 6.667 3.067 5.866 4.933 5.333 4.933-1.6 0-5.2-.4-5.867-5.333-8.667-6.933-3.867-20.667-4.133-26.533-.4zm46.8-1.867c-1.2 1.2-1.2 14.4-.134 15.6 1.734 1.6 5.867-1.867 5.867-4.8 0-1.733.667-3.733 1.6-4.667 2-2 15.2-2.133 16.533-.133 1.067 1.867.667 60.267-.533 61.333-.533.534-2.133 1.2-3.6 1.467-1.6.267-2.667 1.467-2.667 3.067 0 2.4.934 2.666 12 2.666s12-.133 12-2.666c0-1.867-1.066-2.8-3.466-3.067s-3.867-1.467-4.4-3.333c-.4-1.6-.8-14.934-.8-29.734 0-19.6.4-27.333 1.733-29.066 1.333-1.867 3.333-2.134 10.267-1.867l8.666.4.667 4.667c.533 3.6 1.333 4.666 3.333 4.666 2.4 0 2.667-.933 2.667-7.333v-7.333l-29.467-.4c-16.133-.134-29.733.133-30.266.533zm71.733.533c-.4.8.267 1.734 1.6 2.134 6.533 2 6.4 1.066 6.8 32.533.267 30.667-.133 33.333-5.067 33.333-2.533 0-4.533 3.334-3.2 5.467.934 1.6 22 1.467 24.4 0 2.534-1.6-.133-5.067-4.266-5.733-2.8-.4-2.934-1.067-2.934-12.4v-12l5.6-.4c3.067-.267 6.8.133 8.134.933s4.8 5.867 7.733 11.467c8.667 16.8 13.6 21.6 19.2 18 1.6-1.067 1.333-2-2.133-5.6-4.267-4.534-15.2-22.4-15.2-24.934 0-.8 1.2-2 2.666-2.8s4.534-3.866 6.667-6.933c7.2-9.867 4.8-25.867-4.667-31.733-3.866-2.4-6.533-2.667-24.4-2.667-12 0-20.4.533-20.933 1.333zm41.6 7.467c3.333 2.533 3.733 3.733 4.133 11.733.4 8.267.134 9.067-3.6 12.8s-4.533 4-14.666 4h-10.8V144.99c0-8.4.4-15.6 1.066-16.134.534-.533 5.2-.8 10.534-.533 7.066.267 10.533 1.2 13.333 3.2zm52.933-6.267c-6.666 3.067-16.666 12.534-19.866 18.8-1.2 2.534-2.534 8.267-2.934 12.667-1.733 20.533 13.067 38.133 34.667 41.333 13.333 2 29.467-8 36-22.133 5.333-11.333 5.733-16.8 2.267-27.2-2.267-6.667-4.534-10.4-9.467-15.467-3.733-3.6-7.733-6.533-9.067-6.533-1.2 0-3.466-.933-4.933-2-3.733-2.8-19.867-2.533-26.667.533zm23.2 5.067c6.534 1.2 16.534 10.8 19.334 18.533 4.8 13.467 1.066 27.6-9.467 35.6-11.067 8.4-24.133 9.334-34.667 2.534-12.533-7.867-17.6-28.267-10.533-41.734 3.733-6.933 13.067-14.533 18-14.533 2 0 4.533-.667 5.6-1.333 1.067-.8 3.2-1.067 4.667-.667s4.666 1.067 7.066 1.6zm42.267-6.4c-.8 1.467 4.667 5.6 6.134 4.667 2.133-1.334 2.666 5.866 2.266 34.133s-.4 28.667-3.333 29.067c-4.133.666-6.8 4.133-4.267 5.733 2.4 1.467 23.467 1.6 24.4 0 1.467-2.267-.8-5.467-3.866-5.467-1.734 0-3.467-.933-3.867-2.133-1.333-3.333-.933-46.4.533-48.533.667-1.067 1.467-1.6 1.734-1.334 2.666 3.6 19.466 27.734 33.2 48.134 6.266 9.333 8.266 10.933 11.733 9.866 2.533-.8 2.667-1.733 2.667-32.8 0-32.933.666-37.2 5.2-37.2 3.066 0 4.8-3.866 2.266-4.8-3.066-1.2-24.133.134-23.866 1.467.266 1.467 2.133 2.667 6.133 3.867 2 .666 2.267 3.066 2.267 26.533 0 14.267-.4 26.133-.8 26.667-.934.933-4.267-3.6-35.067-48.8l-7.067-10.267h-7.733c-4.4 0-8.133.533-8.667 1.2zm106.933 1.6c-6.8 3.6-14.8 11.733-18.4 18.8-4.133 8.133-4.266 22.133-.133 30.667 4.133 8.933 9.867 14.8 18.533 19.2 19.467 9.866 42.934-.134 50.8-21.6 3.6-9.734 3.6-14.134.667-23.867-2.933-9.333-11.733-19.067-21.067-23.2-8.533-3.733-23.2-3.867-30.4 0zm25.334 4.8c5.466.8 14.4 9.333 17.866 16.8 5.6 12.4 2 28.533-8.266 37.067-10.934 9.2-24.4 9.866-35.734 2-9.333-6.534-12.8-13.734-12.8-26.8 0-9.334.4-11.334 3.6-16.134 2-3.066 5.467-6.933 7.734-8.533 4.933-3.467 15.466-6.533 20-5.733 1.866.4 5.333.933 7.6 1.333zm42-5.333c.266 1.333 1.733 2.533 3.466 2.8 1.6.266 3.467 1.466 4.134 2.666 1.733 3.2-.934 53.334-2.934 57.6-.933 1.734-3.066 3.6-4.933 4-2.133.534-3.333 1.734-3.333 3.334 0 2.4.933 2.666 12 2.666s12-.133 12-2.666c0-1.734-1.067-2.8-3.067-3.067-1.867-.267-3.6-1.867-4.267-3.733-1.733-4.4 1.067-35.6 3.6-41.867l2-4.667 1.467 3.334 5.2 11.733c2 4.667 3.733 8.8 3.733 9.333.134.534 1.2 3.334 2.667 6.267s2.533 6 2.667 6.8c0 .8 1.2 2.533 2.533 3.733 3.2 2.8 7.467 1.067 8.933-3.466.534-1.734 2.534-6.667 4.534-11.067 2.133-4.4 5.2-11.733 6.8-16.4 6-15.6 8.8-8.4 9.6 23.6l.266 15.333-3.333.8c-2.133.534-3.333 1.734-3.333 3.334 0 2.4 1.066 2.666 10.666 3.066 5.867.134 11.467-.266 12.4-.8 2.534-1.733.4-5.6-3.2-5.6-3.466 0-3.866-.933-5.2-14-2-19.466-2.533-28.666-2.666-38.666 0-10.134.133-10.534 3.333-11.334 1.867-.4 3.467-1.866 3.733-3.066.4-2-.8-2.267-8-2.267h-8.533l-6.4 14.933c-12.8 30.534-14.933 34.934-16.133 35.2-1.467.534-2.667-2-12.667-26.133-10.533-25.467-8.667-23.333-19.2-23.733-8.133-.4-8.933-.134-8.533 2zm98.133-1.467c-1.6 1.467.533 4.534 3.067 4.534 1.333 0 3.066 1.2 3.866 2.533 1.467 2.8 2 55.733.534 59.333-.4 1.2-2.134 2.134-3.867 2.134-3.467 0-5.6 3.866-3.067 5.6 2.4 1.466 21.334 1.333 23.6-.134 2.534-1.6-.133-5.066-4.266-5.733-2.934-.4-2.934-.667-3.334-31.467-.266-28.666-.133-31.066 2-31.733 4-1.2 5.867-2.4 6.134-3.867s-23.334-2.666-24.667-1.2zm59.2 2.133c-7.333 3.334-14.933 10.934-18.667 18.534-2.133 4.533-2.933 8.533-2.933 15.733 0 8.4.533 10.933 4.267 17.733 4.133 7.867 9.733 13.334 18.4 17.734 6.666 3.466 23.866 3.333 32-.267 7.333-3.333 9.2-5.467 10.266-11.467.534-3.733.134-4.933-2-6.133-2.933-1.467-4.266.133-4.266 5.2 0 8.133-24.4 11.733-35.734 5.333-3.333-1.866-7.6-6-10.266-10.133-4.267-6.267-4.667-7.733-4.8-17.467-.134-9.066.266-11.6 3.066-16.533 5.067-9.067 13.467-13.867 27.067-15.2.8-.133 2.8.267 4.667.8s5.066 1.333 7.066 1.733c2.8.667 4.4 2.4 6.267 6.934 3.2 7.2 5.867 7.066 6.4-.267.267-4.133-.267-5.867-2.667-8-8.133-7.333-26.933-9.467-38.133-4.267zm81.866 3.334c-3.2 8.8-6 16.266-8.266 21.466-1.067 2.4-1.867 4.934-1.867 5.734s-.8 3.333-1.867 5.6c-1.066 2.4-2.533 6.4-3.333 8.933-3.867 13.733-8.267 21.333-12 21.333-2.533 0-4.933 3.734-3.333 5.2.4.4 5.6.8 11.6.8 10.266 0 10.933-.133 11.333-3.066.4-2.134-.267-2.934-2.133-2.934-3.867 0-4.267-2.666-1.6-10.8l2.4-7.2 6.533-.666c3.467-.4 10.267-.4 15.067 0l8.533.666 2.4 6.667c3.067 8.667 3.067 11.333-.133 11.333-2.667 0-4.667 3.334-3.334 5.467.934 1.6 19.334 1.6 21.734 0 2.533-1.6.8-5.467-2.4-5.467-2.8 0-6.267-4.533-7.6-10.133-.534-2-1.734-5.2-2.667-7.067-1.067-1.866-1.867-4.533-1.867-5.866 0-1.467-.8-4.134-1.866-6-1.067-2-4.8-11.734-8.534-21.6-6.266-17.334-6.666-18-10.533-18.4-3.733-.4-4.133.133-6.267 6zm12.134 21.6c1.733 4.8 2.933 10.266 2.8 12.133-.4 3.067-.934 3.333-8.4 3.733-11.867.4-12.267 0-8.267-13.2 1.867-6.133 3.733-12.933 4.267-15.2l.933-4 2.8 3.867c1.467 2.133 4.133 7.733 5.867 12.667zm874.267 2.933c-2.53 2.8-2.53 9.2-2.67 272.4l1.74 273.067 1.86 3.733h41.87c36.27 0 42.13-.267 43.87-2.133 1.86-1.867 2.13-9.867 2.13-68.534 0-40 .53-67.866 1.33-69.866 2.27-6.267 5.87-4.267 16.54 8.8 5.33 6.8 11.2 13.866 12.93 15.733s5.33 6.133 7.73 9.333c2.54 3.334 6.8 8.4 9.34 11.467 2.66 2.933 8.66 10.133 13.46 16l11.47 13.867c4.93 5.733 26.4 31.733 28.53 34.4 1.87 2.533 8 9.733 19.2 22.8 2.8 3.333 6 6.533 6.94 7.2.93.533 26.13.8 56.13.666l54.4-.4.4-4.133c.27-2.267-.4-5.067-1.33-6-1.07-1.067-7.87-9.467-15.2-18.667l-14.94-18.666c-.93-1.067-3.33-4-5.33-6.667s-12-15.2-22.27-28L2016 595.39c-1.33-1.734-14.93-18.534-19.86-24.667l-10.8-13.467-10.4-13.066c-1.87-2.267-4.4-5.6-5.87-7.2-1.33-1.6-6-7.467-10.27-12.934l-17.73-22.533c-8.4-10.667-9.73-13.067-8.8-15.6.67-1.733 7.33-10.667 14.93-20l22.4-27.867 27.74-34.666c1.73-2 17.86-22.534 27.33-34.667.53-.8 3.47-4 6.4-7.333s6.4-7.467 7.6-9.334 6.13-8.133 10.93-14.133l24-29.867 13.74-17.066c8.66-10.8 9.73-15.467 4.13-17.6-4.67-1.867-98.13-1.6-105.2.133-4.53 1.2-6.53 3.067-13.33 12.133-4.4 5.867-9.2 12-10.67 13.467-1.6 1.6-6 7.067-10 12.267l-8 10c-.4.4-5.2 6.4-10.67 13.333-5.33 6.933-10.13 12.933-10.66 13.333-.4.4-5.74 6.934-11.87 14.667l-14.13 18c-1.87 2.133-9.74 12.133-17.6 22-8 9.867-15.6 18.133-16.94 18.4-6.26 1.2-6.13 3.733-6.13-134.667 0-128.666 0-130.4-2.67-133.066-2.53-2.534-4.4-2.667-43.06-2.667-39.47 0-40.54.133-43.07 2.8zm-727.87 96.4c-.66.267-7.6 1.2-15.33 2.133-17.6 1.867-42.134 7.467-52.667 12-1.467.667-6 2.534-10 4.267-27.867 11.467-53.6 29.333-76 52.667-6.933 7.2-14.4 15.866-16.667 19.066-2.133 3.334-4.266 6.267-4.666 6.667-.667.533-7.2 10.8-11.6 18-1.467 2.533-4.8 9.067-11.867 23.733-1.6 3.467-3.467 8.267-4 10.667-.4 2.4-1.733 5.467-2.667 6.933-1.066 1.467-1.866 3.734-1.866 5.2s-.8 5.067-1.867 8.134c-5.067 14.533-6.8 30.266-6.8 59.333.133 28.4.667 33.467 6.133 55.333.8 2.934 1.867 7.6 2.4 10.4.667 2.8 1.867 5.867 2.667 6.667s1.467 2.533 1.467 3.733c0 3.467 11.333 28.4 17.333 37.867 1.733 2.933 3.867 6.4 4.667 7.6 15.6 26.133 45.866 55.6 75.333 73.2 24.933 14.933 55.6 26 81.337 29.333 27.73 3.467 38.13 4.134 47.33 2.667 5.2-.8 15.2-2 22.4-2.8 7.33-.8 14.27-2 15.6-2.667 1.33-.8 3.73-1.333 5.2-1.333 5.6 0 32.27-9.867 33.73-12.4 2-3.867 1.47-97.2-.66-98.533-2.4-1.6-6.8-.267-13.2 4.133-6.8 4.667-20.8 11.6-28.94 14.267-16.53 5.866-26.13 7.333-44.8 7.466-26 .134-39.2-2.8-61.33-13.733-17.6-8.667-23.6-13.067-37.734-27.733-20.266-21.067-30.8-41.867-36.4-71.467-3.2-16.933-3.2-28.533 0-45.333 6-31.2 16.934-52.134 38.8-73.867 19.467-19.6 36.4-29.067 64.664-36.4 14-3.6 45.87-3.867 60-.533 11.6 2.8 25.07 8 36 13.733 14.8 7.867 33.34 24.267 44.94 39.733 10.53 14.134 20.8 37.6 24.13 55.334.8 4.4 1.6 53.333 2.13 124.933l1.87 118.667c.67.533 19.73 1.2 42.27 1.466 40 .4 41.33.267 44-2.4 2.66-2.666 2.66-3.6 2.66-120.4l-1.33-126.933c-6.67-50.133-30-97.333-65.47-132.533-14.8-14.534-34.93-29.467-52-38.4-4-2.134-8.26-4.534-9.33-5.2-2.4-1.467-6.4-3.067-25.2-9.6-17.6-6-30-9.067-43.33-10.4-5.07-.534-10.54-1.2-12-1.467-4.94-.8-28-1.733-29.34-1.2zm480 1.734c-13.33 1.866-36.93 6.8-40.66 8.4-1.07.533-6.14 2.266-11.34 4-27.06 8.8-68.13 35.066-85.2 54.4l-7.73 8.4c-6.27 6.533-21.07 26-21.07 27.6 0 .666-1.06 2.666-2.53 4.4-1.33 1.733-5.33 8.933-8.8 15.866-9.47 18.8-10 20-10 22 0 1.067-.8 3.867-1.87 6.267-2.13 4.667-4.66 13.333-8.13 27.733-2.27 8.934-4.67 33.467-4.67 47.334 0 13.333 2.4 38.133 4.67 47.333 3.33 14 6 23.067 8.13 27.733 1.07 2.4 1.87 5.067 1.87 5.867s1.47 4.533 3.2 8.267l5.33 11.466c1.07 2.534 3.87 7.6 6 11.334 2.27 3.6 4.8 8.133 5.74 10 .93 1.866 2.13 3.866 2.8 4.666.53.667 4.13 5.467 8 10.667 3.73 5.067 14 16.4 22.66 25.067 26.27 26.133 58.8 45.333 93.6 55.466l16.54 4.667c3.86 1.2 9.86 2.133 13.33 2.133 3.33 0 8.53.667 11.47 1.334 12.4 3.066 49.06 1.2 72.66-3.6 20.8-4.267 50.27-16 69.87-27.867 11.2-6.8 31.73-22.933 42.4-33.333 8.4-8.267 10.4-10.934 10.4-14.134 0-3.466-3.87-8-28.67-32.533-21.33-21.2-29.46-28.533-31.86-28.533-2.14 0-6.8 3.333-13.6 9.6-16.4 14.8-21.74 18.666-35.34 25.333-24.4 12-36.26 14.8-62.13 14.8-19.2 0-33.73-2.267-42.13-6.533-2.14-1.067-4.4-1.867-5.07-1.867-2.67 0-25.6-11.867-30.4-15.733-14.4-11.334-22.8-19.467-29.73-28.667-8.94-11.6-21.07-34.133-21.07-38.933 0-1.467-.53-3.334-1.2-4.134-2.13-2.133-5.47-20.533-6.4-34.533-1.2-20.667 4.93-48.533 14.4-66 .67-1.067 2.53-4.667 4.13-7.867 1.74-3.333 4.4-7.466 6-9.333s5.87-7.2 9.6-11.6c3.6-4.533 11.07-11.867 16.54-16.267 9.33-7.6 33.6-21.6 37.46-21.6 1.07 0 3.6-.8 5.74-1.866 9.73-4.8 33.6-8 51.73-6.8 12.13.8 33.6 5.333 36 7.466.67.667 2.13 1.2 3.33 1.2 5.87 0 30 14.8 42 25.6 15.74 14.4 17.34 15.734 20 15.734 1.74 0 13.2-10.4 31.74-28.667 34.26-33.867 33.46-32.267 20.8-44.667-4.54-4.533-12.8-11.866-18.4-16.4s-10.4-8.533-10.8-9.066c-.4-.4-3.6-2.534-7.07-4.667-3.6-2.133-8.13-4.933-10-6.133-4.27-2.667-30.53-15.734-31.73-15.734-.4 0-2.67-.8-4.94-1.866-2.4-1.067-6.4-2.534-8.93-3.334a134.11 134.11 0 0 1-8.67-2.666c-20.93-7.067-63.73-10.667-88-7.2zm-963.997 15.199c-10.133 1.2-23.333 4.4-27.067 6.4-1.466.8-4 1.467-5.466 1.467-1.334 0-4.267.8-6.4 1.867-2 1.066-8.8 4.133-15.067 6.933-6.267 2.933-13.733 6.8-16.667 8.667l-13.333 8.666c-8.4 5.467-32.933 29.067-40.933 39.2-4.534 5.867-21.067 32.667-21.067 34.134 0 .4-.933 2.666-2 4.933-2.267 4.933-5.733 14.533-7.333 20.267-.534 2.133-1.734 5.733-2.4 8-.8 2.133-2.4 9.066-3.467 15.333-1.867 9.867-2.133 28.933-2.133 145.467v134.266l4.4 1.867c6.266 2.8 80.133 2.533 84.666-.267l2.934-2 .133-123.333 1.2-132.667c3.467-30 15.867-51.466 40-69.733 19.467-14.8 39.067-20.933 63.333-19.867 20 .8 23.867 1.867 43.867 11.734 23.467 11.6 42 34.533 50.533 62.533.934 3.067 1.734 49.067 2.134 136.933l.8 132.267 3.066 3.067c3.067 3.066 3.067 3.066 43.6 3.066 38-.133 40.667-.266 43.334-2.666l2.8-2.534-.4-138.133-.534-138-4.266-15.6c-9.2-34.267-24.8-61.867-49.2-86.8-10-10.133-26-23.067-35.2-28.267-28.267-15.866-48-23.2-74.534-27.333-8.933-1.333-48.266-1.333-59.333.133zm1656.667 6.4c-32 8.134-59.47 29.734-74.93 58.8-11.47 21.734-15.87 52-10.67 74.667 2 8.8 6.27 21.2 9.07 26 14.93 25.867 32.26 42 57.33 53.467l22.53 10.533 18.67 8.667c3.73 1.6 12.13 5.6 18.93 8.8 6.67 3.2 12.54 5.866 12.8 5.866.4 0 7.2 3.067 15.07 6.8l24.53 11.467 20.67 9.867c20.67 9.733 31.47 14.533 32.93 14.533.8 0 2.54.8 3.6 1.733 1.2.934 4.8 2.934 8.14 4.267 10.66 4.533 16 11.6 16 21.467 0 5.466-.8 7.866-4.14 12.4-8 11.2-.8 10.666-125.2 10.8-95.86.133-110.26.4-112 2.133-3.06 3.067-3.73 77.333-.66 83.2l2.13 4h114.27c107.73 0 114.8-.133 124.53-2.533 22.93-5.6 39.87-15.2 57.47-32.4 7.73-7.6 23.6-31.734 23.6-36 0-.8.93-3.2 1.86-5.467 4-8.667 7.87-35.333 6.67-46.267-2.8-27.733-11.87-47.066-31.87-67.733-12.8-13.467-18-16.8-50.26-32.133-7.87-3.734-14.67-6.8-15.07-6.8s-6.27-2.667-13.07-5.867l-22.93-10.8-18.67-8.667-38.66-18c-2.14-.933-8.54-3.866-14-6.4l-38.67-18c-14.8-6.8-18.67-11.466-18.67-22.666 0-9.2 3.2-15.2 10.67-19.467 4.53-2.8 6.67-2.8 117.33-3.467l112.67-.666.4-42.534c.27-30.266-.13-43.066-1.2-44.266-1.33-1.6-20.8-1.867-117.07-1.734-102.66.134-116.4.4-124.13 2.4zm-2111.334.134c-2.133.533-6.533 1.066-9.6 1.2-3.067 0-7.6.933-10 2s-7.6 3.2-11.6 4.8c-6.8 2.8-19.2 9.733-22.267 12.666l-8.133 6.667c-11.867 9.333-33.733 42.133-33.733 50.4 0 1.333-.667 3.733-1.467 5.2-1.2 2.133-4 24.667-4.133 32.4-.133 10.933 4.533 32.533 9.467 43.333 9.867 21.467 34 44.934 57.467 55.6 1.867.934 8.8 4.134 15.333 7.2l28 12.8 27.067 12.534c6.133 2.8 11.6 5.2 12.4 5.2.667 0 1.2.533 1.2 1.333 0 .667.933 1.333 2 1.333 1.733 0 19.067 7.6 24.667 10.8a27.9 27.9 0 0 0 4 2c2 .667 10.4 4.667 25.333 11.6l39.467 18.267c10.4 4.533 17.6 15.067 15.866 23.2-.4 1.867-.933 4.933-1.333 6.8-1.2 5.733-9.333 12.267-16.4 13.2-3.467.4-54.267.8-112.8.8-93.6 0-106.933.267-109.733 2l-3.067 2v41.333c0 40.267 0 41.334 2.8 42.667 2.933 1.6 217.2 2.133 232.533.533 19.734-2 43.734-13.733 61.734-30.4 9.733-8.933 21.6-26.666 26.4-39.466 7.066-18.667 7.333-20.134 7.333-42.934.133-19.466-.267-23.2-2.933-31.2-1.6-5.066-3.467-9.866-3.867-10.533-.533-.8-1.467-2.667-2-4.4-1.6-5.6-13.733-22-22.933-31.333-11.867-11.867-20.134-17.334-39.734-26.267l-22.933-10.8c-7.467-3.6-14-6.533-14.4-6.533-.267 0-6.8-2.934-14.267-6.4l-18.4-8.667c-5.066-2.133-19.333-8.8-35.333-16.267l-36-16.666-19.6-9.2c-7.867-3.734-14.667-6.8-15.2-6.8-2.666 0-11.2-8.667-12-12.4-2.533-10.267.133-20.134 6.667-25.467l5.066-4.133 112.134-.4c110-.267 112.133-.4 114.933-2.934 2.8-2.666 2.933-3.466 2.667-41.066l-.534-40.534c0-1.333-1.866-3.2-4.133-4.4-3.467-1.866-16.933-2-112.933-1.866l-113.067 1.2zm988.404 536.133c-1.34.667-6.4 6.533-11.34 12.933l-9.73 12.267c-.93.8-19.33 23.6-28.27 35.067-3.6 4.4-6.4 8.4-6.4 8.8.14 1.733 3.74 5.066 8.67 8.133 2.93 1.733 6 3.867 6.67 4.8 1.2 1.333 13.6 9.867 19.06 13.2l18.27 10.933c3.73 2.4 46 23.467 50.8 25.334 25.73 10.133 27.33 10.8 31.2 11.733a35.14 35.14 0 0 1 6 2c1.47.533 5.07 1.733 8 2.533 2.93.667 8.67 2.4 12.67 3.6 10 2.934 23.06 5.734 49.33 10.534 26.4 4.8 78 7.2 102 4.666l22.67-2.133c8.26-.667 27.33-3.733 38-6 3.33-.8 9.06-1.867 12.93-2.533 3.73-.534 7.6-1.467 8.4-2 .93-.534 4.93-1.734 9.07-2.667 9.86-2.267 18-4.8 34.26-10.667l16.8-5.866c1.87-.667 4.54-1.734 6-2.534 1.34-.8 5.6-2.8 9.2-4.266 7.47-3.2 37.74-18.267 44.27-22.134 15.07-8.933 24.4-14.8 29.2-18.4l8.53-6.133c5.47-3.733 13.34-10.933 13.34-12.267 0-1.066-29.34-38.8-32-41.066-.4-.4-4-4.934-7.87-10-9.33-12.134-16.27-19.334-18.4-19.334-.93 0-3.6 1.6-6 3.6-6.53 5.467-12.8 9.734-14.4 9.734-.67 0-1.33.4-1.33.933 0 1.067-2.94 2.8-21.2 13.333-10.27 6-35.07 18-44.8 21.734l-12.27 4.8c-2.27 1.066-5.07 1.866-6.27 1.866-1.06 0-4 .8-6.4 1.867-21.2 9.067-77.33 18.133-111.73 18.133-23.6 0-66-5.2-83.2-10.133-3.47-1.067-7.33-1.867-8.53-1.867-1.87 0-15.2-4-22.27-6.666-1.47-.534-4.67-1.6-6.93-2.534l-17.07-6.133c-14.67-5.867-39.73-18.533-50.67-25.333-12.26-7.6-30.93-20.134-32.4-21.6-2.13-2-2.8-2.134-5.86-.267z"/></svg>